%TF.GenerationSoftware,KiCad,Pcbnew,10.0.3-10.0.3~ubuntu25.10.1*%
%TF.CreationDate,2026-05-30T12:31:28-07:00*%
%TF.ProjectId,chugjug,63687567-6a75-4672-9e6b-696361645f70,rev?*%
%TF.SameCoordinates,Original*%
%TF.FileFunction,Copper,L1,Top*%
%TF.FilePolarity,Positive*%
%FSLAX46Y46*%
G04 Gerber Fmt 4.6, Leading zero omitted, Abs format (unit mm)*
G04 Created by KiCad (PCBNEW 10.0.3-10.0.3~ubuntu25.10.1) date 2026-05-30 12:31:28*
%MOMM*%
%LPD*%
G01*
G04 APERTURE LIST*
G04 Aperture macros list*
%AMRoundRect*
0 Rectangle with rounded corners*
0 $1 Rounding radius*
0 $2 $3 $4 $5 $6 $7 $8 $9 X,Y pos of 4 corners*
0 Add a 4 corners polygon primitive as box body*
4,1,4,$2,$3,$4,$5,$6,$7,$8,$9,$2,$3,0*
0 Add four circle primitives for the rounded corners*
1,1,$1+$1,$2,$3*
1,1,$1+$1,$4,$5*
1,1,$1+$1,$6,$7*
1,1,$1+$1,$8,$9*
0 Add four rect primitives between the rounded corners*
20,1,$1+$1,$2,$3,$4,$5,0*
20,1,$1+$1,$4,$5,$6,$7,0*
20,1,$1+$1,$6,$7,$8,$9,0*
20,1,$1+$1,$8,$9,$2,$3,0*%
G04 Aperture macros list end*
%TA.AperFunction,SMDPad,CuDef*%
%ADD10RoundRect,0.075000X-0.700000X-0.075000X0.700000X-0.075000X0.700000X0.075000X-0.700000X0.075000X0*%
%TD*%
%TA.AperFunction,SMDPad,CuDef*%
%ADD11RoundRect,0.075000X-0.075000X-0.700000X0.075000X-0.700000X0.075000X0.700000X-0.075000X0.700000X0*%
%TD*%
%TA.AperFunction,SMDPad,CuDef*%
%ADD12RoundRect,0.140000X-0.170000X0.140000X-0.170000X-0.140000X0.170000X-0.140000X0.170000X0.140000X0*%
%TD*%
%TA.AperFunction,SMDPad,CuDef*%
%ADD13RoundRect,0.140000X0.140000X0.170000X-0.140000X0.170000X-0.140000X-0.170000X0.140000X-0.170000X0*%
%TD*%
%TA.AperFunction,SMDPad,CuDef*%
%ADD14RoundRect,0.135000X0.135000X0.185000X-0.135000X0.185000X-0.135000X-0.185000X0.135000X-0.185000X0*%
%TD*%
%TA.AperFunction,WasherPad*%
%ADD15O,1.701800X1.092200*%
%TD*%
%TA.AperFunction,SMDPad,CuDef*%
%ADD16R,1.193800X0.711200*%
%TD*%
%TA.AperFunction,SMDPad,CuDef*%
%ADD17R,1.193800X0.762000*%
%TD*%
%TA.AperFunction,SMDPad,CuDef*%
%ADD18R,1.193800X0.812800*%
%TD*%
%TA.AperFunction,SMDPad,CuDef*%
%ADD19RoundRect,0.135000X-0.135000X-0.185000X0.135000X-0.185000X0.135000X0.185000X-0.135000X0.185000X0*%
%TD*%
%TA.AperFunction,SMDPad,CuDef*%
%ADD20RoundRect,0.087500X-0.662500X-0.087500X0.662500X-0.087500X0.662500X0.087500X-0.662500X0.087500X0*%
%TD*%
%TA.AperFunction,SMDPad,CuDef*%
%ADD21RoundRect,0.250000X0.475000X-0.250000X0.475000X0.250000X-0.475000X0.250000X-0.475000X-0.250000X0*%
%TD*%
%TA.AperFunction,SMDPad,CuDef*%
%ADD22R,1.003300X0.508000*%
%TD*%
%TA.AperFunction,SMDPad,CuDef*%
%ADD23RoundRect,0.062500X-0.062500X0.350000X-0.062500X-0.350000X0.062500X-0.350000X0.062500X0.350000X0*%
%TD*%
%TA.AperFunction,SMDPad,CuDef*%
%ADD24RoundRect,0.062500X-0.350000X0.062500X-0.350000X-0.062500X0.350000X-0.062500X0.350000X0.062500X0*%
%TD*%
%TA.AperFunction,HeatsinkPad*%
%ADD25R,1.230000X1.230000*%
%TD*%
%TA.AperFunction,ComponentPad*%
%ADD26R,2.000000X2.000000*%
%TD*%
%TA.AperFunction,ComponentPad*%
%ADD27C,2.000000*%
%TD*%
%TA.AperFunction,SMDPad,CuDef*%
%ADD28RoundRect,0.150000X0.200000X-0.150000X0.200000X0.150000X-0.200000X0.150000X-0.200000X-0.150000X0*%
%TD*%
%TA.AperFunction,SMDPad,CuDef*%
%ADD29RoundRect,0.135000X0.185000X-0.135000X0.185000X0.135000X-0.185000X0.135000X-0.185000X-0.135000X0*%
%TD*%
%TA.AperFunction,SMDPad,CuDef*%
%ADD30RoundRect,0.243750X0.243750X0.456250X-0.243750X0.456250X-0.243750X-0.456250X0.243750X-0.456250X0*%
%TD*%
%TA.AperFunction,ComponentPad*%
%ADD31RoundRect,0.250000X0.350000X0.625000X-0.350000X0.625000X-0.350000X-0.625000X0.350000X-0.625000X0*%
%TD*%
%TA.AperFunction,ComponentPad*%
%ADD32O,1.200000X1.750000*%
%TD*%
%TA.AperFunction,SMDPad,CuDef*%
%ADD33RoundRect,0.225000X-0.250000X0.225000X-0.250000X-0.225000X0.250000X-0.225000X0.250000X0.225000X0*%
%TD*%
%TA.AperFunction,SMDPad,CuDef*%
%ADD34RoundRect,0.140000X0.170000X-0.140000X0.170000X0.140000X-0.170000X0.140000X-0.170000X-0.140000X0*%
%TD*%
%TA.AperFunction,SMDPad,CuDef*%
%ADD35RoundRect,0.087500X0.087500X-0.187500X0.087500X0.187500X-0.087500X0.187500X-0.087500X-0.187500X0*%
%TD*%
%TA.AperFunction,SMDPad,CuDef*%
%ADD36RoundRect,0.087500X0.187500X-0.087500X0.187500X0.087500X-0.187500X0.087500X-0.187500X-0.087500X0*%
%TD*%
%TA.AperFunction,SMDPad,CuDef*%
%ADD37RoundRect,0.218750X-0.218750X-0.381250X0.218750X-0.381250X0.218750X0.381250X-0.218750X0.381250X0*%
%TD*%
%TA.AperFunction,SMDPad,CuDef*%
%ADD38RoundRect,0.250000X-0.250000X-0.475000X0.250000X-0.475000X0.250000X0.475000X-0.250000X0.475000X0*%
%TD*%
%TA.AperFunction,SMDPad,CuDef*%
%ADD39RoundRect,0.250000X0.250000X0.475000X-0.250000X0.475000X-0.250000X-0.475000X0.250000X-0.475000X0*%
%TD*%
%TA.AperFunction,SMDPad,CuDef*%
%ADD40RoundRect,0.218750X0.218750X0.256250X-0.218750X0.256250X-0.218750X-0.256250X0.218750X-0.256250X0*%
%TD*%
%TA.AperFunction,SMDPad,CuDef*%
%ADD41R,0.740000X2.790000*%
%TD*%
%TA.AperFunction,SMDPad,CuDef*%
%ADD42RoundRect,0.140000X-0.140000X-0.170000X0.140000X-0.170000X0.140000X0.170000X-0.140000X0.170000X0*%
%TD*%
%TA.AperFunction,ViaPad*%
%ADD43C,0.600000*%
%TD*%
%TA.AperFunction,Conductor*%
%ADD44C,0.600000*%
%TD*%
%TA.AperFunction,Conductor*%
%ADD45C,0.300000*%
%TD*%
%TA.AperFunction,Conductor*%
%ADD46C,0.400000*%
%TD*%
%TA.AperFunction,Conductor*%
%ADD47C,0.200000*%
%TD*%
%TA.AperFunction,Conductor*%
%ADD48C,0.500000*%
%TD*%
%TA.AperFunction,Conductor*%
%ADD49C,0.350000*%
%TD*%
%TA.AperFunction,Conductor*%
%ADD50C,0.800000*%
%TD*%
%TA.AperFunction,Conductor*%
%ADD51C,0.250000*%
%TD*%
%TA.AperFunction,Conductor*%
%ADD52C,1.000000*%
%TD*%
%TA.AperFunction,Conductor*%
%ADD53C,0.700000*%
%TD*%
%TA.AperFunction,Conductor*%
%ADD54C,0.750000*%
%TD*%
G04 APERTURE END LIST*
D10*
%TO.P,U1,1,VBAT_1*%
%TO.N,3V3*%
X154575000Y-85250000D03*
%TO.P,U1,2,PC13_2*%
%TO.N,unconnected-(U1-PC13-Pad2)*%
X154575000Y-85750000D03*
%TO.P,U1,3,PC14_3*%
%TO.N,unconnected-(U1-PC14-Pad3)*%
X154575000Y-86250000D03*
%TO.P,U1,4,PC15_4*%
%TO.N,unconnected-(U1-PC15-Pad4)*%
X154575000Y-86750000D03*
%TO.P,U1,5,PH0_5*%
%TO.N,unconnected-(U1-PH0-Pad5)*%
X154575000Y-87250000D03*
%TO.P,U1,6,PH1_6*%
%TO.N,unconnected-(U1-PH1-Pad6)*%
X154575000Y-87750000D03*
%TO.P,U1,7,NRST_7*%
%TO.N,/STLINK_NRST*%
X154575000Y-88250000D03*
%TO.P,U1,8,PC0_8*%
%TO.N,/STLINK_UART_RX*%
X154575000Y-88750000D03*
%TO.P,U1,9,PC1_9*%
%TO.N,/STLINK_UART_TX*%
X154575000Y-89250000D03*
%TO.P,U1,10,PC2_10*%
%TO.N,unconnected-(U1-PC2-Pad10)*%
X154575000Y-89750000D03*
%TO.P,U1,11,PC3_11*%
%TO.N,unconnected-(U1-PC3-Pad11)*%
X154575000Y-90250000D03*
%TO.P,U1,12,VSSA_12*%
%TO.N,GND*%
X154575000Y-90750000D03*
%TO.P,U1,13,VDDA_13*%
%TO.N,3V3*%
X154575000Y-91250000D03*
%TO.P,U1,14,PA0_14*%
%TO.N,/PWR_WKUP1*%
X154575000Y-91750000D03*
%TO.P,U1,15,PA1_15*%
%TO.N,unconnected-(U1-PA1-Pad15)*%
X154575000Y-92250000D03*
%TO.P,U1,16,PA2_16*%
%TO.N,unconnected-(U1-PA2-Pad16)*%
X154575000Y-92750000D03*
D11*
%TO.P,U1,17,PA3_17*%
%TO.N,unconnected-(U1-PA3-Pad17)*%
X156500000Y-94675000D03*
%TO.P,U1,18,VSS_18*%
%TO.N,GND*%
X157000000Y-94675000D03*
%TO.P,U1,19,VDD_19*%
%TO.N,3V3*%
X157500000Y-94675000D03*
%TO.P,U1,20,PA4_20*%
%TO.N,unconnected-(U1-PA4-Pad20)*%
X158000000Y-94675000D03*
%TO.P,U1,21,PA5_21*%
%TO.N,unconnected-(U1-PA5-Pad21)*%
X158500000Y-94675000D03*
%TO.P,U1,22,PA6_22*%
%TO.N,unconnected-(U1-PA6-Pad22)*%
X159000000Y-94675000D03*
%TO.P,U1,23,PA7_23*%
%TO.N,unconnected-(U1-PA7-Pad23)*%
X159500000Y-94675000D03*
%TO.P,U1,24,PB0_24*%
%TO.N,unconnected-(U1-PB0-Pad24)*%
X160000000Y-94675000D03*
%TO.P,U1,25,PB1_25*%
%TO.N,unconnected-(U1-PB1-Pad25)*%
X160500000Y-94675000D03*
%TO.P,U1,26,PB2_26*%
%TO.N,unconnected-(U1-PB2-Pad26)*%
X161000000Y-94675000D03*
%TO.P,U1,27,PB10_27*%
%TO.N,unconnected-(U1-PB10-Pad27)*%
X161500000Y-94675000D03*
%TO.P,U1,28,VLXSMPS_28*%
%TO.N,/VLXSMPS*%
X162000000Y-94675000D03*
%TO.P,U1,29,VDDSMPS_29*%
%TO.N,3V3*%
X162500000Y-94675000D03*
%TO.P,U1,30,VSSSMPS_30*%
%TO.N,GND*%
X163000000Y-94675000D03*
%TO.P,U1,31,VDD11_31*%
%TO.N,/VDD11*%
X163500000Y-94675000D03*
%TO.P,U1,32,VSS_32*%
%TO.N,GND*%
X164000000Y-94675000D03*
D10*
%TO.P,U1,33,VDD_33*%
%TO.N,3V3*%
X165925000Y-92750000D03*
%TO.P,U1,34,PB13_34*%
%TO.N,unconnected-(U1-PB13-Pad34)*%
X165925000Y-92250000D03*
%TO.P,U1,35,PB14_35*%
%TO.N,unconnected-(U1-PB14-Pad35)*%
X165925000Y-91750000D03*
%TO.P,U1,36,PB15_36*%
%TO.N,unconnected-(U1-PB15-Pad36)*%
X165925000Y-91250000D03*
%TO.P,U1,37,PC6_37*%
%TO.N,unconnected-(U1-PC6-Pad37)*%
X165925000Y-90750000D03*
%TO.P,U1,38,PC7_38*%
%TO.N,unconnected-(U1-PC7-Pad38)*%
X165925000Y-90250000D03*
%TO.P,U1,39,PC8_39*%
%TO.N,unconnected-(U1-PC8-Pad39)*%
X165925000Y-89750000D03*
%TO.P,U1,40,PC9_40*%
%TO.N,unconnected-(U1-PC9-Pad40)*%
X165925000Y-89250000D03*
%TO.P,U1,41,PA8_41*%
%TO.N,/I2S_BCLK*%
X165925000Y-88750000D03*
%TO.P,U1,42,PA9_42*%
%TO.N,/I2S_LRCLK*%
X165925000Y-88250000D03*
%TO.P,U1,43,PA10_43*%
%TO.N,/I2S_DATA*%
X165925000Y-87750000D03*
%TO.P,U1,44,PA11_44*%
%TO.N,/SD_MODE*%
X165925000Y-87250000D03*
%TO.P,U1,45,PA12_45*%
%TO.N,unconnected-(U1-PA12-Pad45)*%
X165925000Y-86750000D03*
%TO.P,U1,46,PA13_46*%
%TO.N,/STLINK_SWDIO*%
X165925000Y-86250000D03*
%TO.P,U1,47,VSS_47*%
%TO.N,GND*%
X165925000Y-85750000D03*
%TO.P,U1,48,VDDUSB_48*%
%TO.N,3V3*%
X165925000Y-85250000D03*
D11*
%TO.P,U1,49,PA14_49*%
%TO.N,/STLINK_SWCLK*%
X164000000Y-83325000D03*
%TO.P,U1,50,PA15_50*%
%TO.N,unconnected-(U1-PA15-Pad50)*%
X163500000Y-83325000D03*
%TO.P,U1,51,PC10_51*%
%TO.N,unconnected-(U1-PC10-Pad51)*%
X163000000Y-83325000D03*
%TO.P,U1,52,PC11_52*%
%TO.N,unconnected-(U1-PC11-Pad52)*%
X162500000Y-83325000D03*
%TO.P,U1,53,PC12_53*%
%TO.N,unconnected-(U1-PC12-Pad53)*%
X162000000Y-83325000D03*
%TO.P,U1,54,PD2_54*%
%TO.N,unconnected-(U1-PD2-Pad54)*%
X161500000Y-83325000D03*
%TO.P,U1,55,PB3_55*%
%TO.N,/STLINK_SWO*%
X161000000Y-83325000D03*
%TO.P,U1,56,PB4_56*%
%TO.N,unconnected-(U1-PB4-Pad56)*%
X160500000Y-83325000D03*
%TO.P,U1,57,PB5_57*%
%TO.N,/LIS3DH_INT1*%
X160000000Y-83325000D03*
%TO.P,U1,58,PB6_58*%
%TO.N,/LIS3DH_I2C1_SCL*%
X159500000Y-83325000D03*
%TO.P,U1,59,PB7_59*%
%TO.N,/LIS3DH_I2C1_SDA*%
X159000000Y-83325000D03*
%TO.P,U1,60,PH3_60*%
%TO.N,unconnected-(U1-PH3-Pad60)*%
X158500000Y-83325000D03*
%TO.P,U1,61,PB8_61*%
%TO.N,unconnected-(U1-PB8-Pad61)*%
X158000000Y-83325000D03*
%TO.P,U1,62,VDD11_62*%
%TO.N,/VDD11*%
X157500000Y-83325000D03*
%TO.P,U1,63,VSS_63*%
%TO.N,GND*%
X157000000Y-83325000D03*
%TO.P,U1,64,VDD_64*%
%TO.N,3V3*%
X156500000Y-83325000D03*
%TD*%
D12*
%TO.P,C14,1*%
%TO.N,+BATT*%
X141718842Y-93856121D03*
%TO.P,C14,2*%
%TO.N,GND*%
X141718842Y-94816121D03*
%TD*%
D13*
%TO.P,C11,1*%
%TO.N,GND*%
X157161252Y-81711872D03*
%TO.P,C11,2*%
%TO.N,3V3*%
X156201252Y-81711872D03*
%TD*%
D14*
%TO.P,R1,1*%
%TO.N,/LIS3DH_I2C1_SCL*%
X148004756Y-91738826D03*
%TO.P,R1,2*%
%TO.N,3V3*%
X146984756Y-91738826D03*
%TD*%
D15*
%TO.P,J4,*%
%TO.N,*%
X130954400Y-95180000D03*
X127154401Y-95180000D03*
X130954400Y-103820000D03*
X127154401Y-103820000D03*
D16*
%TO.P,J4,A5,CC1_A5*%
%TO.N,Net-(J4-CC1)*%
X131034401Y-99000001D03*
D17*
%TO.P,J4,A9,VBUS_A9*%
%TO.N,VBUS*%
X131034401Y-101020000D03*
D18*
%TO.P,J4,A12,GND_A12*%
%TO.N,GND*%
X131034401Y-102250000D03*
D16*
%TO.P,J4,B5,CC2_B5*%
%TO.N,Net-(J4-CC2)*%
X131034401Y-99999999D03*
D17*
%TO.P,J4,B9,VBUS_B9*%
%TO.N,VBUS*%
X131034284Y-97980064D03*
D18*
%TO.P,J4,B12,GND_B12*%
%TO.N,GND*%
X131034284Y-96750064D03*
%TD*%
D19*
%TO.P,R8,1*%
%TO.N,Net-(D2-K)*%
X132446246Y-106500000D03*
%TO.P,R8,2*%
%TO.N,Net-(U2-STAT2)*%
X133466246Y-106500000D03*
%TD*%
D14*
%TO.P,R5,1*%
%TO.N,Net-(U2-THERM)*%
X138260000Y-96250000D03*
%TO.P,R5,2*%
%TO.N,GND*%
X137240000Y-96250000D03*
%TD*%
D12*
%TO.P,C10,1*%
%TO.N,GND*%
X167547159Y-91740073D03*
%TO.P,C10,2*%
%TO.N,3V3*%
X167547159Y-92700073D03*
%TD*%
D20*
%TO.P,U2,1,V_{DD}_1*%
%TO.N,VBUS*%
X136900000Y-98000000D03*
%TO.P,U2,2,V_{DD}_2*%
X136900000Y-98500000D03*
%TO.P,U2,3,STAT1_3*%
%TO.N,Net-(U2-STAT1)*%
X136900000Y-99000000D03*
%TO.P,U2,4,STAT2_4*%
%TO.N,Net-(U2-STAT2)*%
X136900000Y-99500000D03*
%TO.P,U2,5,V_{SS}_5*%
%TO.N,GND*%
X136900000Y-100000000D03*
%TO.P,U2,6,PROG_6*%
%TO.N,Net-(U2-PROG)*%
X141100000Y-100000000D03*
%TO.P,U2,7,~{PG}_7*%
%TO.N,Net-(U2-~{PG})*%
X141100000Y-99500000D03*
%TO.P,U2,8,THERM_8*%
%TO.N,Net-(U2-THERM)*%
X141100000Y-99000000D03*
%TO.P,U2,9,V_{BAT}_9*%
%TO.N,+BATT*%
X141100000Y-98500000D03*
%TO.P,U2,10,V_{BAT}_10*%
X141100000Y-98000000D03*
%TD*%
D21*
%TO.P,C1,1*%
%TO.N,3V3*%
X143093574Y-88724743D03*
%TO.P,C1,2*%
%TO.N,GND*%
X143093574Y-86824743D03*
%TD*%
D22*
%TO.P,U5,1,IN_1*%
%TO.N,+BATT*%
X143244100Y-93799999D03*
%TO.P,U5,2,GND_2*%
%TO.N,GND*%
X143244100Y-94750000D03*
%TO.P,U5,3,EN_3*%
%TO.N,+BATT*%
X143244100Y-95700001D03*
%TO.P,U5,4,GND_4*%
%TO.N,GND*%
X146000000Y-95700001D03*
%TO.P,U5,5,OUT_5*%
%TO.N,3V3*%
X146000000Y-93799999D03*
%TD*%
D23*
%TO.P,U4,1,DIN_1*%
%TO.N,/I2S_DATA*%
X150750000Y-98562500D03*
%TO.P,U4,2,GAIN_SLOT_2*%
%TO.N,+BATT*%
X150250000Y-98562500D03*
%TO.P,U4,3,GND_3*%
%TO.N,GND*%
X149750000Y-98562500D03*
%TO.P,U4,4,~{SD_MODE}_4*%
%TO.N,/SD_MODE*%
X149250000Y-98562500D03*
D24*
%TO.P,U4,5,NC_5*%
%TO.N,unconnected-(U4-NC-Pad5)*%
X148562500Y-99250000D03*
%TO.P,U4,6,NC_6*%
%TO.N,unconnected-(U4-NC-Pad6)*%
X148562500Y-99750000D03*
%TO.P,U4,7,VDD_7*%
%TO.N,+BATT*%
X148562500Y-100250000D03*
%TO.P,U4,8,VDD_8*%
X148562500Y-100750000D03*
D23*
%TO.P,U4,9,OUTP_9*%
%TO.N,Net-(BZ1-+)*%
X149250000Y-101437500D03*
%TO.P,U4,10,OUTN_10*%
%TO.N,Net-(BZ1--)*%
X149750000Y-101437500D03*
%TO.P,U4,11,GND_11*%
%TO.N,GND*%
X150250000Y-101437500D03*
%TO.P,U4,12,NC_12*%
%TO.N,unconnected-(U4-NC-Pad12)*%
X150750000Y-101437500D03*
D24*
%TO.P,U4,13,NC_13*%
%TO.N,unconnected-(U4-NC-Pad13)*%
X151437500Y-100750000D03*
%TO.P,U4,14,LRCLK_14*%
%TO.N,/I2S_LRCLK*%
X151437500Y-100250000D03*
%TO.P,U4,15,GND_15*%
%TO.N,GND*%
X151437500Y-99750000D03*
%TO.P,U4,16,BCLK_16*%
%TO.N,/I2S_BCLK*%
X151437500Y-99250000D03*
D25*
%TO.P,U4,17,PAD_17*%
%TO.N,unconnected-(U4-PAD-Pad17)*%
X150000000Y-100000000D03*
%TD*%
D26*
%TO.P,BZ1,1,+_1*%
%TO.N,Net-(BZ1-+)*%
X162000000Y-106250000D03*
D27*
%TO.P,BZ1,2,-_2*%
%TO.N,Net-(BZ1--)*%
X152000000Y-106250000D03*
%TD*%
D28*
%TO.P,D4,1,K_1*%
%TO.N,GND*%
X133499999Y-96487511D03*
%TO.P,D4,2,A_2*%
%TO.N,VBUS*%
X133499999Y-97887511D03*
%TD*%
D29*
%TO.P,R2,1*%
%TO.N,3V3*%
X149950000Y-90810000D03*
%TO.P,R2,2*%
%TO.N,/LIS3DH_I2C1_SDA*%
X149950000Y-89790000D03*
%TD*%
D30*
%TO.P,D2,1,K_1*%
%TO.N,Net-(D2-K)*%
X130922606Y-106000000D03*
%TO.P,D2,2,A_2*%
%TO.N,VBUS*%
X129047606Y-106000000D03*
%TD*%
D19*
%TO.P,R9,1*%
%TO.N,Net-(D3-K)*%
X132506274Y-108381147D03*
%TO.P,R9,2*%
%TO.N,Net-(U2-STAT1)*%
X133526274Y-108381147D03*
%TD*%
D31*
%TO.P,J2,1,Pin_1_1*%
%TO.N,+BATT*%
X139000000Y-90950000D03*
D32*
%TO.P,J2,2,Pin_2_2*%
%TO.N,GND*%
X137000000Y-90950000D03*
%TD*%
D29*
%TO.P,R3,1*%
%TO.N,GND*%
X143353970Y-78358003D03*
%TO.P,R3,2*%
%TO.N,Net-(J1-Pad11)*%
X143353970Y-77338003D03*
%TD*%
D19*
%TO.P,R6,1*%
%TO.N,Net-(J4-CC1)*%
X132629626Y-99012188D03*
%TO.P,R6,2*%
%TO.N,GND*%
X133649626Y-99012188D03*
%TD*%
D30*
%TO.P,D3,1,K_1*%
%TO.N,Net-(D3-K)*%
X130953774Y-108383650D03*
%TO.P,D3,2,A_2*%
%TO.N,VBUS*%
X129078774Y-108383650D03*
%TD*%
D12*
%TO.P,C15,1*%
%TO.N,+BATT*%
X142750000Y-98270000D03*
%TO.P,C15,2*%
%TO.N,GND*%
X142750000Y-99230000D03*
%TD*%
D33*
%TO.P,C3,1*%
%TO.N,/VDD11*%
X165750000Y-95975000D03*
%TO.P,C3,2*%
%TO.N,GND*%
X165750000Y-97525000D03*
%TD*%
D21*
%TO.P,C5,1*%
%TO.N,+BATT*%
X145500000Y-100262500D03*
%TO.P,C5,2*%
%TO.N,GND*%
X145500000Y-98362500D03*
%TD*%
D34*
%TO.P,C17,1*%
%TO.N,GND*%
X152000000Y-92230000D03*
%TO.P,C17,2*%
%TO.N,3V3*%
X152000000Y-91270000D03*
%TD*%
%TO.P,C6,1*%
%TO.N,+BATT*%
X147250000Y-100542500D03*
%TO.P,C6,2*%
%TO.N,GND*%
X147250000Y-99582500D03*
%TD*%
D35*
%TO.P,U3,1,VDD_IO_1*%
%TO.N,3V3*%
X146500000Y-90475000D03*
%TO.P,U3,2,NC_2*%
%TO.N,unconnected-(U3-NC-Pad2)*%
X147000000Y-90475000D03*
%TO.P,U3,3,NC_3*%
%TO.N,unconnected-(U3-NC-Pad3)*%
X147500000Y-90475000D03*
%TO.P,U3,4,SPC_4*%
%TO.N,/LIS3DH_I2C1_SCL*%
X148000000Y-90475000D03*
%TO.P,U3,5,GND_5*%
%TO.N,GND*%
X148500000Y-90475000D03*
D36*
%TO.P,U3,6,SDI_6*%
%TO.N,/LIS3DH_I2C1_SDA*%
X148725000Y-89750000D03*
%TO.P,U3,7,SDO_7*%
%TO.N,GND*%
X148725000Y-89250000D03*
%TO.P,U3,8,CS_8*%
%TO.N,3V3*%
X148725000Y-88750000D03*
D35*
%TO.P,U3,9,INT2_9*%
%TO.N,/PWR_WKUP1*%
X148500000Y-88025000D03*
%TO.P,U3,10,GND_10*%
%TO.N,GND*%
X148000000Y-88025000D03*
%TO.P,U3,11,INT1_11*%
%TO.N,/LIS3DH_INT1*%
X147500000Y-88025000D03*
%TO.P,U3,12,GND_12*%
%TO.N,GND*%
X147000000Y-88025000D03*
%TO.P,U3,13,ADC3_13*%
%TO.N,unconnected-(U3-ADC3-Pad13)*%
X146500000Y-88025000D03*
D36*
%TO.P,U3,14,VDD_14*%
%TO.N,3V3*%
X146275000Y-88750000D03*
%TO.P,U3,15,ADC2_15*%
%TO.N,unconnected-(U3-ADC2-Pad15)*%
X146275000Y-89250000D03*
%TO.P,U3,16,ADC1_16*%
%TO.N,unconnected-(U3-ADC1-Pad16)*%
X146275000Y-89750000D03*
%TD*%
D37*
%TO.P,L1,1,1_1*%
%TO.N,/VLXSMPS*%
X161687500Y-99500000D03*
%TO.P,L1,2,2_2*%
%TO.N,/VDD11*%
X163812500Y-99500000D03*
%TD*%
D38*
%TO.P,C7,1*%
%TO.N,3V3*%
X161800000Y-97250000D03*
%TO.P,C7,2*%
%TO.N,GND*%
X163700000Y-97250000D03*
%TD*%
D39*
%TO.P,C8,1*%
%TO.N,3V3*%
X158268223Y-98075421D03*
%TO.P,C8,2*%
%TO.N,GND*%
X156368223Y-98075421D03*
%TD*%
D34*
%TO.P,C18,1*%
%TO.N,GND*%
X153000000Y-92230000D03*
%TO.P,C18,2*%
%TO.N,3V3*%
X153000000Y-91270000D03*
%TD*%
D40*
%TO.P,D1,1,K_1*%
%TO.N,Net-(D1-K)*%
X130740600Y-110500000D03*
%TO.P,D1,2,A_2*%
%TO.N,VBUS*%
X129165600Y-110500000D03*
%TD*%
D34*
%TO.P,C16,1*%
%TO.N,VBUS*%
X135250000Y-97980000D03*
%TO.P,C16,2*%
%TO.N,GND*%
X135250000Y-97020000D03*
%TD*%
%TO.P,C12,1*%
%TO.N,GND*%
X167500000Y-85980000D03*
%TO.P,C12,2*%
%TO.N,3V3*%
X167500000Y-85020000D03*
%TD*%
D19*
%TO.P,R7,1*%
%TO.N,Net-(J4-CC2)*%
X132639626Y-100012188D03*
%TO.P,R7,2*%
%TO.N,GND*%
X133659626Y-100012188D03*
%TD*%
D33*
%TO.P,C4,1*%
%TO.N,/VDD11*%
X167250000Y-95975000D03*
%TO.P,C4,2*%
%TO.N,GND*%
X167250000Y-97525000D03*
%TD*%
D41*
%TO.P,J1,01,01_01*%
%TO.N,unconnected-(J1-Pad01)*%
X152560000Y-78465000D03*
%TO.P,J1,02,02_02*%
%TO.N,unconnected-(J1-Pad02)*%
X152560000Y-82535000D03*
%TO.P,J1,03,03_03*%
%TO.N,3V3*%
X151290000Y-78465000D03*
%TO.P,J1,04,04_04*%
%TO.N,/STLINK_SWDIO*%
X151290000Y-82535000D03*
%TO.P,J1,05,05_05*%
%TO.N,GND*%
X150020000Y-78465000D03*
%TO.P,J1,06,06_06*%
%TO.N,/STLINK_SWCLK*%
X150020000Y-82535000D03*
%TO.P,J1,07,07_07*%
%TO.N,GND*%
X148750000Y-78465000D03*
%TO.P,J1,08,08_08*%
%TO.N,/STLINK_SWO*%
X148750000Y-82535000D03*
%TO.P,J1,09,09_09*%
%TO.N,unconnected-(J1-Pad09)*%
X147480000Y-78465000D03*
%TO.P,J1,10,10_10*%
%TO.N,unconnected-(J1-Pad10)*%
X147480000Y-82535000D03*
%TO.P,J1,11,11_11*%
%TO.N,Net-(J1-Pad11)*%
X146210000Y-78465000D03*
%TO.P,J1,12,12_12*%
%TO.N,/STLINK_NRST*%
X146210000Y-82535000D03*
%TO.P,J1,13,13_13*%
%TO.N,/STLINK_UART_RX*%
X144940000Y-78465000D03*
%TO.P,J1,14,14_14*%
%TO.N,/STLINK_UART_TX*%
X144940000Y-82535000D03*
%TD*%
D14*
%TO.P,R4,1*%
%TO.N,Net-(U2-PROG)*%
X141760000Y-101500000D03*
%TO.P,R4,2*%
%TO.N,GND*%
X140740000Y-101500000D03*
%TD*%
D42*
%TO.P,C9,1*%
%TO.N,GND*%
X156770000Y-96500000D03*
%TO.P,C9,2*%
%TO.N,3V3*%
X157730000Y-96500000D03*
%TD*%
D34*
%TO.P,C2,1*%
%TO.N,3V3*%
X144750000Y-88730000D03*
%TO.P,C2,2*%
%TO.N,GND*%
X144750000Y-87770000D03*
%TD*%
D19*
%TO.P,R10,1*%
%TO.N,Net-(D1-K)*%
X132251636Y-110496457D03*
%TO.P,R10,2*%
%TO.N,Net-(U2-~{PG})*%
X133271636Y-110496457D03*
%TD*%
D12*
%TO.P,C13,1*%
%TO.N,3V3*%
X147549379Y-93796015D03*
%TO.P,C13,2*%
%TO.N,GND*%
X147549379Y-94756015D03*
%TD*%
D43*
%TO.N,3V3*%
X152620601Y-90660185D03*
X143120315Y-89566224D03*
X151368219Y-91270000D03*
X161796194Y-98318105D03*
X151291761Y-76518395D03*
X148203985Y-93796015D03*
X167500000Y-84393533D03*
X156201252Y-81075808D03*
X146375285Y-91735660D03*
X167547159Y-93309293D03*
X149950000Y-91650000D03*
X154350000Y-84000000D03*
X159113688Y-98080027D03*
%TO.N,/STLINK_UART_RX*%
X151049265Y-86049265D03*
X143500000Y-80250000D03*
%TO.N,GND*%
X152605731Y-99542985D03*
X163743279Y-98306715D03*
X140750000Y-102250000D03*
X152993732Y-92843283D03*
X148750000Y-76500000D03*
X140858259Y-94816121D03*
X145500000Y-97500000D03*
X156188809Y-96500000D03*
X142750000Y-99827934D03*
X153250000Y-89750000D03*
X150750000Y-102500000D03*
X150020000Y-76520000D03*
X148250000Y-87250000D03*
X136750000Y-100750000D03*
X143353970Y-79146030D03*
X151990740Y-92837014D03*
X165752992Y-98301491D03*
X149800000Y-88750000D03*
X144761789Y-87144330D03*
X148950000Y-91400000D03*
X132250000Y-102250000D03*
X137000000Y-93250000D03*
X134248286Y-96497429D03*
X149650000Y-97600000D03*
X168250000Y-86000000D03*
X143096822Y-86007451D03*
X136250000Y-96250000D03*
X146750000Y-87250000D03*
X167247032Y-98296267D03*
X167547015Y-91131345D03*
X135250000Y-96423833D03*
X148264995Y-94743279D03*
X134233580Y-99008951D03*
X155547424Y-98075421D03*
X164750000Y-94750000D03*
X157161252Y-81094964D03*
X134249251Y-100011943D03*
X147246309Y-98974165D03*
%TO.N,/I2S_BCLK*%
X167500000Y-89000000D03*
X152500000Y-98750000D03*
%TO.N,/I2S_LRCLK*%
X152500000Y-100500000D03*
X168250000Y-88500000D03*
%TO.N,/I2S_DATA*%
X151750000Y-97750000D03*
X168000000Y-87500000D03*
%TO.N,/SD_MODE*%
X148500000Y-97600000D03*
X167499936Y-86782228D03*
%TO.N,/STLINK_SWCLK*%
X164000000Y-81750000D03*
X149575735Y-84575735D03*
%TO.N,/STLINK_SWO*%
X162500000Y-80750000D03*
X148750000Y-84500000D03*
%TO.N,/LIS3DH_INT1*%
X160750000Y-81500000D03*
X147500000Y-86750000D03*
%TO.N,/LIS3DH_I2C1_SCL*%
X148000000Y-92500000D03*
X160000000Y-81000000D03*
%TO.N,/LIS3DH_I2C1_SDA*%
X158500000Y-81000000D03*
X151000000Y-89750000D03*
%TO.N,Net-(BZ1-+)*%
X162000000Y-103500000D03*
X148500000Y-102250000D03*
%TD*%
%TO.N,3V3*%
D44*
X152620601Y-90890601D02*
X153000000Y-91270000D01*
D45*
X145250000Y-88750000D02*
X145500000Y-89000000D01*
D44*
X152620601Y-90660185D02*
X152620601Y-90890601D01*
D46*
X146000000Y-90500000D02*
X146475000Y-90500000D01*
D47*
X143120315Y-88751484D02*
X143093574Y-88724743D01*
D45*
X157730000Y-96500000D02*
X157500000Y-96270000D01*
D44*
X145250000Y-88750000D02*
X143368831Y-88750000D01*
D45*
X146475000Y-90500000D02*
X146500000Y-90475000D01*
X145500000Y-88750000D02*
X145500000Y-89000000D01*
D44*
X149950000Y-91650000D02*
X149950000Y-90810000D01*
X148203985Y-93796015D02*
X147549379Y-93796015D01*
D47*
X147545395Y-93799999D02*
X147549379Y-93796015D01*
D45*
X161800000Y-96450000D02*
X161800000Y-97250000D01*
D48*
X158268223Y-98075421D02*
X158268223Y-97038223D01*
D44*
X152000000Y-91270000D02*
X151368219Y-91270000D01*
X159113688Y-98080027D02*
X158272829Y-98080027D01*
X167547159Y-92700073D02*
X167547159Y-93309293D01*
D48*
X152000000Y-91270000D02*
X153000000Y-91270000D01*
D44*
X143120315Y-89566224D02*
X143120315Y-88751484D01*
D45*
X167480000Y-85000000D02*
X167500000Y-85020000D01*
D49*
X145750000Y-88750000D02*
X145500000Y-88750000D01*
D46*
X145500000Y-90000000D02*
X146000000Y-90500000D01*
D44*
X167500000Y-85020000D02*
X167500000Y-84393533D01*
D45*
X156500000Y-83325000D02*
X156500000Y-82010620D01*
D44*
X154350000Y-84000000D02*
X154350000Y-85025000D01*
D45*
X156500000Y-82010620D02*
X156201252Y-81711872D01*
D48*
X158268223Y-97038223D02*
X157730000Y-96500000D01*
D45*
X154575000Y-91250000D02*
X153020000Y-91250000D01*
X145500000Y-88750000D02*
X145250000Y-88750000D01*
D47*
X161796194Y-97253806D02*
X161800000Y-97250000D01*
D44*
X146000000Y-93799999D02*
X147545395Y-93799999D01*
D47*
X153020000Y-91250000D02*
X153000000Y-91270000D01*
D49*
X146275000Y-88750000D02*
X145750000Y-88750000D01*
D45*
X145500000Y-89000000D02*
X145750000Y-88750000D01*
D47*
X148735000Y-88740000D02*
X148725000Y-88750000D01*
X148725000Y-88750000D02*
X148675000Y-88800000D01*
X148675000Y-88800000D02*
X146325000Y-88800000D01*
D46*
X145500000Y-89000000D02*
X145500000Y-90000000D01*
D44*
X146375285Y-91735660D02*
X146981590Y-91735660D01*
D47*
X146981590Y-91735660D02*
X146984756Y-91738826D01*
X146325000Y-88800000D02*
X146275000Y-88750000D01*
D45*
X162500000Y-95750000D02*
X161800000Y-96450000D01*
X165925000Y-92750000D02*
X167497232Y-92750000D01*
X162500000Y-94675000D02*
X162500000Y-95750000D01*
X165925000Y-85250000D02*
X166750000Y-85250000D01*
X166750000Y-85250000D02*
X167000000Y-85000000D01*
D47*
X151290000Y-76520156D02*
X151291761Y-76518395D01*
D44*
X151290000Y-78465000D02*
X151290000Y-76520156D01*
D45*
X157500000Y-96270000D02*
X157500000Y-94675000D01*
D44*
X156201252Y-81711872D02*
X156201252Y-81075808D01*
D47*
X167497232Y-92750000D02*
X167547159Y-92700073D01*
X158272829Y-98080027D02*
X158268223Y-98075421D01*
D45*
X167000000Y-85000000D02*
X167480000Y-85000000D01*
D44*
X161796194Y-98318105D02*
X161796194Y-97253806D01*
%TO.N,/STLINK_NRST*%
D47*
X153500000Y-88250000D02*
X153000000Y-87750000D01*
X148000000Y-85250000D02*
X146210000Y-83460000D01*
X154575000Y-88250000D02*
X153500000Y-88250000D01*
X152250000Y-85250000D02*
X148000000Y-85250000D01*
X153000000Y-86000000D02*
X152250000Y-85250000D01*
X153000000Y-87750000D02*
X153000000Y-86000000D01*
X146210000Y-83460000D02*
X146210000Y-82535000D01*
%TO.N,/STLINK_UART_RX*%
X151299265Y-86049265D02*
X152000000Y-86750000D01*
X152000000Y-87500000D02*
X153250000Y-88750000D01*
X151049265Y-86049265D02*
X151299265Y-86049265D01*
X153250000Y-88750000D02*
X154575000Y-88750000D01*
X152000000Y-86750000D02*
X152000000Y-87500000D01*
X144940000Y-78465000D02*
X144940000Y-78810000D01*
X144940000Y-78810000D02*
X143500000Y-80250000D01*
%TO.N,/STLINK_UART_TX*%
X154575000Y-89250000D02*
X154475000Y-89150000D01*
X144940000Y-83560000D02*
X144940000Y-82535000D01*
X152650000Y-89150000D02*
X149500000Y-86000000D01*
X154475000Y-89150000D02*
X152650000Y-89150000D01*
X149500000Y-86000000D02*
X145500000Y-86000000D01*
X145000000Y-85500000D02*
X145000000Y-83620000D01*
X145000000Y-83620000D02*
X144940000Y-83560000D01*
X145500000Y-86000000D02*
X145000000Y-85500000D01*
%TO.N,GND*%
D45*
X153250000Y-89750000D02*
X153250743Y-89750743D01*
D44*
X148264995Y-94743279D02*
X147562115Y-94743279D01*
D47*
X150020000Y-76520000D02*
X150000000Y-76500000D01*
X167247032Y-97527968D02*
X167250000Y-97525000D01*
X148000000Y-88025000D02*
X148000000Y-87500000D01*
D44*
X143244100Y-94750000D02*
X141784963Y-94750000D01*
X137240000Y-96250000D02*
X136250000Y-96250000D01*
X150020000Y-78465000D02*
X150020000Y-76520000D01*
X164750000Y-94750000D02*
X164250000Y-94750000D01*
D50*
X146000000Y-95560221D02*
X146744100Y-94816121D01*
D47*
X153001239Y-92231239D02*
X153000000Y-92230000D01*
D50*
X131749936Y-96750064D02*
X132012489Y-96487511D01*
D44*
X156368223Y-98075421D02*
X155547424Y-98075421D01*
D47*
X147000000Y-87500000D02*
X146750000Y-87250000D01*
X147000000Y-88025000D02*
X147000000Y-87500000D01*
X148000000Y-88250000D02*
X148000000Y-88025000D01*
D51*
X151437500Y-99750000D02*
X152398716Y-99750000D01*
D44*
X168250000Y-86000000D02*
X168232231Y-85982231D01*
X144750000Y-87156119D02*
X144761789Y-87144330D01*
D50*
X146605393Y-95700001D02*
X147399747Y-94905647D01*
D47*
X134230343Y-99012188D02*
X134233580Y-99008951D01*
X165752992Y-97527992D02*
X165750000Y-97525000D01*
D45*
X157000000Y-83325000D02*
X157000000Y-81873124D01*
X153250743Y-90500743D02*
X153500000Y-90750000D01*
D44*
X136750000Y-100750000D02*
X136750000Y-100150000D01*
D50*
X146000000Y-95700001D02*
X146000000Y-95560221D01*
D47*
X167502231Y-85982231D02*
X167500000Y-85980000D01*
D44*
X165752992Y-98301491D02*
X165752992Y-97527992D01*
D47*
X136750000Y-100150000D02*
X136900000Y-100000000D01*
D52*
X137000000Y-90950000D02*
X137000000Y-93250000D01*
D47*
X147562115Y-94743279D02*
X147549379Y-94756015D01*
X150250000Y-102000000D02*
X150250000Y-101437500D01*
D44*
X144750000Y-87770000D02*
X144750000Y-87156119D01*
X145500000Y-98362500D02*
X145500000Y-97500000D01*
D50*
X146744100Y-94816121D02*
X147310221Y-94816121D01*
X147310221Y-94816121D02*
X147399747Y-94905647D01*
D44*
X153000000Y-92230000D02*
X153000000Y-92837015D01*
D47*
X167547159Y-91131489D02*
X167547015Y-91131345D01*
D44*
X157161252Y-81711872D02*
X157161252Y-81094964D01*
X147250000Y-99582500D02*
X147250000Y-98977856D01*
X140740000Y-101500000D02*
X140740000Y-102240000D01*
D48*
X156368223Y-97131777D02*
X156368223Y-98075421D01*
D45*
X163000000Y-95750000D02*
X163700000Y-96450000D01*
D48*
X133649626Y-99012188D02*
X134230343Y-99012188D01*
D47*
X149800000Y-88750000D02*
X149300000Y-89250000D01*
D45*
X157000000Y-81873124D02*
X157161252Y-81711872D01*
D47*
X147250000Y-98977856D02*
X147246309Y-98974165D01*
D45*
X167270000Y-85750000D02*
X167500000Y-85980000D01*
X149750000Y-98562500D02*
X149750000Y-97700000D01*
D47*
X152000000Y-92827754D02*
X151990740Y-92837014D01*
D44*
X144069999Y-87770000D02*
X144750000Y-87770000D01*
X163743279Y-98306715D02*
X163743279Y-97293279D01*
D47*
X149750000Y-97700000D02*
X149650000Y-97600000D01*
D50*
X147399747Y-94905647D02*
X147549379Y-94756015D01*
D47*
X156770000Y-96500000D02*
X156770000Y-96730000D01*
D45*
X153250743Y-89750743D02*
X153250743Y-90500743D01*
D44*
X152000000Y-92230000D02*
X152000000Y-92827754D01*
X167547159Y-91740073D02*
X167547159Y-91131489D01*
D48*
X133659626Y-100012188D02*
X134249006Y-100012188D01*
D44*
X135250000Y-97020000D02*
X135250000Y-96423833D01*
D47*
X143093574Y-86824743D02*
X143124742Y-86824743D01*
D50*
X134238368Y-96487511D02*
X134248286Y-96497429D01*
D47*
X156770000Y-96500000D02*
X157000000Y-96270000D01*
D44*
X143124742Y-86824743D02*
X144069999Y-87770000D01*
D45*
X163000000Y-94675000D02*
X163000000Y-95750000D01*
D44*
X143353970Y-79146030D02*
X143353970Y-78358003D01*
D51*
X152398716Y-99750000D02*
X152605731Y-99542985D01*
D46*
X148950000Y-91400000D02*
X148950000Y-90925000D01*
D44*
X156770000Y-96500000D02*
X156188809Y-96500000D01*
X132250000Y-102250000D02*
X131034401Y-102250000D01*
D45*
X157000000Y-96270000D02*
X157000000Y-94675000D01*
D50*
X133499999Y-96487511D02*
X134238368Y-96487511D01*
D44*
X140740000Y-102240000D02*
X140750000Y-102250000D01*
D47*
X134249006Y-100012188D02*
X134249251Y-100011943D01*
X143093574Y-86010699D02*
X143096822Y-86007451D01*
D50*
X132012489Y-96487511D02*
X133499999Y-96487511D01*
D45*
X153500000Y-90750000D02*
X154575000Y-90750000D01*
D44*
X143093574Y-86824743D02*
X143093574Y-86010699D01*
D47*
X149300000Y-89250000D02*
X148725000Y-89250000D01*
D48*
X156770000Y-96730000D02*
X156368223Y-97131777D01*
D44*
X167247032Y-98296267D02*
X167247032Y-97527968D01*
X142750000Y-99230000D02*
X142750000Y-99827934D01*
D47*
X141784963Y-94750000D02*
X141718842Y-94816121D01*
D46*
X148950000Y-90925000D02*
X148500000Y-90475000D01*
D47*
X150750000Y-102500000D02*
X150250000Y-102000000D01*
D45*
X163700000Y-96450000D02*
X163700000Y-97250000D01*
D44*
X148750000Y-76500000D02*
X148750000Y-78465000D01*
D47*
X153000000Y-92837015D02*
X152993732Y-92843283D01*
D50*
X131034284Y-96750064D02*
X131749936Y-96750064D01*
D47*
X148000000Y-87500000D02*
X148250000Y-87250000D01*
D45*
X165925000Y-85750000D02*
X167270000Y-85750000D01*
D47*
X163743279Y-97293279D02*
X163700000Y-97250000D01*
D44*
X141718842Y-94816121D02*
X140858259Y-94816121D01*
D50*
X146000000Y-95700001D02*
X146605393Y-95700001D01*
D44*
X168232231Y-85982231D02*
X167502231Y-85982231D01*
%TO.N,/PWR_WKUP1*%
D47*
X148500000Y-88025000D02*
X149275000Y-87250000D01*
X156000000Y-92250000D02*
X155500000Y-91750000D01*
X150750000Y-93550000D02*
X151200000Y-94000000D01*
X150750000Y-91000000D02*
X150750000Y-93550000D01*
X156000000Y-93250000D02*
X156000000Y-92250000D01*
X149275000Y-87250000D02*
X150000000Y-87250000D01*
X150000000Y-87250000D02*
X152000000Y-89250000D01*
X151200000Y-94000000D02*
X155250000Y-94000000D01*
X155500000Y-91750000D02*
X154575000Y-91750000D01*
X155250000Y-94000000D02*
X156000000Y-93250000D01*
X152000000Y-89250000D02*
X152000000Y-89750000D01*
X152000000Y-89750000D02*
X150750000Y-91000000D01*
%TO.N,/VLXSMPS*%
X161375000Y-96000000D02*
X161000000Y-96000000D01*
X162000000Y-95375000D02*
X161375000Y-96000000D01*
X161000000Y-96000000D02*
X160750000Y-96250000D01*
X162000000Y-94675000D02*
X162000000Y-95375000D01*
X160750000Y-96250000D02*
X160750000Y-98562500D01*
X160750000Y-98562500D02*
X161687500Y-99500000D01*
%TO.N,/VDD11*%
D45*
X163500000Y-93500000D02*
X163500000Y-94009012D01*
X157500000Y-87500000D02*
X163500000Y-93500000D01*
X164750000Y-96250000D02*
X165475000Y-96250000D01*
X157500000Y-83325000D02*
X157500000Y-87500000D01*
X164500000Y-96000000D02*
X164750000Y-96250000D01*
X164750000Y-95975000D02*
X164750000Y-96250000D01*
X163500000Y-94675000D02*
X163500000Y-95500000D01*
X164500000Y-95975000D02*
X164750000Y-95975000D01*
X164500000Y-95975000D02*
X164500000Y-96000000D01*
X164750000Y-98562500D02*
X163812500Y-99500000D01*
D47*
X163500000Y-94009012D02*
X163500000Y-94675000D01*
D45*
X164750000Y-96250000D02*
X164750000Y-98562500D01*
X163500000Y-95500000D02*
X163975000Y-95975000D01*
X163975000Y-95975000D02*
X164500000Y-95975000D01*
X164750000Y-95975000D02*
X165250000Y-95975000D01*
X165475000Y-96250000D02*
X165750000Y-95975000D01*
D50*
X165750000Y-95975000D02*
X167250000Y-95975000D01*
%TO.N,/I2S_BCLK*%
D47*
X151437500Y-99250000D02*
X151937500Y-98750000D01*
X151937500Y-98750000D02*
X152500000Y-98750000D01*
X167250000Y-88750000D02*
X167500000Y-89000000D01*
X165925000Y-88750000D02*
X167250000Y-88750000D01*
%TO.N,/I2S_LRCLK*%
X168000000Y-88250000D02*
X168250000Y-88500000D01*
X151537500Y-100350000D02*
X152350000Y-100350000D01*
X152350000Y-100350000D02*
X152500000Y-100500000D01*
X151437500Y-100250000D02*
X151537500Y-100350000D01*
X165925000Y-88250000D02*
X168000000Y-88250000D01*
%TO.N,/I2S_DATA*%
X150750000Y-98562500D02*
X151562500Y-97750000D01*
X167750000Y-87750000D02*
X168000000Y-87500000D01*
X151562500Y-97750000D02*
X151750000Y-97750000D01*
X165925000Y-87750000D02*
X167750000Y-87750000D01*
%TO.N,/SD_MODE*%
X149250000Y-98350000D02*
X148500000Y-97600000D01*
X149250000Y-98562500D02*
X149250000Y-98350000D01*
X167032164Y-87250000D02*
X165925000Y-87250000D01*
X167499936Y-86782228D02*
X167032164Y-87250000D01*
%TO.N,/STLINK_SWDIO*%
X151500000Y-84500000D02*
X151290000Y-84290000D01*
X156250000Y-79750000D02*
X153750000Y-82250000D01*
X153750000Y-83750000D02*
X153000000Y-84500000D01*
X165150001Y-86250000D02*
X164750000Y-85849999D01*
X153750000Y-82250000D02*
X153750000Y-83750000D01*
X164750000Y-81250000D02*
X163250000Y-79750000D01*
X163250000Y-79750000D02*
X156250000Y-79750000D01*
X164750000Y-85849999D02*
X164750000Y-81250000D01*
X153000000Y-84500000D02*
X151500000Y-84500000D01*
X165925000Y-86250000D02*
X165150001Y-86250000D01*
X151290000Y-84290000D02*
X151290000Y-82535000D01*
%TO.N,/STLINK_SWCLK*%
X150020000Y-83560000D02*
X150020000Y-82535000D01*
X150000000Y-84151470D02*
X150000000Y-83580000D01*
X164000000Y-81750000D02*
X164000000Y-83325000D01*
X149575735Y-84575735D02*
X150000000Y-84151470D01*
X150000000Y-83580000D02*
X150020000Y-83560000D01*
%TO.N,/STLINK_SWO*%
X148750000Y-82535000D02*
X148750000Y-84500000D01*
X148744462Y-82540538D02*
X148750000Y-82535000D01*
X162500000Y-80750000D02*
X161000000Y-82250000D01*
X161000000Y-82250000D02*
X161000000Y-83325000D01*
%TO.N,/LIS3DH_INT1*%
X160000000Y-82250000D02*
X160000000Y-83325000D01*
X160750000Y-81500000D02*
X160000000Y-82250000D01*
X147500000Y-88025000D02*
X147500000Y-86750000D01*
%TO.N,/LIS3DH_I2C1_SCL*%
X160000000Y-81000000D02*
X159500000Y-81500000D01*
D48*
X148004756Y-91738826D02*
X148004756Y-92495244D01*
D47*
X159500000Y-81500000D02*
X159500000Y-83325000D01*
X148004756Y-92495244D02*
X148000000Y-92500000D01*
X148004756Y-91738826D02*
X148004756Y-90479756D01*
X148004756Y-90479756D02*
X148000000Y-90475000D01*
%TO.N,/LIS3DH_I2C1_SDA*%
X148765000Y-89790000D02*
X148725000Y-89750000D01*
X159000000Y-81500000D02*
X158500000Y-81000000D01*
X151000000Y-89750000D02*
X149990000Y-89750000D01*
X149950000Y-89790000D02*
X148765000Y-89790000D01*
X159000000Y-83325000D02*
X159000000Y-81500000D01*
X149990000Y-89750000D02*
X149950000Y-89790000D01*
%TO.N,+BATT*%
D50*
X146750000Y-100542500D02*
X147250000Y-100542500D01*
D47*
X148355000Y-100457500D02*
X148355000Y-100542500D01*
D52*
X140000000Y-95816121D02*
X139566121Y-95816121D01*
D47*
X148406250Y-100593750D02*
X148406250Y-100406250D01*
D53*
X144000000Y-98750000D02*
X143520000Y-98270000D01*
D52*
X142000000Y-95816121D02*
X140444045Y-95816121D01*
D50*
X145780000Y-100542500D02*
X146750000Y-100542500D01*
D53*
X143520000Y-98270000D02*
X142750000Y-98270000D01*
D47*
X141370000Y-98270000D02*
X141100000Y-98000000D01*
X150250000Y-97250000D02*
X150250000Y-98562500D01*
X148562500Y-100750000D02*
X148355000Y-100542500D01*
D52*
X143244100Y-95816121D02*
X142000000Y-95816121D01*
X141927979Y-97000000D02*
X141219100Y-96291121D01*
D47*
X144000000Y-97750000D02*
X145000000Y-96750000D01*
D52*
X139566121Y-95816121D02*
X139000000Y-95250000D01*
X140299999Y-93799999D02*
X139719100Y-93219100D01*
D47*
X145000000Y-96750000D02*
X149750000Y-96750000D01*
D52*
X139700001Y-94399997D02*
X140299999Y-93799999D01*
X140299999Y-93799999D02*
X139700001Y-93799999D01*
D47*
X148562500Y-100750000D02*
X148406250Y-100593750D01*
D52*
X139700001Y-93799999D02*
X139700001Y-94500000D01*
X139700001Y-94500000D02*
X139700001Y-94399997D01*
D47*
X148406250Y-100406250D02*
X148355000Y-100457500D01*
D52*
X142066121Y-95816121D02*
X143250000Y-97000000D01*
X139700001Y-93799999D02*
X139000000Y-94500000D01*
X139719100Y-93219100D02*
X139000000Y-92500000D01*
X144262500Y-100262500D02*
X145500000Y-100262500D01*
X142000000Y-95816121D02*
X142066121Y-95816121D01*
D47*
X148562500Y-100250000D02*
X148406250Y-100406250D01*
D52*
X139000000Y-95250000D02*
X139000000Y-94500000D01*
D47*
X148355000Y-100542500D02*
X147957500Y-100542500D01*
D52*
X139700001Y-94500000D02*
X139700001Y-95516122D01*
X144000000Y-97750000D02*
X143250000Y-97000000D01*
D50*
X145500000Y-100262500D02*
X145780000Y-100542500D01*
D52*
X144000000Y-98750000D02*
X144000000Y-97750000D01*
D47*
X148562500Y-100250000D02*
X147542500Y-100250000D01*
D52*
X143250000Y-97000000D02*
X141927979Y-97000000D01*
D53*
X142750000Y-98270000D02*
X141370000Y-98270000D01*
D46*
X141100000Y-98500000D02*
X142520000Y-98500000D01*
D52*
X143244100Y-93799999D02*
X139700001Y-93799999D01*
X139000000Y-92500000D02*
X139000000Y-90950000D01*
X144000000Y-100000000D02*
X144262500Y-100262500D01*
X139700001Y-94500000D02*
X139700001Y-95072077D01*
D47*
X147542500Y-100250000D02*
X147250000Y-100542500D01*
D52*
X144000000Y-98750000D02*
X144000000Y-100000000D01*
X139700001Y-95516122D02*
X140000000Y-95816121D01*
D50*
X147250000Y-100542500D02*
X147957500Y-100542500D01*
D52*
X140444045Y-95816121D02*
X140000000Y-95816121D01*
D47*
X149750000Y-96750000D02*
X150250000Y-97250000D01*
D52*
X139000000Y-94500000D02*
X139000000Y-92500000D01*
X139700001Y-95072077D02*
X140444045Y-95816121D01*
%TO.N,Net-(J4-CC1)*%
D47*
X132617439Y-99000001D02*
X132629626Y-99012188D01*
D48*
X131034401Y-99000001D02*
X132617439Y-99000001D01*
%TO.N,VBUS*%
D44*
X135249936Y-97980064D02*
X135250000Y-97980000D01*
X129053910Y-108182012D02*
X129053910Y-106006304D01*
D47*
X129980000Y-101020000D02*
X131034401Y-101020000D01*
D54*
X129770000Y-101020000D02*
X129500000Y-100750000D01*
D46*
X136900000Y-98500000D02*
X136455000Y-98055000D01*
X135770000Y-98500000D02*
X135250000Y-97980000D01*
D47*
X129190464Y-108495340D02*
X129078774Y-108383650D01*
D53*
X133407446Y-97980064D02*
X135249936Y-97980064D01*
D47*
X129053910Y-106006304D02*
X129047606Y-106000000D01*
D46*
X129047606Y-101952394D02*
X129980000Y-101020000D01*
X136455000Y-98055000D02*
X136455000Y-97980000D01*
X136900000Y-98500000D02*
X135770000Y-98500000D01*
D44*
X129165600Y-110500000D02*
X129165600Y-108632208D01*
D54*
X131034284Y-97980064D02*
X133407446Y-97980064D01*
X129500000Y-100750000D02*
X129500000Y-98500000D01*
D46*
X129047606Y-106000000D02*
X129047606Y-101952394D01*
D44*
X133407446Y-97980064D02*
X133499999Y-97887511D01*
D54*
X131034401Y-101020000D02*
X129770000Y-101020000D01*
X129500000Y-98500000D02*
X130019936Y-97980064D01*
D53*
X135250000Y-97980000D02*
X136455000Y-97980000D01*
D54*
X130019936Y-97980064D02*
X131034284Y-97980064D01*
%TO.N,Net-(J4-CC2)*%
D48*
X131034401Y-99999999D02*
X132627437Y-99999999D01*
D47*
X132627437Y-99999999D02*
X132639626Y-100012188D01*
%TO.N,Net-(D2-K)*%
D46*
X130922606Y-106000000D02*
X131946246Y-106000000D01*
X131946246Y-106000000D02*
X132446246Y-106500000D01*
%TO.N,Net-(U2-STAT2)*%
D45*
X136000000Y-99500000D02*
X133466246Y-102033754D01*
X136900000Y-99500000D02*
X136000000Y-99500000D01*
X133466246Y-102033754D02*
X133466246Y-106500000D01*
%TO.N,Net-(U2-THERM)*%
D47*
X141100000Y-99000000D02*
X139500000Y-99000000D01*
X138260000Y-97760000D02*
X138260000Y-96250000D01*
X139500000Y-99000000D02*
X138260000Y-97760000D01*
%TO.N,Net-(U2-STAT1)*%
D45*
X138000000Y-99000000D02*
X136900000Y-99000000D01*
X138500000Y-99500000D02*
X138000000Y-99000000D01*
X134118853Y-108381147D02*
X135500000Y-107000000D01*
X133526274Y-108381147D02*
X134118853Y-108381147D01*
X138500000Y-101000000D02*
X138500000Y-99500000D01*
X135500000Y-107000000D02*
X135500000Y-104000000D01*
X135500000Y-104000000D02*
X138500000Y-101000000D01*
%TO.N,Net-(U2-PROG)*%
D47*
X141750000Y-100650000D02*
X141750000Y-101490000D01*
X141100000Y-100000000D02*
X141750000Y-100650000D01*
X141750000Y-101490000D02*
X141760000Y-101500000D01*
%TO.N,Net-(U2-~{PG})*%
D45*
X139500000Y-100000000D02*
X140000000Y-99500000D01*
X133271636Y-110496457D02*
X134592049Y-110496457D01*
X140000000Y-99500000D02*
X141100000Y-99500000D01*
X139500000Y-105588506D02*
X139500000Y-100000000D01*
X134592049Y-110496457D02*
X139500000Y-105588506D01*
%TO.N,Net-(BZ1-+)*%
D47*
X149250000Y-101437500D02*
X149250000Y-101500000D01*
D44*
X148750000Y-102000000D02*
X148750000Y-101750000D01*
D52*
X162000000Y-103500000D02*
X162000000Y-106250000D01*
D44*
X149062500Y-101437500D02*
X148750000Y-101750000D01*
D47*
X149250000Y-101437500D02*
X149062500Y-101437500D01*
D44*
X148500000Y-102250000D02*
X148750000Y-102000000D01*
%TO.N,Net-(BZ1--)*%
D45*
X149750000Y-102750000D02*
X149750000Y-101437500D01*
D52*
X149750000Y-104750000D02*
X149750000Y-105500000D01*
X149750000Y-105500000D02*
X150500000Y-106250000D01*
D46*
X149750000Y-103500000D02*
X149750000Y-102750000D01*
D52*
X150500000Y-106250000D02*
X152000000Y-106250000D01*
D44*
X149750000Y-104000000D02*
X149750000Y-103500000D01*
D50*
X149750000Y-104000000D02*
X149750000Y-104750000D01*
%TO.N,Net-(D3-K)*%
D47*
X132503771Y-108383650D02*
X132506274Y-108381147D01*
D46*
X130953774Y-108383650D02*
X132503771Y-108383650D01*
%TO.N,Net-(J1-Pad11)*%
D47*
X143353970Y-76896030D02*
X143353970Y-77338003D01*
X143750000Y-76500000D02*
X143353970Y-76896030D01*
X146000000Y-76500000D02*
X143750000Y-76500000D01*
X146210000Y-78465000D02*
X146210000Y-76710000D01*
X146210000Y-76710000D02*
X146000000Y-76500000D01*
%TO.N,Net-(D1-K)*%
D46*
X130740600Y-110500000D02*
X132248093Y-110500000D01*
D47*
X132248093Y-110500000D02*
X132251636Y-110496457D01*
%TD*%
M02*
