M48
; DRILL file KiCad 10.0.3-10.0.3~ubuntu25.10.1 date 2026-05-30T12:31:28
; FORMAT={-:-/ absolute / inch / decimal}
; #@! TF.CreationDate,2026-05-30T12:31:28-07:00
; #@! TF.GenerationSoftware,Kicad,Pcbnew,10.0.3-10.0.3~ubuntu25.10.1
; #@! TF.FileFunction,Plated,1,4,PTH
FMAT,2
INCH
; #@! TA.AperFunction,Plated,PTH,ViaDrill
T1C0.0118
; #@! TA.AperFunction,Plated,PTH,ComponentDrill
T2C0.0295
; #@! TA.AperFunction,Plated,PTH,ComponentDrill
T3C0.0394
%
G90
G05
T1
X5.2067Y-4.0256
X5.2848Y-3.898
X5.2854Y-3.7991
X5.2854Y-3.9375
X5.3248Y-3.7962
X5.3642Y-3.7894
X5.3839Y-3.9665
X5.3937Y-3.6713
X5.5413Y-4.0256
X5.5456Y-3.7329
X5.6201Y-3.9302
X5.6337Y-3.3861
X5.6347Y-3.5262
X5.6439Y-3.116
X5.6496Y-3.1594
X5.6993Y-3.4309
X5.7283Y-3.8386
X5.7628Y-3.6116
X5.7776Y-3.435
X5.7971Y-3.8966
X5.8071Y-3.4154
X5.8268Y-3.6417
X5.8348Y-3.6928
X5.8366Y-3.435
X5.8372Y-3.7301
X5.8465Y-3.8425
X5.8465Y-4.0256
X5.8563Y-3.0118
X5.8563Y-3.3268
X5.8642Y-3.5984
X5.8888Y-3.3298
X5.8917Y-3.8425
X5.8976Y-3.4941
X5.9035Y-3.6083
X5.9063Y-3.0126
X5.935Y-4.0354
X5.9449Y-3.5335
X5.9468Y-3.3878
X5.9564Y-3.0125
X5.9594Y-3.5933
X5.9744Y-3.8484
X5.9839Y-3.655
X6.0039Y-3.8878
X6.0039Y-3.9567
X6.0081Y-3.919
X6.0087Y-3.5693
X6.0234Y-3.6552
X6.0335Y-3.5335
X6.0768Y-3.3071
X6.1239Y-3.8612
X6.1492Y-3.7992
X6.1497Y-3.192
X6.1875Y-3.1927
X6.2402Y-3.189
X6.2643Y-3.8614
X6.2992Y-3.189
X6.3287Y-3.2087
X6.3699Y-3.8708
X6.378Y-4.0748
X6.3976Y-3.1791
X6.4466Y-3.8703
X6.4567Y-3.2185
X6.4862Y-3.7303
X6.5257Y-3.8701
X6.5845Y-3.8699
X6.5945Y-3.4166
X6.5945Y-3.3226
X6.5945Y-3.5039
X6.5963Y-3.5878
X6.5963Y-3.6736
X6.6142Y-3.4449
X6.624Y-3.3858
X6.624Y-3.4843
T2
X5.3937Y-3.5807
X5.4724Y-3.5807
T3
X5.9843Y-4.1831
X6.378Y-4.1831
M30
