%TF.GenerationSoftware,KiCad,Pcbnew,10.0.3-10.0.3~ubuntu25.10.1*%
%TF.CreationDate,2026-05-30T12:31:28-07:00*%
%TF.ProjectId,chugjug,63687567-6a75-4672-9e6b-696361645f70,rev?*%
%TF.SameCoordinates,Original*%
%TF.FileFunction,Legend,Top*%
%TF.FilePolarity,Positive*%
%FSLAX46Y46*%
G04 Gerber Fmt 4.6, Leading zero omitted, Abs format (unit mm)*
G04 Created by KiCad (PCBNEW 10.0.3-10.0.3~ubuntu25.10.1) date 2026-05-30 12:31:28*
%MOMM*%
%LPD*%
G01*
G04 APERTURE LIST*
G04 Aperture macros list*
%AMRoundRect*
0 Rectangle with rounded corners*
0 $1 Rounding radius*
0 $2 $3 $4 $5 $6 $7 $8 $9 X,Y pos of 4 corners*
0 Add a 4 corners polygon primitive as box body*
4,1,4,$2,$3,$4,$5,$6,$7,$8,$9,$2,$3,0*
0 Add four circle primitives for the rounded corners*
1,1,$1+$1,$2,$3*
1,1,$1+$1,$4,$5*
1,1,$1+$1,$6,$7*
1,1,$1+$1,$8,$9*
0 Add four rect primitives between the rounded corners*
20,1,$1+$1,$2,$3,$4,$5,0*
20,1,$1+$1,$4,$5,$6,$7,0*
20,1,$1+$1,$6,$7,$8,$9,0*
20,1,$1+$1,$8,$9,$2,$3,0*%
G04 Aperture macros list end*
%ADD10C,0.150000*%
%ADD11C,0.120000*%
%ADD12C,0.152400*%
%ADD13C,0.200000*%
%ADD14RoundRect,0.075000X-0.700000X-0.075000X0.700000X-0.075000X0.700000X0.075000X-0.700000X0.075000X0*%
%ADD15RoundRect,0.075000X-0.075000X-0.700000X0.075000X-0.700000X0.075000X0.700000X-0.075000X0.700000X0*%
%ADD16RoundRect,0.140000X-0.170000X0.140000X-0.170000X-0.140000X0.170000X-0.140000X0.170000X0.140000X0*%
%ADD17RoundRect,0.140000X0.140000X0.170000X-0.140000X0.170000X-0.140000X-0.170000X0.140000X-0.170000X0*%
%ADD18RoundRect,0.135000X0.135000X0.185000X-0.135000X0.185000X-0.135000X-0.185000X0.135000X-0.185000X0*%
%ADD19O,1.701800X1.092200*%
%ADD20R,1.193800X0.711200*%
%ADD21R,1.193800X0.762000*%
%ADD22R,1.193800X0.812800*%
%ADD23RoundRect,0.135000X-0.135000X-0.185000X0.135000X-0.185000X0.135000X0.185000X-0.135000X0.185000X0*%
%ADD24RoundRect,0.087500X-0.662500X-0.087500X0.662500X-0.087500X0.662500X0.087500X-0.662500X0.087500X0*%
%ADD25RoundRect,0.250000X0.475000X-0.250000X0.475000X0.250000X-0.475000X0.250000X-0.475000X-0.250000X0*%
%ADD26R,1.003300X0.508000*%
%ADD27RoundRect,0.062500X-0.062500X0.350000X-0.062500X-0.350000X0.062500X-0.350000X0.062500X0.350000X0*%
%ADD28RoundRect,0.062500X-0.350000X0.062500X-0.350000X-0.062500X0.350000X-0.062500X0.350000X0.062500X0*%
%ADD29R,1.230000X1.230000*%
%ADD30R,2.000000X2.000000*%
%ADD31C,2.000000*%
%ADD32RoundRect,0.150000X0.200000X-0.150000X0.200000X0.150000X-0.200000X0.150000X-0.200000X-0.150000X0*%
%ADD33RoundRect,0.135000X0.185000X-0.135000X0.185000X0.135000X-0.185000X0.135000X-0.185000X-0.135000X0*%
%ADD34RoundRect,0.243750X0.243750X0.456250X-0.243750X0.456250X-0.243750X-0.456250X0.243750X-0.456250X0*%
%ADD35RoundRect,0.250000X0.350000X0.625000X-0.350000X0.625000X-0.350000X-0.625000X0.350000X-0.625000X0*%
%ADD36O,1.200000X1.750000*%
%ADD37RoundRect,0.225000X-0.250000X0.225000X-0.250000X-0.225000X0.250000X-0.225000X0.250000X0.225000X0*%
%ADD38RoundRect,0.140000X0.170000X-0.140000X0.170000X0.140000X-0.170000X0.140000X-0.170000X-0.140000X0*%
%ADD39RoundRect,0.087500X0.087500X-0.187500X0.087500X0.187500X-0.087500X0.187500X-0.087500X-0.187500X0*%
%ADD40RoundRect,0.087500X0.187500X-0.087500X0.187500X0.087500X-0.187500X0.087500X-0.187500X-0.087500X0*%
%ADD41RoundRect,0.218750X-0.218750X-0.381250X0.218750X-0.381250X0.218750X0.381250X-0.218750X0.381250X0*%
%ADD42RoundRect,0.250000X-0.250000X-0.475000X0.250000X-0.475000X0.250000X0.475000X-0.250000X0.475000X0*%
%ADD43RoundRect,0.250000X0.250000X0.475000X-0.250000X0.475000X-0.250000X-0.475000X0.250000X-0.475000X0*%
%ADD44RoundRect,0.218750X0.218750X0.256250X-0.218750X0.256250X-0.218750X-0.256250X0.218750X-0.256250X0*%
%ADD45C,1.020000*%
%ADD46RoundRect,0.102000X0.370000X1.395000X-0.370000X1.395000X-0.370000X-1.395000X0.370000X-1.395000X0*%
%ADD47C,2.200000*%
%ADD48RoundRect,0.140000X-0.140000X-0.170000X0.140000X-0.170000X0.140000X0.170000X-0.140000X0.170000X0*%
G04 APERTURE END LIST*
D10*
X135108207Y-108774580D02*
X135060588Y-108822200D01*
X135060588Y-108822200D02*
X134917731Y-108869819D01*
X134917731Y-108869819D02*
X134822493Y-108869819D01*
X134822493Y-108869819D02*
X134679636Y-108822200D01*
X134679636Y-108822200D02*
X134584398Y-108726961D01*
X134584398Y-108726961D02*
X134536779Y-108631723D01*
X134536779Y-108631723D02*
X134489160Y-108441247D01*
X134489160Y-108441247D02*
X134489160Y-108298390D01*
X134489160Y-108298390D02*
X134536779Y-108107914D01*
X134536779Y-108107914D02*
X134584398Y-108012676D01*
X134584398Y-108012676D02*
X134679636Y-107917438D01*
X134679636Y-107917438D02*
X134822493Y-107869819D01*
X134822493Y-107869819D02*
X134917731Y-107869819D01*
X134917731Y-107869819D02*
X135060588Y-107917438D01*
X135060588Y-107917438D02*
X135108207Y-107965057D01*
X135536779Y-108869819D02*
X135536779Y-107869819D01*
X135536779Y-108346009D02*
X136108207Y-108346009D01*
X136108207Y-108869819D02*
X136108207Y-107869819D01*
X137108207Y-107917438D02*
X137012969Y-107869819D01*
X137012969Y-107869819D02*
X136870112Y-107869819D01*
X136870112Y-107869819D02*
X136727255Y-107917438D01*
X136727255Y-107917438D02*
X136632017Y-108012676D01*
X136632017Y-108012676D02*
X136584398Y-108107914D01*
X136584398Y-108107914D02*
X136536779Y-108298390D01*
X136536779Y-108298390D02*
X136536779Y-108441247D01*
X136536779Y-108441247D02*
X136584398Y-108631723D01*
X136584398Y-108631723D02*
X136632017Y-108726961D01*
X136632017Y-108726961D02*
X136727255Y-108822200D01*
X136727255Y-108822200D02*
X136870112Y-108869819D01*
X136870112Y-108869819D02*
X136965350Y-108869819D01*
X136965350Y-108869819D02*
X137108207Y-108822200D01*
X137108207Y-108822200D02*
X137155826Y-108774580D01*
X137155826Y-108774580D02*
X137155826Y-108441247D01*
X137155826Y-108441247D02*
X136965350Y-108441247D01*
X134970112Y-106146009D02*
X134636779Y-106146009D01*
X134636779Y-106669819D02*
X134636779Y-105669819D01*
X134636779Y-105669819D02*
X135112969Y-105669819D01*
X135493922Y-105669819D02*
X135493922Y-106479342D01*
X135493922Y-106479342D02*
X135541541Y-106574580D01*
X135541541Y-106574580D02*
X135589160Y-106622200D01*
X135589160Y-106622200D02*
X135684398Y-106669819D01*
X135684398Y-106669819D02*
X135874874Y-106669819D01*
X135874874Y-106669819D02*
X135970112Y-106622200D01*
X135970112Y-106622200D02*
X136017731Y-106574580D01*
X136017731Y-106574580D02*
X136065350Y-106479342D01*
X136065350Y-106479342D02*
X136065350Y-105669819D01*
X137017731Y-106669819D02*
X136541541Y-106669819D01*
X136541541Y-106669819D02*
X136541541Y-105669819D01*
X137827255Y-106669819D02*
X137351065Y-106669819D01*
X137351065Y-106669819D02*
X137351065Y-105669819D01*
X134636779Y-110969819D02*
X134636779Y-109969819D01*
X134636779Y-109969819D02*
X135017731Y-109969819D01*
X135017731Y-109969819D02*
X135112969Y-110017438D01*
X135112969Y-110017438D02*
X135160588Y-110065057D01*
X135160588Y-110065057D02*
X135208207Y-110160295D01*
X135208207Y-110160295D02*
X135208207Y-110303152D01*
X135208207Y-110303152D02*
X135160588Y-110398390D01*
X135160588Y-110398390D02*
X135112969Y-110446009D01*
X135112969Y-110446009D02*
X135017731Y-110493628D01*
X135017731Y-110493628D02*
X134636779Y-110493628D01*
X135541541Y-109969819D02*
X135779636Y-110969819D01*
X135779636Y-110969819D02*
X135970112Y-110255533D01*
X135970112Y-110255533D02*
X136160588Y-110969819D01*
X136160588Y-110969819D02*
X136398684Y-109969819D01*
X137351064Y-110969819D02*
X137017731Y-110493628D01*
X136779636Y-110969819D02*
X136779636Y-109969819D01*
X136779636Y-109969819D02*
X137160588Y-109969819D01*
X137160588Y-109969819D02*
X137255826Y-110017438D01*
X137255826Y-110017438D02*
X137303445Y-110065057D01*
X137303445Y-110065057D02*
X137351064Y-110160295D01*
X137351064Y-110160295D02*
X137351064Y-110303152D01*
X137351064Y-110303152D02*
X137303445Y-110398390D01*
X137303445Y-110398390D02*
X137255826Y-110446009D01*
X137255826Y-110446009D02*
X137160588Y-110493628D01*
X137160588Y-110493628D02*
X136779636Y-110493628D01*
X135265350Y-114462256D02*
X135170112Y-114509875D01*
X135170112Y-114509875D02*
X134979636Y-114509875D01*
X134979636Y-114509875D02*
X134884398Y-114462256D01*
X134884398Y-114462256D02*
X134836779Y-114414636D01*
X134836779Y-114414636D02*
X134789160Y-114319398D01*
X134789160Y-114319398D02*
X134789160Y-114033684D01*
X134789160Y-114033684D02*
X134836779Y-113938446D01*
X134836779Y-113938446D02*
X134884398Y-113890827D01*
X134884398Y-113890827D02*
X134979636Y-113843208D01*
X134979636Y-113843208D02*
X135170112Y-113843208D01*
X135170112Y-113843208D02*
X135265350Y-113890827D01*
X135693922Y-114509875D02*
X135693922Y-113509875D01*
X136122493Y-114509875D02*
X136122493Y-113986065D01*
X136122493Y-113986065D02*
X136074874Y-113890827D01*
X136074874Y-113890827D02*
X135979636Y-113843208D01*
X135979636Y-113843208D02*
X135836779Y-113843208D01*
X135836779Y-113843208D02*
X135741541Y-113890827D01*
X135741541Y-113890827D02*
X135693922Y-113938446D01*
X137027255Y-113843208D02*
X137027255Y-114509875D01*
X136598684Y-113843208D02*
X136598684Y-114367017D01*
X136598684Y-114367017D02*
X136646303Y-114462256D01*
X136646303Y-114462256D02*
X136741541Y-114509875D01*
X136741541Y-114509875D02*
X136884398Y-114509875D01*
X136884398Y-114509875D02*
X136979636Y-114462256D01*
X136979636Y-114462256D02*
X137027255Y-114414636D01*
X137932017Y-113843208D02*
X137932017Y-114652732D01*
X137932017Y-114652732D02*
X137884398Y-114747970D01*
X137884398Y-114747970D02*
X137836779Y-114795589D01*
X137836779Y-114795589D02*
X137741541Y-114843208D01*
X137741541Y-114843208D02*
X137598684Y-114843208D01*
X137598684Y-114843208D02*
X137503446Y-114795589D01*
X137932017Y-114462256D02*
X137836779Y-114509875D01*
X137836779Y-114509875D02*
X137646303Y-114509875D01*
X137646303Y-114509875D02*
X137551065Y-114462256D01*
X137551065Y-114462256D02*
X137503446Y-114414636D01*
X137503446Y-114414636D02*
X137455827Y-114319398D01*
X137455827Y-114319398D02*
X137455827Y-114033684D01*
X137455827Y-114033684D02*
X137503446Y-113938446D01*
X137503446Y-113938446D02*
X137551065Y-113890827D01*
X137551065Y-113890827D02*
X137646303Y-113843208D01*
X137646303Y-113843208D02*
X137836779Y-113843208D01*
X137836779Y-113843208D02*
X137932017Y-113890827D01*
X138408208Y-113843208D02*
X138408208Y-114700351D01*
X138408208Y-114700351D02*
X138360589Y-114795589D01*
X138360589Y-114795589D02*
X138265351Y-114843208D01*
X138265351Y-114843208D02*
X138217732Y-114843208D01*
X138408208Y-113509875D02*
X138360589Y-113557494D01*
X138360589Y-113557494D02*
X138408208Y-113605113D01*
X138408208Y-113605113D02*
X138455827Y-113557494D01*
X138455827Y-113557494D02*
X138408208Y-113509875D01*
X138408208Y-113509875D02*
X138408208Y-113605113D01*
X139312969Y-113843208D02*
X139312969Y-114509875D01*
X138884398Y-113843208D02*
X138884398Y-114367017D01*
X138884398Y-114367017D02*
X138932017Y-114462256D01*
X138932017Y-114462256D02*
X139027255Y-114509875D01*
X139027255Y-114509875D02*
X139170112Y-114509875D01*
X139170112Y-114509875D02*
X139265350Y-114462256D01*
X139265350Y-114462256D02*
X139312969Y-114414636D01*
X140217731Y-113843208D02*
X140217731Y-114652732D01*
X140217731Y-114652732D02*
X140170112Y-114747970D01*
X140170112Y-114747970D02*
X140122493Y-114795589D01*
X140122493Y-114795589D02*
X140027255Y-114843208D01*
X140027255Y-114843208D02*
X139884398Y-114843208D01*
X139884398Y-114843208D02*
X139789160Y-114795589D01*
X140217731Y-114462256D02*
X140122493Y-114509875D01*
X140122493Y-114509875D02*
X139932017Y-114509875D01*
X139932017Y-114509875D02*
X139836779Y-114462256D01*
X139836779Y-114462256D02*
X139789160Y-114414636D01*
X139789160Y-114414636D02*
X139741541Y-114319398D01*
X139741541Y-114319398D02*
X139741541Y-114033684D01*
X139741541Y-114033684D02*
X139789160Y-113938446D01*
X139789160Y-113938446D02*
X139836779Y-113890827D01*
X139836779Y-113890827D02*
X139932017Y-113843208D01*
X139932017Y-113843208D02*
X140122493Y-113843208D01*
X140122493Y-113843208D02*
X140217731Y-113890827D01*
X141455827Y-114509875D02*
X141455827Y-113843208D01*
X141455827Y-114033684D02*
X141503446Y-113938446D01*
X141503446Y-113938446D02*
X141551065Y-113890827D01*
X141551065Y-113890827D02*
X141646303Y-113843208D01*
X141646303Y-113843208D02*
X141741541Y-113843208D01*
X142455827Y-114462256D02*
X142360589Y-114509875D01*
X142360589Y-114509875D02*
X142170113Y-114509875D01*
X142170113Y-114509875D02*
X142074875Y-114462256D01*
X142074875Y-114462256D02*
X142027256Y-114367017D01*
X142027256Y-114367017D02*
X142027256Y-113986065D01*
X142027256Y-113986065D02*
X142074875Y-113890827D01*
X142074875Y-113890827D02*
X142170113Y-113843208D01*
X142170113Y-113843208D02*
X142360589Y-113843208D01*
X142360589Y-113843208D02*
X142455827Y-113890827D01*
X142455827Y-113890827D02*
X142503446Y-113986065D01*
X142503446Y-113986065D02*
X142503446Y-114081303D01*
X142503446Y-114081303D02*
X142027256Y-114176541D01*
X142836780Y-113843208D02*
X143074875Y-114509875D01*
X143074875Y-114509875D02*
X143312970Y-113843208D01*
X143884399Y-113509875D02*
X143979637Y-113509875D01*
X143979637Y-113509875D02*
X144074875Y-113557494D01*
X144074875Y-113557494D02*
X144122494Y-113605113D01*
X144122494Y-113605113D02*
X144170113Y-113700351D01*
X144170113Y-113700351D02*
X144217732Y-113890827D01*
X144217732Y-113890827D02*
X144217732Y-114128922D01*
X144217732Y-114128922D02*
X144170113Y-114319398D01*
X144170113Y-114319398D02*
X144122494Y-114414636D01*
X144122494Y-114414636D02*
X144074875Y-114462256D01*
X144074875Y-114462256D02*
X143979637Y-114509875D01*
X143979637Y-114509875D02*
X143884399Y-114509875D01*
X143884399Y-114509875D02*
X143789161Y-114462256D01*
X143789161Y-114462256D02*
X143741542Y-114414636D01*
X143741542Y-114414636D02*
X143693923Y-114319398D01*
X143693923Y-114319398D02*
X143646304Y-114128922D01*
X143646304Y-114128922D02*
X143646304Y-113890827D01*
X143646304Y-113890827D02*
X143693923Y-113700351D01*
X143693923Y-113700351D02*
X143741542Y-113605113D01*
X143741542Y-113605113D02*
X143789161Y-113557494D01*
X143789161Y-113557494D02*
X143884399Y-113509875D01*
X134836779Y-116119819D02*
X134836779Y-115119819D01*
X134836779Y-115500771D02*
X134932017Y-115453152D01*
X134932017Y-115453152D02*
X135122493Y-115453152D01*
X135122493Y-115453152D02*
X135217731Y-115500771D01*
X135217731Y-115500771D02*
X135265350Y-115548390D01*
X135265350Y-115548390D02*
X135312969Y-115643628D01*
X135312969Y-115643628D02*
X135312969Y-115929342D01*
X135312969Y-115929342D02*
X135265350Y-116024580D01*
X135265350Y-116024580D02*
X135217731Y-116072200D01*
X135217731Y-116072200D02*
X135122493Y-116119819D01*
X135122493Y-116119819D02*
X134932017Y-116119819D01*
X134932017Y-116119819D02*
X134836779Y-116072200D01*
X135646303Y-115453152D02*
X135884398Y-116119819D01*
X136122493Y-115453152D02*
X135884398Y-116119819D01*
X135884398Y-116119819D02*
X135789160Y-116357914D01*
X135789160Y-116357914D02*
X135741541Y-116405533D01*
X135741541Y-116405533D02*
X135646303Y-116453152D01*
X137408208Y-116119819D02*
X137312970Y-116072200D01*
X137312970Y-116072200D02*
X137265351Y-116024580D01*
X137265351Y-116024580D02*
X137217732Y-115929342D01*
X137217732Y-115929342D02*
X137217732Y-115643628D01*
X137217732Y-115643628D02*
X137265351Y-115548390D01*
X137265351Y-115548390D02*
X137312970Y-115500771D01*
X137312970Y-115500771D02*
X137408208Y-115453152D01*
X137408208Y-115453152D02*
X137551065Y-115453152D01*
X137551065Y-115453152D02*
X137646303Y-115500771D01*
X137646303Y-115500771D02*
X137693922Y-115548390D01*
X137693922Y-115548390D02*
X137741541Y-115643628D01*
X137741541Y-115643628D02*
X137741541Y-115929342D01*
X137741541Y-115929342D02*
X137693922Y-116024580D01*
X137693922Y-116024580D02*
X137646303Y-116072200D01*
X137646303Y-116072200D02*
X137551065Y-116119819D01*
X137551065Y-116119819D02*
X137408208Y-116119819D01*
X138074875Y-115453152D02*
X138265351Y-116119819D01*
X138265351Y-116119819D02*
X138455827Y-115643628D01*
X138455827Y-115643628D02*
X138646303Y-116119819D01*
X138646303Y-116119819D02*
X138836779Y-115453152D01*
X139598684Y-116072200D02*
X139503446Y-116119819D01*
X139503446Y-116119819D02*
X139312970Y-116119819D01*
X139312970Y-116119819D02*
X139217732Y-116072200D01*
X139217732Y-116072200D02*
X139170113Y-115976961D01*
X139170113Y-115976961D02*
X139170113Y-115596009D01*
X139170113Y-115596009D02*
X139217732Y-115500771D01*
X139217732Y-115500771D02*
X139312970Y-115453152D01*
X139312970Y-115453152D02*
X139503446Y-115453152D01*
X139503446Y-115453152D02*
X139598684Y-115500771D01*
X139598684Y-115500771D02*
X139646303Y-115596009D01*
X139646303Y-115596009D02*
X139646303Y-115691247D01*
X139646303Y-115691247D02*
X139170113Y-115786485D01*
X140074875Y-115453152D02*
X140074875Y-116119819D01*
X140074875Y-115548390D02*
X140122494Y-115500771D01*
X140122494Y-115500771D02*
X140217732Y-115453152D01*
X140217732Y-115453152D02*
X140360589Y-115453152D01*
X140360589Y-115453152D02*
X140455827Y-115500771D01*
X140455827Y-115500771D02*
X140503446Y-115596009D01*
X140503446Y-115596009D02*
X140503446Y-116119819D01*
X141741542Y-115453152D02*
X141741542Y-116453152D01*
X141741542Y-115500771D02*
X141836780Y-115453152D01*
X141836780Y-115453152D02*
X142027256Y-115453152D01*
X142027256Y-115453152D02*
X142122494Y-115500771D01*
X142122494Y-115500771D02*
X142170113Y-115548390D01*
X142170113Y-115548390D02*
X142217732Y-115643628D01*
X142217732Y-115643628D02*
X142217732Y-115929342D01*
X142217732Y-115929342D02*
X142170113Y-116024580D01*
X142170113Y-116024580D02*
X142122494Y-116072200D01*
X142122494Y-116072200D02*
X142027256Y-116119819D01*
X142027256Y-116119819D02*
X141836780Y-116119819D01*
X141836780Y-116119819D02*
X141741542Y-116072200D01*
X143074875Y-116119819D02*
X143074875Y-115596009D01*
X143074875Y-115596009D02*
X143027256Y-115500771D01*
X143027256Y-115500771D02*
X142932018Y-115453152D01*
X142932018Y-115453152D02*
X142741542Y-115453152D01*
X142741542Y-115453152D02*
X142646304Y-115500771D01*
X143074875Y-116072200D02*
X142979637Y-116119819D01*
X142979637Y-116119819D02*
X142741542Y-116119819D01*
X142741542Y-116119819D02*
X142646304Y-116072200D01*
X142646304Y-116072200D02*
X142598685Y-115976961D01*
X142598685Y-115976961D02*
X142598685Y-115881723D01*
X142598685Y-115881723D02*
X142646304Y-115786485D01*
X142646304Y-115786485D02*
X142741542Y-115738866D01*
X142741542Y-115738866D02*
X142979637Y-115738866D01*
X142979637Y-115738866D02*
X143074875Y-115691247D01*
X143551066Y-116119819D02*
X143551066Y-115453152D01*
X143551066Y-115643628D02*
X143598685Y-115548390D01*
X143598685Y-115548390D02*
X143646304Y-115500771D01*
X143646304Y-115500771D02*
X143741542Y-115453152D01*
X143741542Y-115453152D02*
X143836780Y-115453152D01*
X144170114Y-116119819D02*
X144170114Y-115119819D01*
X144265352Y-115738866D02*
X144551066Y-116119819D01*
X144551066Y-115453152D02*
X144170114Y-115834104D01*
X139057142Y-94059580D02*
X139009523Y-94107200D01*
X139009523Y-94107200D02*
X138866666Y-94154819D01*
X138866666Y-94154819D02*
X138771428Y-94154819D01*
X138771428Y-94154819D02*
X138628571Y-94107200D01*
X138628571Y-94107200D02*
X138533333Y-94011961D01*
X138533333Y-94011961D02*
X138485714Y-93916723D01*
X138485714Y-93916723D02*
X138438095Y-93726247D01*
X138438095Y-93726247D02*
X138438095Y-93583390D01*
X138438095Y-93583390D02*
X138485714Y-93392914D01*
X138485714Y-93392914D02*
X138533333Y-93297676D01*
X138533333Y-93297676D02*
X138628571Y-93202438D01*
X138628571Y-93202438D02*
X138771428Y-93154819D01*
X138771428Y-93154819D02*
X138866666Y-93154819D01*
X138866666Y-93154819D02*
X139009523Y-93202438D01*
X139009523Y-93202438D02*
X139057142Y-93250057D01*
X140009523Y-94154819D02*
X139438095Y-94154819D01*
X139723809Y-94154819D02*
X139723809Y-93154819D01*
X139723809Y-93154819D02*
X139628571Y-93297676D01*
X139628571Y-93297676D02*
X139533333Y-93392914D01*
X139533333Y-93392914D02*
X139438095Y-93440533D01*
X140866666Y-93488152D02*
X140866666Y-94154819D01*
X140628571Y-93107200D02*
X140390476Y-93821485D01*
X140390476Y-93821485D02*
X141009523Y-93821485D01*
X156107142Y-80859580D02*
X156059523Y-80907200D01*
X156059523Y-80907200D02*
X155916666Y-80954819D01*
X155916666Y-80954819D02*
X155821428Y-80954819D01*
X155821428Y-80954819D02*
X155678571Y-80907200D01*
X155678571Y-80907200D02*
X155583333Y-80811961D01*
X155583333Y-80811961D02*
X155535714Y-80716723D01*
X155535714Y-80716723D02*
X155488095Y-80526247D01*
X155488095Y-80526247D02*
X155488095Y-80383390D01*
X155488095Y-80383390D02*
X155535714Y-80192914D01*
X155535714Y-80192914D02*
X155583333Y-80097676D01*
X155583333Y-80097676D02*
X155678571Y-80002438D01*
X155678571Y-80002438D02*
X155821428Y-79954819D01*
X155821428Y-79954819D02*
X155916666Y-79954819D01*
X155916666Y-79954819D02*
X156059523Y-80002438D01*
X156059523Y-80002438D02*
X156107142Y-80050057D01*
X157059523Y-80954819D02*
X156488095Y-80954819D01*
X156773809Y-80954819D02*
X156773809Y-79954819D01*
X156773809Y-79954819D02*
X156678571Y-80097676D01*
X156678571Y-80097676D02*
X156583333Y-80192914D01*
X156583333Y-80192914D02*
X156488095Y-80240533D01*
X158011904Y-80954819D02*
X157440476Y-80954819D01*
X157726190Y-80954819D02*
X157726190Y-79954819D01*
X157726190Y-79954819D02*
X157630952Y-80097676D01*
X157630952Y-80097676D02*
X157535714Y-80192914D01*
X157535714Y-80192914D02*
X157440476Y-80240533D01*
X149233333Y-93154819D02*
X148900000Y-92678628D01*
X148661905Y-93154819D02*
X148661905Y-92154819D01*
X148661905Y-92154819D02*
X149042857Y-92154819D01*
X149042857Y-92154819D02*
X149138095Y-92202438D01*
X149138095Y-92202438D02*
X149185714Y-92250057D01*
X149185714Y-92250057D02*
X149233333Y-92345295D01*
X149233333Y-92345295D02*
X149233333Y-92488152D01*
X149233333Y-92488152D02*
X149185714Y-92583390D01*
X149185714Y-92583390D02*
X149138095Y-92631009D01*
X149138095Y-92631009D02*
X149042857Y-92678628D01*
X149042857Y-92678628D02*
X148661905Y-92678628D01*
X150185714Y-93154819D02*
X149614286Y-93154819D01*
X149900000Y-93154819D02*
X149900000Y-92154819D01*
X149900000Y-92154819D02*
X149804762Y-92297676D01*
X149804762Y-92297676D02*
X149709524Y-92392914D01*
X149709524Y-92392914D02*
X149614286Y-92440533D01*
X142883333Y-106654819D02*
X142550000Y-106178628D01*
X142311905Y-106654819D02*
X142311905Y-105654819D01*
X142311905Y-105654819D02*
X142692857Y-105654819D01*
X142692857Y-105654819D02*
X142788095Y-105702438D01*
X142788095Y-105702438D02*
X142835714Y-105750057D01*
X142835714Y-105750057D02*
X142883333Y-105845295D01*
X142883333Y-105845295D02*
X142883333Y-105988152D01*
X142883333Y-105988152D02*
X142835714Y-106083390D01*
X142835714Y-106083390D02*
X142788095Y-106131009D01*
X142788095Y-106131009D02*
X142692857Y-106178628D01*
X142692857Y-106178628D02*
X142311905Y-106178628D01*
X143454762Y-106083390D02*
X143359524Y-106035771D01*
X143359524Y-106035771D02*
X143311905Y-105988152D01*
X143311905Y-105988152D02*
X143264286Y-105892914D01*
X143264286Y-105892914D02*
X143264286Y-105845295D01*
X143264286Y-105845295D02*
X143311905Y-105750057D01*
X143311905Y-105750057D02*
X143359524Y-105702438D01*
X143359524Y-105702438D02*
X143454762Y-105654819D01*
X143454762Y-105654819D02*
X143645238Y-105654819D01*
X143645238Y-105654819D02*
X143740476Y-105702438D01*
X143740476Y-105702438D02*
X143788095Y-105750057D01*
X143788095Y-105750057D02*
X143835714Y-105845295D01*
X143835714Y-105845295D02*
X143835714Y-105892914D01*
X143835714Y-105892914D02*
X143788095Y-105988152D01*
X143788095Y-105988152D02*
X143740476Y-106035771D01*
X143740476Y-106035771D02*
X143645238Y-106083390D01*
X143645238Y-106083390D02*
X143454762Y-106083390D01*
X143454762Y-106083390D02*
X143359524Y-106131009D01*
X143359524Y-106131009D02*
X143311905Y-106178628D01*
X143311905Y-106178628D02*
X143264286Y-106273866D01*
X143264286Y-106273866D02*
X143264286Y-106464342D01*
X143264286Y-106464342D02*
X143311905Y-106559580D01*
X143311905Y-106559580D02*
X143359524Y-106607200D01*
X143359524Y-106607200D02*
X143454762Y-106654819D01*
X143454762Y-106654819D02*
X143645238Y-106654819D01*
X143645238Y-106654819D02*
X143740476Y-106607200D01*
X143740476Y-106607200D02*
X143788095Y-106559580D01*
X143788095Y-106559580D02*
X143835714Y-106464342D01*
X143835714Y-106464342D02*
X143835714Y-106273866D01*
X143835714Y-106273866D02*
X143788095Y-106178628D01*
X143788095Y-106178628D02*
X143740476Y-106131009D01*
X143740476Y-106131009D02*
X143645238Y-106083390D01*
X137433333Y-95354819D02*
X137100000Y-94878628D01*
X136861905Y-95354819D02*
X136861905Y-94354819D01*
X136861905Y-94354819D02*
X137242857Y-94354819D01*
X137242857Y-94354819D02*
X137338095Y-94402438D01*
X137338095Y-94402438D02*
X137385714Y-94450057D01*
X137385714Y-94450057D02*
X137433333Y-94545295D01*
X137433333Y-94545295D02*
X137433333Y-94688152D01*
X137433333Y-94688152D02*
X137385714Y-94783390D01*
X137385714Y-94783390D02*
X137338095Y-94831009D01*
X137338095Y-94831009D02*
X137242857Y-94878628D01*
X137242857Y-94878628D02*
X136861905Y-94878628D01*
X138338095Y-94354819D02*
X137861905Y-94354819D01*
X137861905Y-94354819D02*
X137814286Y-94831009D01*
X137814286Y-94831009D02*
X137861905Y-94783390D01*
X137861905Y-94783390D02*
X137957143Y-94735771D01*
X137957143Y-94735771D02*
X138195238Y-94735771D01*
X138195238Y-94735771D02*
X138290476Y-94783390D01*
X138290476Y-94783390D02*
X138338095Y-94831009D01*
X138338095Y-94831009D02*
X138385714Y-94926247D01*
X138385714Y-94926247D02*
X138385714Y-95164342D01*
X138385714Y-95164342D02*
X138338095Y-95259580D01*
X138338095Y-95259580D02*
X138290476Y-95307200D01*
X138290476Y-95307200D02*
X138195238Y-95354819D01*
X138195238Y-95354819D02*
X137957143Y-95354819D01*
X137957143Y-95354819D02*
X137861905Y-95307200D01*
X137861905Y-95307200D02*
X137814286Y-95259580D01*
X168957142Y-92559580D02*
X168909523Y-92607200D01*
X168909523Y-92607200D02*
X168766666Y-92654819D01*
X168766666Y-92654819D02*
X168671428Y-92654819D01*
X168671428Y-92654819D02*
X168528571Y-92607200D01*
X168528571Y-92607200D02*
X168433333Y-92511961D01*
X168433333Y-92511961D02*
X168385714Y-92416723D01*
X168385714Y-92416723D02*
X168338095Y-92226247D01*
X168338095Y-92226247D02*
X168338095Y-92083390D01*
X168338095Y-92083390D02*
X168385714Y-91892914D01*
X168385714Y-91892914D02*
X168433333Y-91797676D01*
X168433333Y-91797676D02*
X168528571Y-91702438D01*
X168528571Y-91702438D02*
X168671428Y-91654819D01*
X168671428Y-91654819D02*
X168766666Y-91654819D01*
X168766666Y-91654819D02*
X168909523Y-91702438D01*
X168909523Y-91702438D02*
X168957142Y-91750057D01*
X169909523Y-92654819D02*
X169338095Y-92654819D01*
X169623809Y-92654819D02*
X169623809Y-91654819D01*
X169623809Y-91654819D02*
X169528571Y-91797676D01*
X169528571Y-91797676D02*
X169433333Y-91892914D01*
X169433333Y-91892914D02*
X169338095Y-91940533D01*
X170528571Y-91654819D02*
X170623809Y-91654819D01*
X170623809Y-91654819D02*
X170719047Y-91702438D01*
X170719047Y-91702438D02*
X170766666Y-91750057D01*
X170766666Y-91750057D02*
X170814285Y-91845295D01*
X170814285Y-91845295D02*
X170861904Y-92035771D01*
X170861904Y-92035771D02*
X170861904Y-92273866D01*
X170861904Y-92273866D02*
X170814285Y-92464342D01*
X170814285Y-92464342D02*
X170766666Y-92559580D01*
X170766666Y-92559580D02*
X170719047Y-92607200D01*
X170719047Y-92607200D02*
X170623809Y-92654819D01*
X170623809Y-92654819D02*
X170528571Y-92654819D01*
X170528571Y-92654819D02*
X170433333Y-92607200D01*
X170433333Y-92607200D02*
X170385714Y-92559580D01*
X170385714Y-92559580D02*
X170338095Y-92464342D01*
X170338095Y-92464342D02*
X170290476Y-92273866D01*
X170290476Y-92273866D02*
X170290476Y-92035771D01*
X170290476Y-92035771D02*
X170338095Y-91845295D01*
X170338095Y-91845295D02*
X170385714Y-91750057D01*
X170385714Y-91750057D02*
X170433333Y-91702438D01*
X170433333Y-91702438D02*
X170528571Y-91654819D01*
X139238095Y-95954819D02*
X139238095Y-96764342D01*
X139238095Y-96764342D02*
X139285714Y-96859580D01*
X139285714Y-96859580D02*
X139333333Y-96907200D01*
X139333333Y-96907200D02*
X139428571Y-96954819D01*
X139428571Y-96954819D02*
X139619047Y-96954819D01*
X139619047Y-96954819D02*
X139714285Y-96907200D01*
X139714285Y-96907200D02*
X139761904Y-96859580D01*
X139761904Y-96859580D02*
X139809523Y-96764342D01*
X139809523Y-96764342D02*
X139809523Y-95954819D01*
X140238095Y-96050057D02*
X140285714Y-96002438D01*
X140285714Y-96002438D02*
X140380952Y-95954819D01*
X140380952Y-95954819D02*
X140619047Y-95954819D01*
X140619047Y-95954819D02*
X140714285Y-96002438D01*
X140714285Y-96002438D02*
X140761904Y-96050057D01*
X140761904Y-96050057D02*
X140809523Y-96145295D01*
X140809523Y-96145295D02*
X140809523Y-96240533D01*
X140809523Y-96240533D02*
X140761904Y-96383390D01*
X140761904Y-96383390D02*
X140190476Y-96954819D01*
X140190476Y-96954819D02*
X140809523Y-96954819D01*
X143459580Y-84666666D02*
X143507200Y-84714285D01*
X143507200Y-84714285D02*
X143554819Y-84857142D01*
X143554819Y-84857142D02*
X143554819Y-84952380D01*
X143554819Y-84952380D02*
X143507200Y-85095237D01*
X143507200Y-85095237D02*
X143411961Y-85190475D01*
X143411961Y-85190475D02*
X143316723Y-85238094D01*
X143316723Y-85238094D02*
X143126247Y-85285713D01*
X143126247Y-85285713D02*
X142983390Y-85285713D01*
X142983390Y-85285713D02*
X142792914Y-85238094D01*
X142792914Y-85238094D02*
X142697676Y-85190475D01*
X142697676Y-85190475D02*
X142602438Y-85095237D01*
X142602438Y-85095237D02*
X142554819Y-84952380D01*
X142554819Y-84952380D02*
X142554819Y-84857142D01*
X142554819Y-84857142D02*
X142602438Y-84714285D01*
X142602438Y-84714285D02*
X142650057Y-84666666D01*
X143554819Y-83714285D02*
X143554819Y-84285713D01*
X143554819Y-83999999D02*
X142554819Y-83999999D01*
X142554819Y-83999999D02*
X142697676Y-84095237D01*
X142697676Y-84095237D02*
X142792914Y-84190475D01*
X142792914Y-84190475D02*
X142840533Y-84285713D01*
X143860145Y-91654819D02*
X143860145Y-92464342D01*
X143860145Y-92464342D02*
X143907764Y-92559580D01*
X143907764Y-92559580D02*
X143955383Y-92607200D01*
X143955383Y-92607200D02*
X144050621Y-92654819D01*
X144050621Y-92654819D02*
X144241097Y-92654819D01*
X144241097Y-92654819D02*
X144336335Y-92607200D01*
X144336335Y-92607200D02*
X144383954Y-92559580D01*
X144383954Y-92559580D02*
X144431573Y-92464342D01*
X144431573Y-92464342D02*
X144431573Y-91654819D01*
X145383954Y-91654819D02*
X144907764Y-91654819D01*
X144907764Y-91654819D02*
X144860145Y-92131009D01*
X144860145Y-92131009D02*
X144907764Y-92083390D01*
X144907764Y-92083390D02*
X145003002Y-92035771D01*
X145003002Y-92035771D02*
X145241097Y-92035771D01*
X145241097Y-92035771D02*
X145336335Y-92083390D01*
X145336335Y-92083390D02*
X145383954Y-92131009D01*
X145383954Y-92131009D02*
X145431573Y-92226247D01*
X145431573Y-92226247D02*
X145431573Y-92464342D01*
X145431573Y-92464342D02*
X145383954Y-92559580D01*
X145383954Y-92559580D02*
X145336335Y-92607200D01*
X145336335Y-92607200D02*
X145241097Y-92654819D01*
X145241097Y-92654819D02*
X145003002Y-92654819D01*
X145003002Y-92654819D02*
X144907764Y-92607200D01*
X144907764Y-92607200D02*
X144860145Y-92559580D01*
X149300595Y-102204819D02*
X149300595Y-103014342D01*
X149300595Y-103014342D02*
X149348214Y-103109580D01*
X149348214Y-103109580D02*
X149395833Y-103157200D01*
X149395833Y-103157200D02*
X149491071Y-103204819D01*
X149491071Y-103204819D02*
X149681547Y-103204819D01*
X149681547Y-103204819D02*
X149776785Y-103157200D01*
X149776785Y-103157200D02*
X149824404Y-103109580D01*
X149824404Y-103109580D02*
X149872023Y-103014342D01*
X149872023Y-103014342D02*
X149872023Y-102204819D01*
X150776785Y-102538152D02*
X150776785Y-103204819D01*
X150538690Y-102157200D02*
X150300595Y-102871485D01*
X150300595Y-102871485D02*
X150919642Y-102871485D01*
X156119047Y-115531009D02*
X156261904Y-115578628D01*
X156261904Y-115578628D02*
X156309523Y-115626247D01*
X156309523Y-115626247D02*
X156357142Y-115721485D01*
X156357142Y-115721485D02*
X156357142Y-115864342D01*
X156357142Y-115864342D02*
X156309523Y-115959580D01*
X156309523Y-115959580D02*
X156261904Y-116007200D01*
X156261904Y-116007200D02*
X156166666Y-116054819D01*
X156166666Y-116054819D02*
X155785714Y-116054819D01*
X155785714Y-116054819D02*
X155785714Y-115054819D01*
X155785714Y-115054819D02*
X156119047Y-115054819D01*
X156119047Y-115054819D02*
X156214285Y-115102438D01*
X156214285Y-115102438D02*
X156261904Y-115150057D01*
X156261904Y-115150057D02*
X156309523Y-115245295D01*
X156309523Y-115245295D02*
X156309523Y-115340533D01*
X156309523Y-115340533D02*
X156261904Y-115435771D01*
X156261904Y-115435771D02*
X156214285Y-115483390D01*
X156214285Y-115483390D02*
X156119047Y-115531009D01*
X156119047Y-115531009D02*
X155785714Y-115531009D01*
X156690476Y-115054819D02*
X157357142Y-115054819D01*
X157357142Y-115054819D02*
X156690476Y-116054819D01*
X156690476Y-116054819D02*
X157357142Y-116054819D01*
X158261904Y-116054819D02*
X157690476Y-116054819D01*
X157976190Y-116054819D02*
X157976190Y-115054819D01*
X157976190Y-115054819D02*
X157880952Y-115197676D01*
X157880952Y-115197676D02*
X157785714Y-115292914D01*
X157785714Y-115292914D02*
X157690476Y-115340533D01*
X161629048Y-108323866D02*
X162390953Y-108323866D01*
X162010000Y-108704819D02*
X162010000Y-107942914D01*
X133954819Y-95638094D02*
X132954819Y-95638094D01*
X132954819Y-95638094D02*
X132954819Y-95399999D01*
X132954819Y-95399999D02*
X133002438Y-95257142D01*
X133002438Y-95257142D02*
X133097676Y-95161904D01*
X133097676Y-95161904D02*
X133192914Y-95114285D01*
X133192914Y-95114285D02*
X133383390Y-95066666D01*
X133383390Y-95066666D02*
X133526247Y-95066666D01*
X133526247Y-95066666D02*
X133716723Y-95114285D01*
X133716723Y-95114285D02*
X133811961Y-95161904D01*
X133811961Y-95161904D02*
X133907200Y-95257142D01*
X133907200Y-95257142D02*
X133954819Y-95399999D01*
X133954819Y-95399999D02*
X133954819Y-95638094D01*
X133288152Y-94209523D02*
X133954819Y-94209523D01*
X132907200Y-94447618D02*
X133621485Y-94685713D01*
X133621485Y-94685713D02*
X133621485Y-94066666D01*
X151254819Y-88466666D02*
X150778628Y-88799999D01*
X151254819Y-89038094D02*
X150254819Y-89038094D01*
X150254819Y-89038094D02*
X150254819Y-88657142D01*
X150254819Y-88657142D02*
X150302438Y-88561904D01*
X150302438Y-88561904D02*
X150350057Y-88514285D01*
X150350057Y-88514285D02*
X150445295Y-88466666D01*
X150445295Y-88466666D02*
X150588152Y-88466666D01*
X150588152Y-88466666D02*
X150683390Y-88514285D01*
X150683390Y-88514285D02*
X150731009Y-88561904D01*
X150731009Y-88561904D02*
X150778628Y-88657142D01*
X150778628Y-88657142D02*
X150778628Y-89038094D01*
X150350057Y-88085713D02*
X150302438Y-88038094D01*
X150302438Y-88038094D02*
X150254819Y-87942856D01*
X150254819Y-87942856D02*
X150254819Y-87704761D01*
X150254819Y-87704761D02*
X150302438Y-87609523D01*
X150302438Y-87609523D02*
X150350057Y-87561904D01*
X150350057Y-87561904D02*
X150445295Y-87514285D01*
X150445295Y-87514285D02*
X150540533Y-87514285D01*
X150540533Y-87514285D02*
X150683390Y-87561904D01*
X150683390Y-87561904D02*
X151254819Y-88133332D01*
X151254819Y-88133332D02*
X151254819Y-87514285D01*
X140061905Y-106654819D02*
X140061905Y-105654819D01*
X140061905Y-105654819D02*
X140300000Y-105654819D01*
X140300000Y-105654819D02*
X140442857Y-105702438D01*
X140442857Y-105702438D02*
X140538095Y-105797676D01*
X140538095Y-105797676D02*
X140585714Y-105892914D01*
X140585714Y-105892914D02*
X140633333Y-106083390D01*
X140633333Y-106083390D02*
X140633333Y-106226247D01*
X140633333Y-106226247D02*
X140585714Y-106416723D01*
X140585714Y-106416723D02*
X140538095Y-106511961D01*
X140538095Y-106511961D02*
X140442857Y-106607200D01*
X140442857Y-106607200D02*
X140300000Y-106654819D01*
X140300000Y-106654819D02*
X140061905Y-106654819D01*
X141014286Y-105750057D02*
X141061905Y-105702438D01*
X141061905Y-105702438D02*
X141157143Y-105654819D01*
X141157143Y-105654819D02*
X141395238Y-105654819D01*
X141395238Y-105654819D02*
X141490476Y-105702438D01*
X141490476Y-105702438D02*
X141538095Y-105750057D01*
X141538095Y-105750057D02*
X141585714Y-105845295D01*
X141585714Y-105845295D02*
X141585714Y-105940533D01*
X141585714Y-105940533D02*
X141538095Y-106083390D01*
X141538095Y-106083390D02*
X140966667Y-106654819D01*
X140966667Y-106654819D02*
X141585714Y-106654819D01*
X142908197Y-108856457D02*
X142574864Y-108380266D01*
X142336769Y-108856457D02*
X142336769Y-107856457D01*
X142336769Y-107856457D02*
X142717721Y-107856457D01*
X142717721Y-107856457D02*
X142812959Y-107904076D01*
X142812959Y-107904076D02*
X142860578Y-107951695D01*
X142860578Y-107951695D02*
X142908197Y-108046933D01*
X142908197Y-108046933D02*
X142908197Y-108189790D01*
X142908197Y-108189790D02*
X142860578Y-108285028D01*
X142860578Y-108285028D02*
X142812959Y-108332647D01*
X142812959Y-108332647D02*
X142717721Y-108380266D01*
X142717721Y-108380266D02*
X142336769Y-108380266D01*
X143384388Y-108856457D02*
X143574864Y-108856457D01*
X143574864Y-108856457D02*
X143670102Y-108808838D01*
X143670102Y-108808838D02*
X143717721Y-108761218D01*
X143717721Y-108761218D02*
X143812959Y-108618361D01*
X143812959Y-108618361D02*
X143860578Y-108427885D01*
X143860578Y-108427885D02*
X143860578Y-108046933D01*
X143860578Y-108046933D02*
X143812959Y-107951695D01*
X143812959Y-107951695D02*
X143765340Y-107904076D01*
X143765340Y-107904076D02*
X143670102Y-107856457D01*
X143670102Y-107856457D02*
X143479626Y-107856457D01*
X143479626Y-107856457D02*
X143384388Y-107904076D01*
X143384388Y-107904076D02*
X143336769Y-107951695D01*
X143336769Y-107951695D02*
X143289150Y-108046933D01*
X143289150Y-108046933D02*
X143289150Y-108285028D01*
X143289150Y-108285028D02*
X143336769Y-108380266D01*
X143336769Y-108380266D02*
X143384388Y-108427885D01*
X143384388Y-108427885D02*
X143479626Y-108475504D01*
X143479626Y-108475504D02*
X143670102Y-108475504D01*
X143670102Y-108475504D02*
X143765340Y-108427885D01*
X143765340Y-108427885D02*
X143812959Y-108380266D01*
X143812959Y-108380266D02*
X143860578Y-108285028D01*
X142554819Y-78416666D02*
X142078628Y-78749999D01*
X142554819Y-78988094D02*
X141554819Y-78988094D01*
X141554819Y-78988094D02*
X141554819Y-78607142D01*
X141554819Y-78607142D02*
X141602438Y-78511904D01*
X141602438Y-78511904D02*
X141650057Y-78464285D01*
X141650057Y-78464285D02*
X141745295Y-78416666D01*
X141745295Y-78416666D02*
X141888152Y-78416666D01*
X141888152Y-78416666D02*
X141983390Y-78464285D01*
X141983390Y-78464285D02*
X142031009Y-78511904D01*
X142031009Y-78511904D02*
X142078628Y-78607142D01*
X142078628Y-78607142D02*
X142078628Y-78988094D01*
X141554819Y-78083332D02*
X141554819Y-77464285D01*
X141554819Y-77464285D02*
X141935771Y-77797618D01*
X141935771Y-77797618D02*
X141935771Y-77654761D01*
X141935771Y-77654761D02*
X141983390Y-77559523D01*
X141983390Y-77559523D02*
X142031009Y-77511904D01*
X142031009Y-77511904D02*
X142126247Y-77464285D01*
X142126247Y-77464285D02*
X142364342Y-77464285D01*
X142364342Y-77464285D02*
X142459580Y-77511904D01*
X142459580Y-77511904D02*
X142507200Y-77559523D01*
X142507200Y-77559523D02*
X142554819Y-77654761D01*
X142554819Y-77654761D02*
X142554819Y-77940475D01*
X142554819Y-77940475D02*
X142507200Y-78035713D01*
X142507200Y-78035713D02*
X142459580Y-78083332D01*
X133633333Y-101804819D02*
X133300000Y-101328628D01*
X133061905Y-101804819D02*
X133061905Y-100804819D01*
X133061905Y-100804819D02*
X133442857Y-100804819D01*
X133442857Y-100804819D02*
X133538095Y-100852438D01*
X133538095Y-100852438D02*
X133585714Y-100900057D01*
X133585714Y-100900057D02*
X133633333Y-100995295D01*
X133633333Y-100995295D02*
X133633333Y-101138152D01*
X133633333Y-101138152D02*
X133585714Y-101233390D01*
X133585714Y-101233390D02*
X133538095Y-101281009D01*
X133538095Y-101281009D02*
X133442857Y-101328628D01*
X133442857Y-101328628D02*
X133061905Y-101328628D01*
X134490476Y-100804819D02*
X134300000Y-100804819D01*
X134300000Y-100804819D02*
X134204762Y-100852438D01*
X134204762Y-100852438D02*
X134157143Y-100900057D01*
X134157143Y-100900057D02*
X134061905Y-101042914D01*
X134061905Y-101042914D02*
X134014286Y-101233390D01*
X134014286Y-101233390D02*
X134014286Y-101614342D01*
X134014286Y-101614342D02*
X134061905Y-101709580D01*
X134061905Y-101709580D02*
X134109524Y-101757200D01*
X134109524Y-101757200D02*
X134204762Y-101804819D01*
X134204762Y-101804819D02*
X134395238Y-101804819D01*
X134395238Y-101804819D02*
X134490476Y-101757200D01*
X134490476Y-101757200D02*
X134538095Y-101709580D01*
X134538095Y-101709580D02*
X134585714Y-101614342D01*
X134585714Y-101614342D02*
X134585714Y-101376247D01*
X134585714Y-101376247D02*
X134538095Y-101281009D01*
X134538095Y-101281009D02*
X134490476Y-101233390D01*
X134490476Y-101233390D02*
X134395238Y-101185771D01*
X134395238Y-101185771D02*
X134204762Y-101185771D01*
X134204762Y-101185771D02*
X134109524Y-101233390D01*
X134109524Y-101233390D02*
X134061905Y-101281009D01*
X134061905Y-101281009D02*
X134014286Y-101376247D01*
X140086769Y-108856457D02*
X140086769Y-107856457D01*
X140086769Y-107856457D02*
X140324864Y-107856457D01*
X140324864Y-107856457D02*
X140467721Y-107904076D01*
X140467721Y-107904076D02*
X140562959Y-107999314D01*
X140562959Y-107999314D02*
X140610578Y-108094552D01*
X140610578Y-108094552D02*
X140658197Y-108285028D01*
X140658197Y-108285028D02*
X140658197Y-108427885D01*
X140658197Y-108427885D02*
X140610578Y-108618361D01*
X140610578Y-108618361D02*
X140562959Y-108713599D01*
X140562959Y-108713599D02*
X140467721Y-108808838D01*
X140467721Y-108808838D02*
X140324864Y-108856457D01*
X140324864Y-108856457D02*
X140086769Y-108856457D01*
X140991531Y-107856457D02*
X141610578Y-107856457D01*
X141610578Y-107856457D02*
X141277245Y-108237409D01*
X141277245Y-108237409D02*
X141420102Y-108237409D01*
X141420102Y-108237409D02*
X141515340Y-108285028D01*
X141515340Y-108285028D02*
X141562959Y-108332647D01*
X141562959Y-108332647D02*
X141610578Y-108427885D01*
X141610578Y-108427885D02*
X141610578Y-108665980D01*
X141610578Y-108665980D02*
X141562959Y-108761218D01*
X141562959Y-108761218D02*
X141515340Y-108808838D01*
X141515340Y-108808838D02*
X141420102Y-108856457D01*
X141420102Y-108856457D02*
X141134388Y-108856457D01*
X141134388Y-108856457D02*
X141039150Y-108808838D01*
X141039150Y-108808838D02*
X140991531Y-108761218D01*
X143559580Y-102242857D02*
X143607200Y-102290476D01*
X143607200Y-102290476D02*
X143654819Y-102433333D01*
X143654819Y-102433333D02*
X143654819Y-102528571D01*
X143654819Y-102528571D02*
X143607200Y-102671428D01*
X143607200Y-102671428D02*
X143511961Y-102766666D01*
X143511961Y-102766666D02*
X143416723Y-102814285D01*
X143416723Y-102814285D02*
X143226247Y-102861904D01*
X143226247Y-102861904D02*
X143083390Y-102861904D01*
X143083390Y-102861904D02*
X142892914Y-102814285D01*
X142892914Y-102814285D02*
X142797676Y-102766666D01*
X142797676Y-102766666D02*
X142702438Y-102671428D01*
X142702438Y-102671428D02*
X142654819Y-102528571D01*
X142654819Y-102528571D02*
X142654819Y-102433333D01*
X142654819Y-102433333D02*
X142702438Y-102290476D01*
X142702438Y-102290476D02*
X142750057Y-102242857D01*
X143654819Y-101290476D02*
X143654819Y-101861904D01*
X143654819Y-101576190D02*
X142654819Y-101576190D01*
X142654819Y-101576190D02*
X142797676Y-101671428D01*
X142797676Y-101671428D02*
X142892914Y-101766666D01*
X142892914Y-101766666D02*
X142940533Y-101861904D01*
X142654819Y-100385714D02*
X142654819Y-100861904D01*
X142654819Y-100861904D02*
X143131009Y-100909523D01*
X143131009Y-100909523D02*
X143083390Y-100861904D01*
X143083390Y-100861904D02*
X143035771Y-100766666D01*
X143035771Y-100766666D02*
X143035771Y-100528571D01*
X143035771Y-100528571D02*
X143083390Y-100433333D01*
X143083390Y-100433333D02*
X143131009Y-100385714D01*
X143131009Y-100385714D02*
X143226247Y-100338095D01*
X143226247Y-100338095D02*
X143464342Y-100338095D01*
X143464342Y-100338095D02*
X143559580Y-100385714D01*
X143559580Y-100385714D02*
X143607200Y-100433333D01*
X143607200Y-100433333D02*
X143654819Y-100528571D01*
X143654819Y-100528571D02*
X143654819Y-100766666D01*
X143654819Y-100766666D02*
X143607200Y-100861904D01*
X143607200Y-100861904D02*
X143559580Y-100909523D01*
X166059580Y-99966666D02*
X166107200Y-100014285D01*
X166107200Y-100014285D02*
X166154819Y-100157142D01*
X166154819Y-100157142D02*
X166154819Y-100252380D01*
X166154819Y-100252380D02*
X166107200Y-100395237D01*
X166107200Y-100395237D02*
X166011961Y-100490475D01*
X166011961Y-100490475D02*
X165916723Y-100538094D01*
X165916723Y-100538094D02*
X165726247Y-100585713D01*
X165726247Y-100585713D02*
X165583390Y-100585713D01*
X165583390Y-100585713D02*
X165392914Y-100538094D01*
X165392914Y-100538094D02*
X165297676Y-100490475D01*
X165297676Y-100490475D02*
X165202438Y-100395237D01*
X165202438Y-100395237D02*
X165154819Y-100252380D01*
X165154819Y-100252380D02*
X165154819Y-100157142D01*
X165154819Y-100157142D02*
X165202438Y-100014285D01*
X165202438Y-100014285D02*
X165250057Y-99966666D01*
X165154819Y-99633332D02*
X165154819Y-99014285D01*
X165154819Y-99014285D02*
X165535771Y-99347618D01*
X165535771Y-99347618D02*
X165535771Y-99204761D01*
X165535771Y-99204761D02*
X165583390Y-99109523D01*
X165583390Y-99109523D02*
X165631009Y-99061904D01*
X165631009Y-99061904D02*
X165726247Y-99014285D01*
X165726247Y-99014285D02*
X165964342Y-99014285D01*
X165964342Y-99014285D02*
X166059580Y-99061904D01*
X166059580Y-99061904D02*
X166107200Y-99109523D01*
X166107200Y-99109523D02*
X166154819Y-99204761D01*
X166154819Y-99204761D02*
X166154819Y-99490475D01*
X166154819Y-99490475D02*
X166107200Y-99585713D01*
X166107200Y-99585713D02*
X166059580Y-99633332D01*
X145808506Y-102266666D02*
X145856126Y-102314285D01*
X145856126Y-102314285D02*
X145903745Y-102457142D01*
X145903745Y-102457142D02*
X145903745Y-102552380D01*
X145903745Y-102552380D02*
X145856126Y-102695237D01*
X145856126Y-102695237D02*
X145760887Y-102790475D01*
X145760887Y-102790475D02*
X145665649Y-102838094D01*
X145665649Y-102838094D02*
X145475173Y-102885713D01*
X145475173Y-102885713D02*
X145332316Y-102885713D01*
X145332316Y-102885713D02*
X145141840Y-102838094D01*
X145141840Y-102838094D02*
X145046602Y-102790475D01*
X145046602Y-102790475D02*
X144951364Y-102695237D01*
X144951364Y-102695237D02*
X144903745Y-102552380D01*
X144903745Y-102552380D02*
X144903745Y-102457142D01*
X144903745Y-102457142D02*
X144951364Y-102314285D01*
X144951364Y-102314285D02*
X144998983Y-102266666D01*
X144903745Y-101361904D02*
X144903745Y-101838094D01*
X144903745Y-101838094D02*
X145379935Y-101885713D01*
X145379935Y-101885713D02*
X145332316Y-101838094D01*
X145332316Y-101838094D02*
X145284697Y-101742856D01*
X145284697Y-101742856D02*
X145284697Y-101504761D01*
X145284697Y-101504761D02*
X145332316Y-101409523D01*
X145332316Y-101409523D02*
X145379935Y-101361904D01*
X145379935Y-101361904D02*
X145475173Y-101314285D01*
X145475173Y-101314285D02*
X145713268Y-101314285D01*
X145713268Y-101314285D02*
X145808506Y-101361904D01*
X145808506Y-101361904D02*
X145856126Y-101409523D01*
X145856126Y-101409523D02*
X145903745Y-101504761D01*
X145903745Y-101504761D02*
X145903745Y-101742856D01*
X145903745Y-101742856D02*
X145856126Y-101838094D01*
X145856126Y-101838094D02*
X145808506Y-101885713D01*
X151859580Y-95242857D02*
X151907200Y-95290476D01*
X151907200Y-95290476D02*
X151954819Y-95433333D01*
X151954819Y-95433333D02*
X151954819Y-95528571D01*
X151954819Y-95528571D02*
X151907200Y-95671428D01*
X151907200Y-95671428D02*
X151811961Y-95766666D01*
X151811961Y-95766666D02*
X151716723Y-95814285D01*
X151716723Y-95814285D02*
X151526247Y-95861904D01*
X151526247Y-95861904D02*
X151383390Y-95861904D01*
X151383390Y-95861904D02*
X151192914Y-95814285D01*
X151192914Y-95814285D02*
X151097676Y-95766666D01*
X151097676Y-95766666D02*
X151002438Y-95671428D01*
X151002438Y-95671428D02*
X150954819Y-95528571D01*
X150954819Y-95528571D02*
X150954819Y-95433333D01*
X150954819Y-95433333D02*
X151002438Y-95290476D01*
X151002438Y-95290476D02*
X151050057Y-95242857D01*
X151954819Y-94290476D02*
X151954819Y-94861904D01*
X151954819Y-94576190D02*
X150954819Y-94576190D01*
X150954819Y-94576190D02*
X151097676Y-94671428D01*
X151097676Y-94671428D02*
X151192914Y-94766666D01*
X151192914Y-94766666D02*
X151240533Y-94861904D01*
X150954819Y-93957142D02*
X150954819Y-93290476D01*
X150954819Y-93290476D02*
X151954819Y-93719047D01*
X147659580Y-102266666D02*
X147707200Y-102314285D01*
X147707200Y-102314285D02*
X147754819Y-102457142D01*
X147754819Y-102457142D02*
X147754819Y-102552380D01*
X147754819Y-102552380D02*
X147707200Y-102695237D01*
X147707200Y-102695237D02*
X147611961Y-102790475D01*
X147611961Y-102790475D02*
X147516723Y-102838094D01*
X147516723Y-102838094D02*
X147326247Y-102885713D01*
X147326247Y-102885713D02*
X147183390Y-102885713D01*
X147183390Y-102885713D02*
X146992914Y-102838094D01*
X146992914Y-102838094D02*
X146897676Y-102790475D01*
X146897676Y-102790475D02*
X146802438Y-102695237D01*
X146802438Y-102695237D02*
X146754819Y-102552380D01*
X146754819Y-102552380D02*
X146754819Y-102457142D01*
X146754819Y-102457142D02*
X146802438Y-102314285D01*
X146802438Y-102314285D02*
X146850057Y-102266666D01*
X146754819Y-101409523D02*
X146754819Y-101599999D01*
X146754819Y-101599999D02*
X146802438Y-101695237D01*
X146802438Y-101695237D02*
X146850057Y-101742856D01*
X146850057Y-101742856D02*
X146992914Y-101838094D01*
X146992914Y-101838094D02*
X147183390Y-101885713D01*
X147183390Y-101885713D02*
X147564342Y-101885713D01*
X147564342Y-101885713D02*
X147659580Y-101838094D01*
X147659580Y-101838094D02*
X147707200Y-101790475D01*
X147707200Y-101790475D02*
X147754819Y-101695237D01*
X147754819Y-101695237D02*
X147754819Y-101504761D01*
X147754819Y-101504761D02*
X147707200Y-101409523D01*
X147707200Y-101409523D02*
X147659580Y-101361904D01*
X147659580Y-101361904D02*
X147564342Y-101314285D01*
X147564342Y-101314285D02*
X147326247Y-101314285D01*
X147326247Y-101314285D02*
X147231009Y-101361904D01*
X147231009Y-101361904D02*
X147183390Y-101409523D01*
X147183390Y-101409523D02*
X147135771Y-101504761D01*
X147135771Y-101504761D02*
X147135771Y-101695237D01*
X147135771Y-101695237D02*
X147183390Y-101790475D01*
X147183390Y-101790475D02*
X147231009Y-101838094D01*
X147231009Y-101838094D02*
X147326247Y-101885713D01*
X146738095Y-85354819D02*
X146738095Y-86164342D01*
X146738095Y-86164342D02*
X146785714Y-86259580D01*
X146785714Y-86259580D02*
X146833333Y-86307200D01*
X146833333Y-86307200D02*
X146928571Y-86354819D01*
X146928571Y-86354819D02*
X147119047Y-86354819D01*
X147119047Y-86354819D02*
X147214285Y-86307200D01*
X147214285Y-86307200D02*
X147261904Y-86259580D01*
X147261904Y-86259580D02*
X147309523Y-86164342D01*
X147309523Y-86164342D02*
X147309523Y-85354819D01*
X147690476Y-85354819D02*
X148309523Y-85354819D01*
X148309523Y-85354819D02*
X147976190Y-85735771D01*
X147976190Y-85735771D02*
X148119047Y-85735771D01*
X148119047Y-85735771D02*
X148214285Y-85783390D01*
X148214285Y-85783390D02*
X148261904Y-85831009D01*
X148261904Y-85831009D02*
X148309523Y-85926247D01*
X148309523Y-85926247D02*
X148309523Y-86164342D01*
X148309523Y-86164342D02*
X148261904Y-86259580D01*
X148261904Y-86259580D02*
X148214285Y-86307200D01*
X148214285Y-86307200D02*
X148119047Y-86354819D01*
X148119047Y-86354819D02*
X147833333Y-86354819D01*
X147833333Y-86354819D02*
X147738095Y-86307200D01*
X147738095Y-86307200D02*
X147690476Y-86259580D01*
X159833333Y-99954819D02*
X159357143Y-99954819D01*
X159357143Y-99954819D02*
X159357143Y-98954819D01*
X160690476Y-99954819D02*
X160119048Y-99954819D01*
X160404762Y-99954819D02*
X160404762Y-98954819D01*
X160404762Y-98954819D02*
X160309524Y-99097676D01*
X160309524Y-99097676D02*
X160214286Y-99192914D01*
X160214286Y-99192914D02*
X160119048Y-99240533D01*
X159833333Y-97609580D02*
X159785714Y-97657200D01*
X159785714Y-97657200D02*
X159642857Y-97704819D01*
X159642857Y-97704819D02*
X159547619Y-97704819D01*
X159547619Y-97704819D02*
X159404762Y-97657200D01*
X159404762Y-97657200D02*
X159309524Y-97561961D01*
X159309524Y-97561961D02*
X159261905Y-97466723D01*
X159261905Y-97466723D02*
X159214286Y-97276247D01*
X159214286Y-97276247D02*
X159214286Y-97133390D01*
X159214286Y-97133390D02*
X159261905Y-96942914D01*
X159261905Y-96942914D02*
X159309524Y-96847676D01*
X159309524Y-96847676D02*
X159404762Y-96752438D01*
X159404762Y-96752438D02*
X159547619Y-96704819D01*
X159547619Y-96704819D02*
X159642857Y-96704819D01*
X159642857Y-96704819D02*
X159785714Y-96752438D01*
X159785714Y-96752438D02*
X159833333Y-96800057D01*
X160166667Y-96704819D02*
X160833333Y-96704819D01*
X160833333Y-96704819D02*
X160404762Y-97704819D01*
X153941787Y-98518606D02*
X153894168Y-98566226D01*
X153894168Y-98566226D02*
X153751311Y-98613845D01*
X153751311Y-98613845D02*
X153656073Y-98613845D01*
X153656073Y-98613845D02*
X153513216Y-98566226D01*
X153513216Y-98566226D02*
X153417978Y-98470987D01*
X153417978Y-98470987D02*
X153370359Y-98375749D01*
X153370359Y-98375749D02*
X153322740Y-98185273D01*
X153322740Y-98185273D02*
X153322740Y-98042416D01*
X153322740Y-98042416D02*
X153370359Y-97851940D01*
X153370359Y-97851940D02*
X153417978Y-97756702D01*
X153417978Y-97756702D02*
X153513216Y-97661464D01*
X153513216Y-97661464D02*
X153656073Y-97613845D01*
X153656073Y-97613845D02*
X153751311Y-97613845D01*
X153751311Y-97613845D02*
X153894168Y-97661464D01*
X153894168Y-97661464D02*
X153941787Y-97709083D01*
X154513216Y-98042416D02*
X154417978Y-97994797D01*
X154417978Y-97994797D02*
X154370359Y-97947178D01*
X154370359Y-97947178D02*
X154322740Y-97851940D01*
X154322740Y-97851940D02*
X154322740Y-97804321D01*
X154322740Y-97804321D02*
X154370359Y-97709083D01*
X154370359Y-97709083D02*
X154417978Y-97661464D01*
X154417978Y-97661464D02*
X154513216Y-97613845D01*
X154513216Y-97613845D02*
X154703692Y-97613845D01*
X154703692Y-97613845D02*
X154798930Y-97661464D01*
X154798930Y-97661464D02*
X154846549Y-97709083D01*
X154846549Y-97709083D02*
X154894168Y-97804321D01*
X154894168Y-97804321D02*
X154894168Y-97851940D01*
X154894168Y-97851940D02*
X154846549Y-97947178D01*
X154846549Y-97947178D02*
X154798930Y-97994797D01*
X154798930Y-97994797D02*
X154703692Y-98042416D01*
X154703692Y-98042416D02*
X154513216Y-98042416D01*
X154513216Y-98042416D02*
X154417978Y-98090035D01*
X154417978Y-98090035D02*
X154370359Y-98137654D01*
X154370359Y-98137654D02*
X154322740Y-98232892D01*
X154322740Y-98232892D02*
X154322740Y-98423368D01*
X154322740Y-98423368D02*
X154370359Y-98518606D01*
X154370359Y-98518606D02*
X154417978Y-98566226D01*
X154417978Y-98566226D02*
X154513216Y-98613845D01*
X154513216Y-98613845D02*
X154703692Y-98613845D01*
X154703692Y-98613845D02*
X154798930Y-98566226D01*
X154798930Y-98566226D02*
X154846549Y-98518606D01*
X154846549Y-98518606D02*
X154894168Y-98423368D01*
X154894168Y-98423368D02*
X154894168Y-98232892D01*
X154894168Y-98232892D02*
X154846549Y-98137654D01*
X154846549Y-98137654D02*
X154798930Y-98090035D01*
X154798930Y-98090035D02*
X154703692Y-98042416D01*
X153359580Y-95242857D02*
X153407200Y-95290476D01*
X153407200Y-95290476D02*
X153454819Y-95433333D01*
X153454819Y-95433333D02*
X153454819Y-95528571D01*
X153454819Y-95528571D02*
X153407200Y-95671428D01*
X153407200Y-95671428D02*
X153311961Y-95766666D01*
X153311961Y-95766666D02*
X153216723Y-95814285D01*
X153216723Y-95814285D02*
X153026247Y-95861904D01*
X153026247Y-95861904D02*
X152883390Y-95861904D01*
X152883390Y-95861904D02*
X152692914Y-95814285D01*
X152692914Y-95814285D02*
X152597676Y-95766666D01*
X152597676Y-95766666D02*
X152502438Y-95671428D01*
X152502438Y-95671428D02*
X152454819Y-95528571D01*
X152454819Y-95528571D02*
X152454819Y-95433333D01*
X152454819Y-95433333D02*
X152502438Y-95290476D01*
X152502438Y-95290476D02*
X152550057Y-95242857D01*
X153454819Y-94290476D02*
X153454819Y-94861904D01*
X153454819Y-94576190D02*
X152454819Y-94576190D01*
X152454819Y-94576190D02*
X152597676Y-94671428D01*
X152597676Y-94671428D02*
X152692914Y-94766666D01*
X152692914Y-94766666D02*
X152740533Y-94861904D01*
X152883390Y-93719047D02*
X152835771Y-93814285D01*
X152835771Y-93814285D02*
X152788152Y-93861904D01*
X152788152Y-93861904D02*
X152692914Y-93909523D01*
X152692914Y-93909523D02*
X152645295Y-93909523D01*
X152645295Y-93909523D02*
X152550057Y-93861904D01*
X152550057Y-93861904D02*
X152502438Y-93814285D01*
X152502438Y-93814285D02*
X152454819Y-93719047D01*
X152454819Y-93719047D02*
X152454819Y-93528571D01*
X152454819Y-93528571D02*
X152502438Y-93433333D01*
X152502438Y-93433333D02*
X152550057Y-93385714D01*
X152550057Y-93385714D02*
X152645295Y-93338095D01*
X152645295Y-93338095D02*
X152692914Y-93338095D01*
X152692914Y-93338095D02*
X152788152Y-93385714D01*
X152788152Y-93385714D02*
X152835771Y-93433333D01*
X152835771Y-93433333D02*
X152883390Y-93528571D01*
X152883390Y-93528571D02*
X152883390Y-93719047D01*
X152883390Y-93719047D02*
X152931009Y-93814285D01*
X152931009Y-93814285D02*
X152978628Y-93861904D01*
X152978628Y-93861904D02*
X153073866Y-93909523D01*
X153073866Y-93909523D02*
X153264342Y-93909523D01*
X153264342Y-93909523D02*
X153359580Y-93861904D01*
X153359580Y-93861904D02*
X153407200Y-93814285D01*
X153407200Y-93814285D02*
X153454819Y-93719047D01*
X153454819Y-93719047D02*
X153454819Y-93528571D01*
X153454819Y-93528571D02*
X153407200Y-93433333D01*
X153407200Y-93433333D02*
X153359580Y-93385714D01*
X153359580Y-93385714D02*
X153264342Y-93338095D01*
X153264342Y-93338095D02*
X153073866Y-93338095D01*
X153073866Y-93338095D02*
X152978628Y-93385714D01*
X152978628Y-93385714D02*
X152931009Y-93433333D01*
X152931009Y-93433333D02*
X152883390Y-93528571D01*
X140061905Y-110954819D02*
X140061905Y-109954819D01*
X140061905Y-109954819D02*
X140300000Y-109954819D01*
X140300000Y-109954819D02*
X140442857Y-110002438D01*
X140442857Y-110002438D02*
X140538095Y-110097676D01*
X140538095Y-110097676D02*
X140585714Y-110192914D01*
X140585714Y-110192914D02*
X140633333Y-110383390D01*
X140633333Y-110383390D02*
X140633333Y-110526247D01*
X140633333Y-110526247D02*
X140585714Y-110716723D01*
X140585714Y-110716723D02*
X140538095Y-110811961D01*
X140538095Y-110811961D02*
X140442857Y-110907200D01*
X140442857Y-110907200D02*
X140300000Y-110954819D01*
X140300000Y-110954819D02*
X140061905Y-110954819D01*
X141585714Y-110954819D02*
X141014286Y-110954819D01*
X141300000Y-110954819D02*
X141300000Y-109954819D01*
X141300000Y-109954819D02*
X141204762Y-110097676D01*
X141204762Y-110097676D02*
X141109524Y-110192914D01*
X141109524Y-110192914D02*
X141014286Y-110240533D01*
X135659580Y-95242857D02*
X135707200Y-95290476D01*
X135707200Y-95290476D02*
X135754819Y-95433333D01*
X135754819Y-95433333D02*
X135754819Y-95528571D01*
X135754819Y-95528571D02*
X135707200Y-95671428D01*
X135707200Y-95671428D02*
X135611961Y-95766666D01*
X135611961Y-95766666D02*
X135516723Y-95814285D01*
X135516723Y-95814285D02*
X135326247Y-95861904D01*
X135326247Y-95861904D02*
X135183390Y-95861904D01*
X135183390Y-95861904D02*
X134992914Y-95814285D01*
X134992914Y-95814285D02*
X134897676Y-95766666D01*
X134897676Y-95766666D02*
X134802438Y-95671428D01*
X134802438Y-95671428D02*
X134754819Y-95528571D01*
X134754819Y-95528571D02*
X134754819Y-95433333D01*
X134754819Y-95433333D02*
X134802438Y-95290476D01*
X134802438Y-95290476D02*
X134850057Y-95242857D01*
X135754819Y-94290476D02*
X135754819Y-94861904D01*
X135754819Y-94576190D02*
X134754819Y-94576190D01*
X134754819Y-94576190D02*
X134897676Y-94671428D01*
X134897676Y-94671428D02*
X134992914Y-94766666D01*
X134992914Y-94766666D02*
X135040533Y-94861904D01*
X134754819Y-93433333D02*
X134754819Y-93623809D01*
X134754819Y-93623809D02*
X134802438Y-93719047D01*
X134802438Y-93719047D02*
X134850057Y-93766666D01*
X134850057Y-93766666D02*
X134992914Y-93861904D01*
X134992914Y-93861904D02*
X135183390Y-93909523D01*
X135183390Y-93909523D02*
X135564342Y-93909523D01*
X135564342Y-93909523D02*
X135659580Y-93861904D01*
X135659580Y-93861904D02*
X135707200Y-93814285D01*
X135707200Y-93814285D02*
X135754819Y-93719047D01*
X135754819Y-93719047D02*
X135754819Y-93528571D01*
X135754819Y-93528571D02*
X135707200Y-93433333D01*
X135707200Y-93433333D02*
X135659580Y-93385714D01*
X135659580Y-93385714D02*
X135564342Y-93338095D01*
X135564342Y-93338095D02*
X135326247Y-93338095D01*
X135326247Y-93338095D02*
X135231009Y-93385714D01*
X135231009Y-93385714D02*
X135183390Y-93433333D01*
X135183390Y-93433333D02*
X135135771Y-93528571D01*
X135135771Y-93528571D02*
X135135771Y-93719047D01*
X135135771Y-93719047D02*
X135183390Y-93814285D01*
X135183390Y-93814285D02*
X135231009Y-93861904D01*
X135231009Y-93861904D02*
X135326247Y-93909523D01*
X169659580Y-87142857D02*
X169707200Y-87190476D01*
X169707200Y-87190476D02*
X169754819Y-87333333D01*
X169754819Y-87333333D02*
X169754819Y-87428571D01*
X169754819Y-87428571D02*
X169707200Y-87571428D01*
X169707200Y-87571428D02*
X169611961Y-87666666D01*
X169611961Y-87666666D02*
X169516723Y-87714285D01*
X169516723Y-87714285D02*
X169326247Y-87761904D01*
X169326247Y-87761904D02*
X169183390Y-87761904D01*
X169183390Y-87761904D02*
X168992914Y-87714285D01*
X168992914Y-87714285D02*
X168897676Y-87666666D01*
X168897676Y-87666666D02*
X168802438Y-87571428D01*
X168802438Y-87571428D02*
X168754819Y-87428571D01*
X168754819Y-87428571D02*
X168754819Y-87333333D01*
X168754819Y-87333333D02*
X168802438Y-87190476D01*
X168802438Y-87190476D02*
X168850057Y-87142857D01*
X169754819Y-86190476D02*
X169754819Y-86761904D01*
X169754819Y-86476190D02*
X168754819Y-86476190D01*
X168754819Y-86476190D02*
X168897676Y-86571428D01*
X168897676Y-86571428D02*
X168992914Y-86666666D01*
X168992914Y-86666666D02*
X169040533Y-86761904D01*
X168850057Y-85809523D02*
X168802438Y-85761904D01*
X168802438Y-85761904D02*
X168754819Y-85666666D01*
X168754819Y-85666666D02*
X168754819Y-85428571D01*
X168754819Y-85428571D02*
X168802438Y-85333333D01*
X168802438Y-85333333D02*
X168850057Y-85285714D01*
X168850057Y-85285714D02*
X168945295Y-85238095D01*
X168945295Y-85238095D02*
X169040533Y-85238095D01*
X169040533Y-85238095D02*
X169183390Y-85285714D01*
X169183390Y-85285714D02*
X169754819Y-85857142D01*
X169754819Y-85857142D02*
X169754819Y-85238095D01*
X133633333Y-103054819D02*
X133300000Y-102578628D01*
X133061905Y-103054819D02*
X133061905Y-102054819D01*
X133061905Y-102054819D02*
X133442857Y-102054819D01*
X133442857Y-102054819D02*
X133538095Y-102102438D01*
X133538095Y-102102438D02*
X133585714Y-102150057D01*
X133585714Y-102150057D02*
X133633333Y-102245295D01*
X133633333Y-102245295D02*
X133633333Y-102388152D01*
X133633333Y-102388152D02*
X133585714Y-102483390D01*
X133585714Y-102483390D02*
X133538095Y-102531009D01*
X133538095Y-102531009D02*
X133442857Y-102578628D01*
X133442857Y-102578628D02*
X133061905Y-102578628D01*
X133966667Y-102054819D02*
X134633333Y-102054819D01*
X134633333Y-102054819D02*
X134204762Y-103054819D01*
X167559580Y-99966666D02*
X167607200Y-100014285D01*
X167607200Y-100014285D02*
X167654819Y-100157142D01*
X167654819Y-100157142D02*
X167654819Y-100252380D01*
X167654819Y-100252380D02*
X167607200Y-100395237D01*
X167607200Y-100395237D02*
X167511961Y-100490475D01*
X167511961Y-100490475D02*
X167416723Y-100538094D01*
X167416723Y-100538094D02*
X167226247Y-100585713D01*
X167226247Y-100585713D02*
X167083390Y-100585713D01*
X167083390Y-100585713D02*
X166892914Y-100538094D01*
X166892914Y-100538094D02*
X166797676Y-100490475D01*
X166797676Y-100490475D02*
X166702438Y-100395237D01*
X166702438Y-100395237D02*
X166654819Y-100252380D01*
X166654819Y-100252380D02*
X166654819Y-100157142D01*
X166654819Y-100157142D02*
X166702438Y-100014285D01*
X166702438Y-100014285D02*
X166750057Y-99966666D01*
X166988152Y-99109523D02*
X167654819Y-99109523D01*
X166607200Y-99347618D02*
X167321485Y-99585713D01*
X167321485Y-99585713D02*
X167321485Y-98966666D01*
X141133333Y-103754819D02*
X140800000Y-103278628D01*
X140561905Y-103754819D02*
X140561905Y-102754819D01*
X140561905Y-102754819D02*
X140942857Y-102754819D01*
X140942857Y-102754819D02*
X141038095Y-102802438D01*
X141038095Y-102802438D02*
X141085714Y-102850057D01*
X141085714Y-102850057D02*
X141133333Y-102945295D01*
X141133333Y-102945295D02*
X141133333Y-103088152D01*
X141133333Y-103088152D02*
X141085714Y-103183390D01*
X141085714Y-103183390D02*
X141038095Y-103231009D01*
X141038095Y-103231009D02*
X140942857Y-103278628D01*
X140942857Y-103278628D02*
X140561905Y-103278628D01*
X141990476Y-103088152D02*
X141990476Y-103754819D01*
X141752381Y-102707200D02*
X141514286Y-103421485D01*
X141514286Y-103421485D02*
X142133333Y-103421485D01*
X153941787Y-97018606D02*
X153894168Y-97066226D01*
X153894168Y-97066226D02*
X153751311Y-97113845D01*
X153751311Y-97113845D02*
X153656073Y-97113845D01*
X153656073Y-97113845D02*
X153513216Y-97066226D01*
X153513216Y-97066226D02*
X153417978Y-96970987D01*
X153417978Y-96970987D02*
X153370359Y-96875749D01*
X153370359Y-96875749D02*
X153322740Y-96685273D01*
X153322740Y-96685273D02*
X153322740Y-96542416D01*
X153322740Y-96542416D02*
X153370359Y-96351940D01*
X153370359Y-96351940D02*
X153417978Y-96256702D01*
X153417978Y-96256702D02*
X153513216Y-96161464D01*
X153513216Y-96161464D02*
X153656073Y-96113845D01*
X153656073Y-96113845D02*
X153751311Y-96113845D01*
X153751311Y-96113845D02*
X153894168Y-96161464D01*
X153894168Y-96161464D02*
X153941787Y-96209083D01*
X154417978Y-97113845D02*
X154608454Y-97113845D01*
X154608454Y-97113845D02*
X154703692Y-97066226D01*
X154703692Y-97066226D02*
X154751311Y-97018606D01*
X154751311Y-97018606D02*
X154846549Y-96875749D01*
X154846549Y-96875749D02*
X154894168Y-96685273D01*
X154894168Y-96685273D02*
X154894168Y-96304321D01*
X154894168Y-96304321D02*
X154846549Y-96209083D01*
X154846549Y-96209083D02*
X154798930Y-96161464D01*
X154798930Y-96161464D02*
X154703692Y-96113845D01*
X154703692Y-96113845D02*
X154513216Y-96113845D01*
X154513216Y-96113845D02*
X154417978Y-96161464D01*
X154417978Y-96161464D02*
X154370359Y-96209083D01*
X154370359Y-96209083D02*
X154322740Y-96304321D01*
X154322740Y-96304321D02*
X154322740Y-96542416D01*
X154322740Y-96542416D02*
X154370359Y-96637654D01*
X154370359Y-96637654D02*
X154417978Y-96685273D01*
X154417978Y-96685273D02*
X154513216Y-96732892D01*
X154513216Y-96732892D02*
X154703692Y-96732892D01*
X154703692Y-96732892D02*
X154798930Y-96685273D01*
X154798930Y-96685273D02*
X154846549Y-96637654D01*
X154846549Y-96637654D02*
X154894168Y-96542416D01*
X145159580Y-85866666D02*
X145207200Y-85914285D01*
X145207200Y-85914285D02*
X145254819Y-86057142D01*
X145254819Y-86057142D02*
X145254819Y-86152380D01*
X145254819Y-86152380D02*
X145207200Y-86295237D01*
X145207200Y-86295237D02*
X145111961Y-86390475D01*
X145111961Y-86390475D02*
X145016723Y-86438094D01*
X145016723Y-86438094D02*
X144826247Y-86485713D01*
X144826247Y-86485713D02*
X144683390Y-86485713D01*
X144683390Y-86485713D02*
X144492914Y-86438094D01*
X144492914Y-86438094D02*
X144397676Y-86390475D01*
X144397676Y-86390475D02*
X144302438Y-86295237D01*
X144302438Y-86295237D02*
X144254819Y-86152380D01*
X144254819Y-86152380D02*
X144254819Y-86057142D01*
X144254819Y-86057142D02*
X144302438Y-85914285D01*
X144302438Y-85914285D02*
X144350057Y-85866666D01*
X144350057Y-85485713D02*
X144302438Y-85438094D01*
X144302438Y-85438094D02*
X144254819Y-85342856D01*
X144254819Y-85342856D02*
X144254819Y-85104761D01*
X144254819Y-85104761D02*
X144302438Y-85009523D01*
X144302438Y-85009523D02*
X144350057Y-84961904D01*
X144350057Y-84961904D02*
X144445295Y-84914285D01*
X144445295Y-84914285D02*
X144540533Y-84914285D01*
X144540533Y-84914285D02*
X144683390Y-84961904D01*
X144683390Y-84961904D02*
X145254819Y-85533332D01*
X145254819Y-85533332D02*
X145254819Y-84914285D01*
X142957142Y-111054819D02*
X142623809Y-110578628D01*
X142385714Y-111054819D02*
X142385714Y-110054819D01*
X142385714Y-110054819D02*
X142766666Y-110054819D01*
X142766666Y-110054819D02*
X142861904Y-110102438D01*
X142861904Y-110102438D02*
X142909523Y-110150057D01*
X142909523Y-110150057D02*
X142957142Y-110245295D01*
X142957142Y-110245295D02*
X142957142Y-110388152D01*
X142957142Y-110388152D02*
X142909523Y-110483390D01*
X142909523Y-110483390D02*
X142861904Y-110531009D01*
X142861904Y-110531009D02*
X142766666Y-110578628D01*
X142766666Y-110578628D02*
X142385714Y-110578628D01*
X143909523Y-111054819D02*
X143338095Y-111054819D01*
X143623809Y-111054819D02*
X143623809Y-110054819D01*
X143623809Y-110054819D02*
X143528571Y-110197676D01*
X143528571Y-110197676D02*
X143433333Y-110292914D01*
X143433333Y-110292914D02*
X143338095Y-110340533D01*
X144528571Y-110054819D02*
X144623809Y-110054819D01*
X144623809Y-110054819D02*
X144719047Y-110102438D01*
X144719047Y-110102438D02*
X144766666Y-110150057D01*
X144766666Y-110150057D02*
X144814285Y-110245295D01*
X144814285Y-110245295D02*
X144861904Y-110435771D01*
X144861904Y-110435771D02*
X144861904Y-110673866D01*
X144861904Y-110673866D02*
X144814285Y-110864342D01*
X144814285Y-110864342D02*
X144766666Y-110959580D01*
X144766666Y-110959580D02*
X144719047Y-111007200D01*
X144719047Y-111007200D02*
X144623809Y-111054819D01*
X144623809Y-111054819D02*
X144528571Y-111054819D01*
X144528571Y-111054819D02*
X144433333Y-111007200D01*
X144433333Y-111007200D02*
X144385714Y-110959580D01*
X144385714Y-110959580D02*
X144338095Y-110864342D01*
X144338095Y-110864342D02*
X144290476Y-110673866D01*
X144290476Y-110673866D02*
X144290476Y-110435771D01*
X144290476Y-110435771D02*
X144338095Y-110245295D01*
X144338095Y-110245295D02*
X144385714Y-110150057D01*
X144385714Y-110150057D02*
X144433333Y-110102438D01*
X144433333Y-110102438D02*
X144528571Y-110054819D01*
X147959580Y-97342857D02*
X148007200Y-97390476D01*
X148007200Y-97390476D02*
X148054819Y-97533333D01*
X148054819Y-97533333D02*
X148054819Y-97628571D01*
X148054819Y-97628571D02*
X148007200Y-97771428D01*
X148007200Y-97771428D02*
X147911961Y-97866666D01*
X147911961Y-97866666D02*
X147816723Y-97914285D01*
X147816723Y-97914285D02*
X147626247Y-97961904D01*
X147626247Y-97961904D02*
X147483390Y-97961904D01*
X147483390Y-97961904D02*
X147292914Y-97914285D01*
X147292914Y-97914285D02*
X147197676Y-97866666D01*
X147197676Y-97866666D02*
X147102438Y-97771428D01*
X147102438Y-97771428D02*
X147054819Y-97628571D01*
X147054819Y-97628571D02*
X147054819Y-97533333D01*
X147054819Y-97533333D02*
X147102438Y-97390476D01*
X147102438Y-97390476D02*
X147150057Y-97342857D01*
X148054819Y-96390476D02*
X148054819Y-96961904D01*
X148054819Y-96676190D02*
X147054819Y-96676190D01*
X147054819Y-96676190D02*
X147197676Y-96771428D01*
X147197676Y-96771428D02*
X147292914Y-96866666D01*
X147292914Y-96866666D02*
X147340533Y-96961904D01*
X147054819Y-96057142D02*
X147054819Y-95438095D01*
X147054819Y-95438095D02*
X147435771Y-95771428D01*
X147435771Y-95771428D02*
X147435771Y-95628571D01*
X147435771Y-95628571D02*
X147483390Y-95533333D01*
X147483390Y-95533333D02*
X147531009Y-95485714D01*
X147531009Y-95485714D02*
X147626247Y-95438095D01*
X147626247Y-95438095D02*
X147864342Y-95438095D01*
X147864342Y-95438095D02*
X147959580Y-95485714D01*
X147959580Y-95485714D02*
X148007200Y-95533333D01*
X148007200Y-95533333D02*
X148054819Y-95628571D01*
X148054819Y-95628571D02*
X148054819Y-95914285D01*
X148054819Y-95914285D02*
X148007200Y-96009523D01*
X148007200Y-96009523D02*
X147959580Y-96057142D01*
%TO.C,U1*%
D11*
X155140000Y-83890000D02*
X156090000Y-83890000D01*
X155140000Y-84840000D02*
X155140000Y-83890000D01*
X155140000Y-94110000D02*
X155140000Y-93160000D01*
X156090000Y-94110000D02*
X155140000Y-94110000D01*
X164410000Y-83890000D02*
X165360000Y-83890000D01*
X165360000Y-83890000D02*
X165360000Y-84840000D01*
X165360000Y-93160000D02*
X165360000Y-94110000D01*
X165360000Y-94110000D02*
X164410000Y-94110000D01*
X154500000Y-84840000D02*
X154160000Y-84370000D01*
X154840000Y-84370000D01*
X154500000Y-84840000D01*
G36*
X154500000Y-84840000D02*
G01*
X154160000Y-84370000D01*
X154840000Y-84370000D01*
X154500000Y-84840000D01*
G37*
%TO.C,C14*%
X141358842Y-94228285D02*
X141358842Y-94443957D01*
X142078842Y-94228285D02*
X142078842Y-94443957D01*
%TO.C,C11*%
X156789088Y-81351872D02*
X156573416Y-81351872D01*
X156789088Y-82071872D02*
X156573416Y-82071872D01*
%TO.C,R1*%
X147648397Y-91358826D02*
X147341115Y-91358826D01*
X147648397Y-92118826D02*
X147341115Y-92118826D01*
%TO.C,J4*%
D12*
X128293113Y-104097400D02*
X129815688Y-104097400D01*
X129815688Y-94902600D02*
X128293113Y-94902600D01*
%TO.C,R8*%
D11*
X132802605Y-106120000D02*
X133109887Y-106120000D01*
X132802605Y-106880000D02*
X133109887Y-106880000D01*
%TO.C,R5*%
X137903641Y-95870000D02*
X137596359Y-95870000D01*
X137903641Y-96630000D02*
X137596359Y-96630000D01*
%TO.C,C10*%
X167187159Y-92112237D02*
X167187159Y-92327909D01*
X167907159Y-92112237D02*
X167907159Y-92327909D01*
%TO.C,U2*%
X137390000Y-97390000D02*
X140610000Y-97390000D01*
X137390000Y-97565000D02*
X137390000Y-97390000D01*
X137390000Y-100610000D02*
X137390000Y-100435000D01*
X140610000Y-97390000D02*
X140610000Y-97565000D01*
X140610000Y-100435000D02*
X140610000Y-100610000D01*
X140610000Y-100610000D02*
X137390000Y-100610000D01*
X136840000Y-97560000D02*
X136600000Y-97230000D01*
X137080000Y-97230000D01*
X136840000Y-97560000D01*
G36*
X136840000Y-97560000D02*
G01*
X136600000Y-97230000D01*
X137080000Y-97230000D01*
X136840000Y-97560000D01*
G37*
%TO.C,C1*%
X142358574Y-88035995D02*
X142358574Y-87513491D01*
X143828574Y-88035995D02*
X143828574Y-87513491D01*
%TO.C,U5*%
D12*
X143618750Y-96401000D02*
X145625350Y-96401000D01*
X145625350Y-93099000D02*
X143618750Y-93099000D01*
X145625350Y-95113261D02*
X145625350Y-94386739D01*
%TO.C,U4*%
D11*
X148390000Y-98390000D02*
X148865000Y-98390000D01*
X148390000Y-98865000D02*
X148390000Y-98390000D01*
X148390000Y-101610000D02*
X148390000Y-101135000D01*
X148865000Y-101610000D02*
X148390000Y-101610000D01*
X151135000Y-98390000D02*
X151610000Y-98390000D01*
X151610000Y-98390000D02*
X151610000Y-98865000D01*
X151610000Y-101135000D02*
X151610000Y-101610000D01*
X151610000Y-101610000D02*
X151135000Y-101610000D01*
X150750000Y-97880000D02*
X150510000Y-97550000D01*
X150990000Y-97550000D01*
X150750000Y-97880000D01*
G36*
X150750000Y-97880000D02*
G01*
X150510000Y-97550000D01*
X150990000Y-97550000D01*
X150750000Y-97880000D01*
G37*
%TO.C,BZ1*%
X167000000Y-112750000D02*
G75*
G02*
X147000000Y-112750000I-10000000J0D01*
G01*
X147000000Y-112750000D02*
G75*
G02*
X167000000Y-112750000I10000000J0D01*
G01*
%TO.C,D4*%
X132899999Y-97887511D02*
X132899999Y-95927511D01*
X134099999Y-95927511D02*
X132899999Y-95927511D01*
X134099999Y-97887511D02*
X134099999Y-95927511D01*
%TO.C,R2*%
X149570000Y-90453641D02*
X149570000Y-90146359D01*
X150330000Y-90453641D02*
X150330000Y-90146359D01*
%TO.C,D2*%
X128985106Y-106960000D02*
X131670106Y-106960000D01*
X131670106Y-105040000D02*
X128985106Y-105040000D01*
X131670106Y-106960000D02*
X131670106Y-105040000D01*
%TO.C,R9*%
X132862633Y-108001147D02*
X133169915Y-108001147D01*
X132862633Y-108761147D02*
X133169915Y-108761147D01*
%TO.C,J2*%
X134940000Y-84590000D02*
X134940000Y-92410000D01*
X134940000Y-90810000D02*
X135860000Y-90810000D01*
X134940000Y-92410000D02*
X135860000Y-92410000D01*
X135860000Y-90810000D02*
X136140000Y-90810000D01*
X135860000Y-92410000D02*
X135860000Y-90810000D01*
X137500000Y-88950000D02*
X137500000Y-84590000D01*
X138500000Y-84590000D02*
X138500000Y-88950000D01*
X138500000Y-88950000D02*
X137500000Y-88950000D01*
X139300000Y-86850000D02*
X139300000Y-84590000D01*
X139800000Y-86850000D02*
X139800000Y-84590000D01*
X139860000Y-90810000D02*
X139860000Y-92025000D01*
X139860000Y-90810000D02*
X140140000Y-90810000D01*
X140140000Y-90810000D02*
X140140000Y-92410000D01*
X140140000Y-92410000D02*
X141060000Y-92410000D01*
X141060000Y-84590000D02*
X134940000Y-84590000D01*
X141060000Y-90810000D02*
X140140000Y-90810000D01*
X141060000Y-92410000D02*
X141060000Y-84590000D01*
X135700000Y-86850000D02*
X136700000Y-86850000D01*
X136700000Y-88450000D01*
X135700000Y-88450000D01*
X135700000Y-86850000D01*
X139300000Y-86850000D02*
X140300000Y-86850000D01*
X140300000Y-88450000D01*
X139300000Y-88450000D01*
X139300000Y-86850000D01*
%TO.C,R3*%
X142973970Y-78001644D02*
X142973970Y-77694362D01*
X143733970Y-78001644D02*
X143733970Y-77694362D01*
%TO.C,R6*%
X132985985Y-98632188D02*
X133293267Y-98632188D01*
X132985985Y-99392188D02*
X133293267Y-99392188D01*
%TO.C,D3*%
X129016274Y-109343650D02*
X131701274Y-109343650D01*
X131701274Y-107423650D02*
X129016274Y-107423650D01*
X131701274Y-109343650D02*
X131701274Y-107423650D01*
%TO.C,C15*%
X142390000Y-98642164D02*
X142390000Y-98857836D01*
X143110000Y-98642164D02*
X143110000Y-98857836D01*
%TO.C,C3*%
X165240000Y-96609420D02*
X165240000Y-96890580D01*
X166260000Y-96609420D02*
X166260000Y-96890580D01*
%TO.C,C5*%
X144765000Y-99573752D02*
X144765000Y-99051248D01*
X146235000Y-99573752D02*
X146235000Y-99051248D01*
%TO.C,C17*%
X151640000Y-91857836D02*
X151640000Y-91642164D01*
X152360000Y-91857836D02*
X152360000Y-91642164D01*
%TO.C,C6*%
X146890000Y-100170336D02*
X146890000Y-99954664D01*
X147610000Y-100170336D02*
X147610000Y-99954664D01*
%TO.C,U3*%
X145890000Y-87640000D02*
X146065000Y-87640000D01*
X145890000Y-88315000D02*
X145890000Y-87640000D01*
X145890000Y-90860000D02*
X145890000Y-90185000D01*
X146065000Y-90860000D02*
X145890000Y-90860000D01*
X148935000Y-87640000D02*
X149110000Y-87640000D01*
X149110000Y-87640000D02*
X149110000Y-88315000D01*
X149110000Y-90185000D02*
X149110000Y-90860000D01*
X149110000Y-90860000D02*
X148935000Y-90860000D01*
X146500000Y-91010000D02*
X146740000Y-91340000D01*
X146260000Y-91340000D01*
X146500000Y-91010000D01*
G36*
X146740000Y-91340000D02*
G01*
X146260000Y-91340000D01*
X146500000Y-91010000D01*
X146740000Y-91340000D01*
G37*
%TO.C,L1*%
X162350378Y-98940000D02*
X163149622Y-98940000D01*
X162350378Y-100060000D02*
X163149622Y-100060000D01*
%TO.C,C7*%
X162488748Y-96515000D02*
X163011252Y-96515000D01*
X162488748Y-97985000D02*
X163011252Y-97985000D01*
%TO.C,C8*%
X157579475Y-97340421D02*
X157056971Y-97340421D01*
X157579475Y-98810421D02*
X157056971Y-98810421D01*
%TO.C,C18*%
X152640000Y-91857836D02*
X152640000Y-91642164D01*
X153360000Y-91857836D02*
X153360000Y-91642164D01*
%TO.C,D1*%
X129153100Y-111235000D02*
X131438100Y-111235000D01*
X131438100Y-109765000D02*
X129153100Y-109765000D01*
X131438100Y-111235000D02*
X131438100Y-109765000D01*
%TO.C,C16*%
X134890000Y-97607836D02*
X134890000Y-97392164D01*
X135610000Y-97607836D02*
X135610000Y-97392164D01*
%TO.C,C12*%
X167140000Y-85607836D02*
X167140000Y-85392164D01*
X167860000Y-85607836D02*
X167860000Y-85392164D01*
%TO.C,R7*%
X132995985Y-99632188D02*
X133303267Y-99632188D01*
X132995985Y-100392188D02*
X133303267Y-100392188D01*
%TO.C,C4*%
X166740000Y-96609420D02*
X166740000Y-96890580D01*
X167760000Y-96609420D02*
X167760000Y-96890580D01*
%TO.C,J1*%
D13*
X144220000Y-78785000D02*
X144220000Y-82215000D01*
X153280000Y-82215000D02*
X153280000Y-78785000D01*
X153910000Y-78465000D02*
G75*
G02*
X153710000Y-78465000I-100000J0D01*
G01*
X153710000Y-78465000D02*
G75*
G02*
X153910000Y-78465000I100000J0D01*
G01*
%TO.C,R4*%
D11*
X141403641Y-101120000D02*
X141096359Y-101120000D01*
X141403641Y-101880000D02*
X141096359Y-101880000D01*
%TO.C,C9*%
X157142164Y-96140000D02*
X157357836Y-96140000D01*
X157142164Y-96860000D02*
X157357836Y-96860000D01*
%TO.C,C2*%
X144390000Y-88357836D02*
X144390000Y-88142164D01*
X145110000Y-88357836D02*
X145110000Y-88142164D01*
%TO.C,R10*%
X132607995Y-110116457D02*
X132915277Y-110116457D01*
X132607995Y-110876457D02*
X132915277Y-110876457D01*
%TO.C,C13*%
X147189379Y-94168179D02*
X147189379Y-94383851D01*
X147909379Y-94168179D02*
X147909379Y-94383851D01*
%TD*%
%LPC*%
D14*
%TO.C,U1*%
X154575000Y-85250000D03*
X154575000Y-85750000D03*
X154575000Y-86250000D03*
X154575000Y-86750000D03*
X154575000Y-87250000D03*
X154575000Y-87750000D03*
X154575000Y-88250000D03*
X154575000Y-88750000D03*
X154575000Y-89250000D03*
X154575000Y-89750000D03*
X154575000Y-90250000D03*
X154575000Y-90750000D03*
X154575000Y-91250000D03*
X154575000Y-91750000D03*
X154575000Y-92250000D03*
X154575000Y-92750000D03*
D15*
X156500000Y-94675000D03*
X157000000Y-94675000D03*
X157500000Y-94675000D03*
X158000000Y-94675000D03*
X158500000Y-94675000D03*
X159000000Y-94675000D03*
X159500000Y-94675000D03*
X160000000Y-94675000D03*
X160500000Y-94675000D03*
X161000000Y-94675000D03*
X161500000Y-94675000D03*
X162000000Y-94675000D03*
X162500000Y-94675000D03*
X163000000Y-94675000D03*
X163500000Y-94675000D03*
X164000000Y-94675000D03*
D14*
X165925000Y-92750000D03*
X165925000Y-92250000D03*
X165925000Y-91750000D03*
X165925000Y-91250000D03*
X165925000Y-90750000D03*
X165925000Y-90250000D03*
X165925000Y-89750000D03*
X165925000Y-89250000D03*
X165925000Y-88750000D03*
X165925000Y-88250000D03*
X165925000Y-87750000D03*
X165925000Y-87250000D03*
X165925000Y-86750000D03*
X165925000Y-86250000D03*
X165925000Y-85750000D03*
X165925000Y-85250000D03*
D15*
X164000000Y-83325000D03*
X163500000Y-83325000D03*
X163000000Y-83325000D03*
X162500000Y-83325000D03*
X162000000Y-83325000D03*
X161500000Y-83325000D03*
X161000000Y-83325000D03*
X160500000Y-83325000D03*
X160000000Y-83325000D03*
X159500000Y-83325000D03*
X159000000Y-83325000D03*
X158500000Y-83325000D03*
X158000000Y-83325000D03*
X157500000Y-83325000D03*
X157000000Y-83325000D03*
X156500000Y-83325000D03*
%TD*%
D16*
%TO.C,C14*%
X141718842Y-93856121D03*
X141718842Y-94816121D03*
%TD*%
D17*
%TO.C,C11*%
X157161252Y-81711872D03*
X156201252Y-81711872D03*
%TD*%
D18*
%TO.C,R1*%
X148004756Y-91738826D03*
X146984756Y-91738826D03*
%TD*%
D19*
%TO.C,J4*%
X130954400Y-95180000D03*
X127154401Y-95180000D03*
X130954400Y-103820000D03*
X127154401Y-103820000D03*
D20*
X131034401Y-99000001D03*
D21*
X131034401Y-101020000D03*
D22*
X131034401Y-102250000D03*
D20*
X131034401Y-99999999D03*
D21*
X131034284Y-97980064D03*
D22*
X131034284Y-96750064D03*
%TD*%
D23*
%TO.C,R8*%
X132446246Y-106500000D03*
X133466246Y-106500000D03*
%TD*%
D18*
%TO.C,R5*%
X138260000Y-96250000D03*
X137240000Y-96250000D03*
%TD*%
D16*
%TO.C,C10*%
X167547159Y-91740073D03*
X167547159Y-92700073D03*
%TD*%
D24*
%TO.C,U2*%
X136900000Y-98000000D03*
X136900000Y-98500000D03*
X136900000Y-99000000D03*
X136900000Y-99500000D03*
X136900000Y-100000000D03*
X141100000Y-100000000D03*
X141100000Y-99500000D03*
X141100000Y-99000000D03*
X141100000Y-98500000D03*
X141100000Y-98000000D03*
%TD*%
D25*
%TO.C,C1*%
X143093574Y-88724743D03*
X143093574Y-86824743D03*
%TD*%
D26*
%TO.C,U5*%
X143244100Y-93799999D03*
X143244100Y-94750000D03*
X143244100Y-95700001D03*
X146000000Y-95700001D03*
X146000000Y-93799999D03*
%TD*%
D27*
%TO.C,U4*%
X150750000Y-98562500D03*
X150250000Y-98562500D03*
X149750000Y-98562500D03*
X149250000Y-98562500D03*
D28*
X148562500Y-99250000D03*
X148562500Y-99750000D03*
X148562500Y-100250000D03*
X148562500Y-100750000D03*
D27*
X149250000Y-101437500D03*
X149750000Y-101437500D03*
X150250000Y-101437500D03*
X150750000Y-101437500D03*
D28*
X151437500Y-100750000D03*
X151437500Y-100250000D03*
X151437500Y-99750000D03*
X151437500Y-99250000D03*
D29*
X150000000Y-100000000D03*
%TD*%
D30*
%TO.C,BZ1*%
X162000000Y-106250000D03*
D31*
X152000000Y-106250000D03*
%TD*%
D32*
%TO.C,D4*%
X133499999Y-96487511D03*
X133499999Y-97887511D03*
%TD*%
D33*
%TO.C,R2*%
X149950000Y-90810000D03*
X149950000Y-89790000D03*
%TD*%
D34*
%TO.C,D2*%
X130922606Y-106000000D03*
X129047606Y-106000000D03*
%TD*%
D23*
%TO.C,R9*%
X132506274Y-108381147D03*
X133526274Y-108381147D03*
%TD*%
D35*
%TO.C,J2*%
X139000000Y-90950000D03*
D36*
X137000000Y-90950000D03*
%TD*%
D33*
%TO.C,R3*%
X143353970Y-78358003D03*
X143353970Y-77338003D03*
%TD*%
D23*
%TO.C,R6*%
X132629626Y-99012188D03*
X133649626Y-99012188D03*
%TD*%
D34*
%TO.C,D3*%
X130953774Y-108383650D03*
X129078774Y-108383650D03*
%TD*%
D16*
%TO.C,C15*%
X142750000Y-98270000D03*
X142750000Y-99230000D03*
%TD*%
D37*
%TO.C,C3*%
X165750000Y-95975000D03*
X165750000Y-97525000D03*
%TD*%
D25*
%TO.C,C5*%
X145500000Y-100262500D03*
X145500000Y-98362500D03*
%TD*%
D38*
%TO.C,C17*%
X152000000Y-92230000D03*
X152000000Y-91270000D03*
%TD*%
%TO.C,C6*%
X147250000Y-100542500D03*
X147250000Y-99582500D03*
%TD*%
D39*
%TO.C,U3*%
X146500000Y-90475000D03*
X147000000Y-90475000D03*
X147500000Y-90475000D03*
X148000000Y-90475000D03*
X148500000Y-90475000D03*
D40*
X148725000Y-89750000D03*
X148725000Y-89250000D03*
X148725000Y-88750000D03*
D39*
X148500000Y-88025000D03*
X148000000Y-88025000D03*
X147500000Y-88025000D03*
X147000000Y-88025000D03*
X146500000Y-88025000D03*
D40*
X146275000Y-88750000D03*
X146275000Y-89250000D03*
X146275000Y-89750000D03*
%TD*%
D41*
%TO.C,L1*%
X161687500Y-99500000D03*
X163812500Y-99500000D03*
%TD*%
D42*
%TO.C,C7*%
X161800000Y-97250000D03*
X163700000Y-97250000D03*
%TD*%
D43*
%TO.C,C8*%
X158268223Y-98075421D03*
X156368223Y-98075421D03*
%TD*%
D38*
%TO.C,C18*%
X153000000Y-92230000D03*
X153000000Y-91270000D03*
%TD*%
D44*
%TO.C,D1*%
X130740600Y-110500000D03*
X129165600Y-110500000D03*
%TD*%
D38*
%TO.C,C16*%
X135250000Y-97980000D03*
X135250000Y-97020000D03*
%TD*%
%TO.C,C12*%
X167500000Y-85980000D03*
X167500000Y-85020000D03*
%TD*%
D23*
%TO.C,R7*%
X132639626Y-100012188D03*
X133659626Y-100012188D03*
%TD*%
D37*
%TO.C,C4*%
X167250000Y-95975000D03*
X167250000Y-97525000D03*
%TD*%
D45*
%TO.C,J1*%
X151925000Y-80500000D03*
X145575000Y-80500000D03*
D46*
X152560000Y-78465000D03*
X152560000Y-82535000D03*
X151290000Y-78465000D03*
X151290000Y-82535000D03*
X150020000Y-78465000D03*
X150020000Y-82535000D03*
X148750000Y-78465000D03*
X148750000Y-82535000D03*
X147480000Y-78465000D03*
X147480000Y-82535000D03*
X146210000Y-78465000D03*
X146210000Y-82535000D03*
X144940000Y-78465000D03*
X144940000Y-82535000D03*
%TD*%
D18*
%TO.C,R4*%
X141760000Y-101500000D03*
X140740000Y-101500000D03*
%TD*%
D47*
%TO.C,REF\u002A\u002A*%
X171000000Y-96250000D03*
%TD*%
D48*
%TO.C,C9*%
X156770000Y-96500000D03*
X157730000Y-96500000D03*
%TD*%
D47*
%TO.C,REF\u002A\u002A*%
X131250000Y-90000000D03*
%TD*%
D38*
%TO.C,C2*%
X144750000Y-88730000D03*
X144750000Y-87770000D03*
%TD*%
D23*
%TO.C,R10*%
X132251636Y-110496457D03*
X133271636Y-110496457D03*
%TD*%
D16*
%TO.C,C13*%
X147549379Y-93796015D03*
X147549379Y-94756015D03*
%TD*%
D47*
%TO.C,REF\u002A\u002A*%
X144500000Y-120750000D03*
%TD*%
%LPD*%
M02*
