%TF.GenerationSoftware,KiCad,Pcbnew,10.0.3-10.0.3~ubuntu25.10.1*%
%TF.CreationDate,2026-05-30T12:31:28-07:00*%
%TF.ProjectId,chugjug,63687567-6a75-4672-9e6b-696361645f70,rev?*%
%TF.SameCoordinates,Original*%
%TF.FileFunction,Soldermask,Top*%
%TF.FilePolarity,Negative*%
%FSLAX46Y46*%
G04 Gerber Fmt 4.6, Leading zero omitted, Abs format (unit mm)*
G04 Created by KiCad (PCBNEW 10.0.3-10.0.3~ubuntu25.10.1) date 2026-05-30 12:31:28*
%MOMM*%
%LPD*%
G01*
G04 APERTURE LIST*
G04 Aperture macros list*
%AMRoundRect*
0 Rectangle with rounded corners*
0 $1 Rounding radius*
0 $2 $3 $4 $5 $6 $7 $8 $9 X,Y pos of 4 corners*
0 Add a 4 corners polygon primitive as box body*
4,1,4,$2,$3,$4,$5,$6,$7,$8,$9,$2,$3,0*
0 Add four circle primitives for the rounded corners*
1,1,$1+$1,$2,$3*
1,1,$1+$1,$4,$5*
1,1,$1+$1,$6,$7*
1,1,$1+$1,$8,$9*
0 Add four rect primitives between the rounded corners*
20,1,$1+$1,$2,$3,$4,$5,0*
20,1,$1+$1,$4,$5,$6,$7,0*
20,1,$1+$1,$6,$7,$8,$9,0*
20,1,$1+$1,$8,$9,$2,$3,0*%
G04 Aperture macros list end*
%ADD10RoundRect,0.075000X-0.700000X-0.075000X0.700000X-0.075000X0.700000X0.075000X-0.700000X0.075000X0*%
%ADD11RoundRect,0.075000X-0.075000X-0.700000X0.075000X-0.700000X0.075000X0.700000X-0.075000X0.700000X0*%
%ADD12RoundRect,0.140000X-0.170000X0.140000X-0.170000X-0.140000X0.170000X-0.140000X0.170000X0.140000X0*%
%ADD13RoundRect,0.140000X0.140000X0.170000X-0.140000X0.170000X-0.140000X-0.170000X0.140000X-0.170000X0*%
%ADD14RoundRect,0.135000X0.135000X0.185000X-0.135000X0.185000X-0.135000X-0.185000X0.135000X-0.185000X0*%
%ADD15O,1.701800X1.092200*%
%ADD16R,1.193800X0.711200*%
%ADD17R,1.193800X0.762000*%
%ADD18R,1.193800X0.812800*%
%ADD19RoundRect,0.135000X-0.135000X-0.185000X0.135000X-0.185000X0.135000X0.185000X-0.135000X0.185000X0*%
%ADD20RoundRect,0.087500X-0.662500X-0.087500X0.662500X-0.087500X0.662500X0.087500X-0.662500X0.087500X0*%
%ADD21RoundRect,0.250000X0.475000X-0.250000X0.475000X0.250000X-0.475000X0.250000X-0.475000X-0.250000X0*%
%ADD22R,1.003300X0.508000*%
%ADD23RoundRect,0.062500X-0.062500X0.350000X-0.062500X-0.350000X0.062500X-0.350000X0.062500X0.350000X0*%
%ADD24RoundRect,0.062500X-0.350000X0.062500X-0.350000X-0.062500X0.350000X-0.062500X0.350000X0.062500X0*%
%ADD25R,1.230000X1.230000*%
%ADD26R,2.000000X2.000000*%
%ADD27C,2.000000*%
%ADD28RoundRect,0.150000X0.200000X-0.150000X0.200000X0.150000X-0.200000X0.150000X-0.200000X-0.150000X0*%
%ADD29RoundRect,0.135000X0.185000X-0.135000X0.185000X0.135000X-0.185000X0.135000X-0.185000X-0.135000X0*%
%ADD30RoundRect,0.243750X0.243750X0.456250X-0.243750X0.456250X-0.243750X-0.456250X0.243750X-0.456250X0*%
%ADD31RoundRect,0.250000X0.350000X0.625000X-0.350000X0.625000X-0.350000X-0.625000X0.350000X-0.625000X0*%
%ADD32O,1.200000X1.750000*%
%ADD33RoundRect,0.225000X-0.250000X0.225000X-0.250000X-0.225000X0.250000X-0.225000X0.250000X0.225000X0*%
%ADD34RoundRect,0.140000X0.170000X-0.140000X0.170000X0.140000X-0.170000X0.140000X-0.170000X-0.140000X0*%
%ADD35RoundRect,0.087500X0.087500X-0.187500X0.087500X0.187500X-0.087500X0.187500X-0.087500X-0.187500X0*%
%ADD36RoundRect,0.087500X0.187500X-0.087500X0.187500X0.087500X-0.187500X0.087500X-0.187500X-0.087500X0*%
%ADD37RoundRect,0.218750X-0.218750X-0.381250X0.218750X-0.381250X0.218750X0.381250X-0.218750X0.381250X0*%
%ADD38RoundRect,0.250000X-0.250000X-0.475000X0.250000X-0.475000X0.250000X0.475000X-0.250000X0.475000X0*%
%ADD39RoundRect,0.250000X0.250000X0.475000X-0.250000X0.475000X-0.250000X-0.475000X0.250000X-0.475000X0*%
%ADD40RoundRect,0.218750X0.218750X0.256250X-0.218750X0.256250X-0.218750X-0.256250X0.218750X-0.256250X0*%
%ADD41RoundRect,0.102000X0.370000X1.395000X-0.370000X1.395000X-0.370000X-1.395000X0.370000X-1.395000X0*%
%ADD42RoundRect,0.140000X-0.140000X-0.170000X0.140000X-0.170000X0.140000X0.170000X-0.140000X0.170000X0*%
G04 APERTURE END LIST*
D10*
%TO.C,U1*%
X154575000Y-85250000D03*
X154575000Y-85750000D03*
X154575000Y-86250000D03*
X154575000Y-86750000D03*
X154575000Y-87250000D03*
X154575000Y-87750000D03*
X154575000Y-88250000D03*
X154575000Y-88750000D03*
X154575000Y-89250000D03*
X154575000Y-89750000D03*
X154575000Y-90250000D03*
X154575000Y-90750000D03*
X154575000Y-91250000D03*
X154575000Y-91750000D03*
X154575000Y-92250000D03*
X154575000Y-92750000D03*
D11*
X156500000Y-94675000D03*
X157000000Y-94675000D03*
X157500000Y-94675000D03*
X158000000Y-94675000D03*
X158500000Y-94675000D03*
X159000000Y-94675000D03*
X159500000Y-94675000D03*
X160000000Y-94675000D03*
X160500000Y-94675000D03*
X161000000Y-94675000D03*
X161500000Y-94675000D03*
X162000000Y-94675000D03*
X162500000Y-94675000D03*
X163000000Y-94675000D03*
X163500000Y-94675000D03*
X164000000Y-94675000D03*
D10*
X165925000Y-92750000D03*
X165925000Y-92250000D03*
X165925000Y-91750000D03*
X165925000Y-91250000D03*
X165925000Y-90750000D03*
X165925000Y-90250000D03*
X165925000Y-89750000D03*
X165925000Y-89250000D03*
X165925000Y-88750000D03*
X165925000Y-88250000D03*
X165925000Y-87750000D03*
X165925000Y-87250000D03*
X165925000Y-86750000D03*
X165925000Y-86250000D03*
X165925000Y-85750000D03*
X165925000Y-85250000D03*
D11*
X164000000Y-83325000D03*
X163500000Y-83325000D03*
X163000000Y-83325000D03*
X162500000Y-83325000D03*
X162000000Y-83325000D03*
X161500000Y-83325000D03*
X161000000Y-83325000D03*
X160500000Y-83325000D03*
X160000000Y-83325000D03*
X159500000Y-83325000D03*
X159000000Y-83325000D03*
X158500000Y-83325000D03*
X158000000Y-83325000D03*
X157500000Y-83325000D03*
X157000000Y-83325000D03*
X156500000Y-83325000D03*
%TD*%
D12*
%TO.C,C14*%
X141718842Y-93856121D03*
X141718842Y-94816121D03*
%TD*%
D13*
%TO.C,C11*%
X157161252Y-81711872D03*
X156201252Y-81711872D03*
%TD*%
D14*
%TO.C,R1*%
X148004756Y-91738826D03*
X146984756Y-91738826D03*
%TD*%
D15*
%TO.C,J4*%
X130954400Y-95180000D03*
X127154401Y-95180000D03*
X130954400Y-103820000D03*
X127154401Y-103820000D03*
D16*
X131034401Y-99000001D03*
D17*
X131034401Y-101020000D03*
D18*
X131034401Y-102250000D03*
D16*
X131034401Y-99999999D03*
D17*
X131034284Y-97980064D03*
D18*
X131034284Y-96750064D03*
%TD*%
D19*
%TO.C,R8*%
X132446246Y-106500000D03*
X133466246Y-106500000D03*
%TD*%
D14*
%TO.C,R5*%
X138260000Y-96250000D03*
X137240000Y-96250000D03*
%TD*%
D12*
%TO.C,C10*%
X167547159Y-91740073D03*
X167547159Y-92700073D03*
%TD*%
D20*
%TO.C,U2*%
X136900000Y-98000000D03*
X136900000Y-98500000D03*
X136900000Y-99000000D03*
X136900000Y-99500000D03*
X136900000Y-100000000D03*
X141100000Y-100000000D03*
X141100000Y-99500000D03*
X141100000Y-99000000D03*
X141100000Y-98500000D03*
X141100000Y-98000000D03*
%TD*%
D21*
%TO.C,C1*%
X143093574Y-88724743D03*
X143093574Y-86824743D03*
%TD*%
D22*
%TO.C,U5*%
X143244100Y-93799999D03*
X143244100Y-94750000D03*
X143244100Y-95700001D03*
X146000000Y-95700001D03*
X146000000Y-93799999D03*
%TD*%
D23*
%TO.C,U4*%
X150750000Y-98562500D03*
X150250000Y-98562500D03*
X149750000Y-98562500D03*
X149250000Y-98562500D03*
D24*
X148562500Y-99250000D03*
X148562500Y-99750000D03*
X148562500Y-100250000D03*
X148562500Y-100750000D03*
D23*
X149250000Y-101437500D03*
X149750000Y-101437500D03*
X150250000Y-101437500D03*
X150750000Y-101437500D03*
D24*
X151437500Y-100750000D03*
X151437500Y-100250000D03*
X151437500Y-99750000D03*
X151437500Y-99250000D03*
D25*
X150000000Y-100000000D03*
%TD*%
D26*
%TO.C,BZ1*%
X162000000Y-106250000D03*
D27*
X152000000Y-106250000D03*
%TD*%
D28*
%TO.C,D4*%
X133499999Y-96487511D03*
X133499999Y-97887511D03*
%TD*%
D29*
%TO.C,R2*%
X149950000Y-90810000D03*
X149950000Y-89790000D03*
%TD*%
D30*
%TO.C,D2*%
X130922606Y-106000000D03*
X129047606Y-106000000D03*
%TD*%
D19*
%TO.C,R9*%
X132506274Y-108381147D03*
X133526274Y-108381147D03*
%TD*%
D31*
%TO.C,J2*%
X139000000Y-90950000D03*
D32*
X137000000Y-90950000D03*
%TD*%
D29*
%TO.C,R3*%
X143353970Y-78358003D03*
X143353970Y-77338003D03*
%TD*%
D19*
%TO.C,R6*%
X132629626Y-99012188D03*
X133649626Y-99012188D03*
%TD*%
D30*
%TO.C,D3*%
X130953774Y-108383650D03*
X129078774Y-108383650D03*
%TD*%
D12*
%TO.C,C15*%
X142750000Y-98270000D03*
X142750000Y-99230000D03*
%TD*%
D33*
%TO.C,C3*%
X165750000Y-95975000D03*
X165750000Y-97525000D03*
%TD*%
D21*
%TO.C,C5*%
X145500000Y-100262500D03*
X145500000Y-98362500D03*
%TD*%
D34*
%TO.C,C17*%
X152000000Y-92230000D03*
X152000000Y-91270000D03*
%TD*%
%TO.C,C6*%
X147250000Y-100542500D03*
X147250000Y-99582500D03*
%TD*%
D35*
%TO.C,U3*%
X146500000Y-90475000D03*
X147000000Y-90475000D03*
X147500000Y-90475000D03*
X148000000Y-90475000D03*
X148500000Y-90475000D03*
D36*
X148725000Y-89750000D03*
X148725000Y-89250000D03*
X148725000Y-88750000D03*
D35*
X148500000Y-88025000D03*
X148000000Y-88025000D03*
X147500000Y-88025000D03*
X147000000Y-88025000D03*
X146500000Y-88025000D03*
D36*
X146275000Y-88750000D03*
X146275000Y-89250000D03*
X146275000Y-89750000D03*
%TD*%
D37*
%TO.C,L1*%
X161687500Y-99500000D03*
X163812500Y-99500000D03*
%TD*%
D38*
%TO.C,C7*%
X161800000Y-97250000D03*
X163700000Y-97250000D03*
%TD*%
D39*
%TO.C,C8*%
X158268223Y-98075421D03*
X156368223Y-98075421D03*
%TD*%
D34*
%TO.C,C18*%
X153000000Y-92230000D03*
X153000000Y-91270000D03*
%TD*%
D40*
%TO.C,D1*%
X130740600Y-110500000D03*
X129165600Y-110500000D03*
%TD*%
D34*
%TO.C,C16*%
X135250000Y-97980000D03*
X135250000Y-97020000D03*
%TD*%
%TO.C,C12*%
X167500000Y-85980000D03*
X167500000Y-85020000D03*
%TD*%
D19*
%TO.C,R7*%
X132639626Y-100012188D03*
X133659626Y-100012188D03*
%TD*%
D33*
%TO.C,C4*%
X167250000Y-95975000D03*
X167250000Y-97525000D03*
%TD*%
D41*
%TO.C,J1*%
X152560000Y-78465000D03*
X152560000Y-82535000D03*
X151290000Y-78465000D03*
X151290000Y-82535000D03*
X150020000Y-78465000D03*
X150020000Y-82535000D03*
X148750000Y-78465000D03*
X148750000Y-82535000D03*
X147480000Y-78465000D03*
X147480000Y-82535000D03*
X146210000Y-78465000D03*
X146210000Y-82535000D03*
X144940000Y-78465000D03*
X144940000Y-82535000D03*
%TD*%
D14*
%TO.C,R4*%
X141760000Y-101500000D03*
X140740000Y-101500000D03*
%TD*%
D42*
%TO.C,C9*%
X156770000Y-96500000D03*
X157730000Y-96500000D03*
%TD*%
D34*
%TO.C,C2*%
X144750000Y-88730000D03*
X144750000Y-87770000D03*
%TD*%
D19*
%TO.C,R10*%
X132251636Y-110496457D03*
X133271636Y-110496457D03*
%TD*%
D12*
%TO.C,C13*%
X147549379Y-93796015D03*
X147549379Y-94756015D03*
%TD*%
M02*
