%TF.GenerationSoftware,KiCad,Pcbnew,10.0.3-10.0.3~ubuntu25.10.1*%
%TF.CreationDate,2026-05-30T12:31:28-07:00*%
%TF.ProjectId,chugjug,63687567-6a75-4672-9e6b-696361645f70,rev?*%
%TF.SameCoordinates,Original*%
%TF.FileFunction,Copper,L3,Inr*%
%TF.FilePolarity,Positive*%
%FSLAX46Y46*%
G04 Gerber Fmt 4.6, Leading zero omitted, Abs format (unit mm)*
G04 Created by KiCad (PCBNEW 10.0.3-10.0.3~ubuntu25.10.1) date 2026-05-30 12:31:28*
%MOMM*%
%LPD*%
G01*
G04 APERTURE LIST*
G04 Aperture macros list*
%AMRoundRect*
0 Rectangle with rounded corners*
0 $1 Rounding radius*
0 $2 $3 $4 $5 $6 $7 $8 $9 X,Y pos of 4 corners*
0 Add a 4 corners polygon primitive as box body*
4,1,4,$2,$3,$4,$5,$6,$7,$8,$9,$2,$3,0*
0 Add four circle primitives for the rounded corners*
1,1,$1+$1,$2,$3*
1,1,$1+$1,$4,$5*
1,1,$1+$1,$6,$7*
1,1,$1+$1,$8,$9*
0 Add four rect primitives between the rounded corners*
20,1,$1+$1,$2,$3,$4,$5,0*
20,1,$1+$1,$4,$5,$6,$7,0*
20,1,$1+$1,$6,$7,$8,$9,0*
20,1,$1+$1,$8,$9,$2,$3,0*%
G04 Aperture macros list end*
%TA.AperFunction,WasherPad*%
%ADD10O,1.701800X1.092200*%
%TD*%
%TA.AperFunction,ComponentPad*%
%ADD11R,2.000000X2.000000*%
%TD*%
%TA.AperFunction,ComponentPad*%
%ADD12C,2.000000*%
%TD*%
%TA.AperFunction,ComponentPad*%
%ADD13RoundRect,0.250000X0.350000X0.625000X-0.350000X0.625000X-0.350000X-0.625000X0.350000X-0.625000X0*%
%TD*%
%TA.AperFunction,ComponentPad*%
%ADD14O,1.200000X1.750000*%
%TD*%
%TA.AperFunction,ViaPad*%
%ADD15C,0.600000*%
%TD*%
G04 APERTURE END LIST*
D10*
%TO.N,*%
%TO.C,J4*%
X130954400Y-95180000D03*
X127154401Y-95180000D03*
X130954400Y-103820000D03*
X127154401Y-103820000D03*
%TD*%
D11*
%TO.N,Net-(BZ1-+)*%
%TO.C,BZ1*%
X162000000Y-106250000D03*
D12*
%TO.N,Net-(BZ1--)*%
X152000000Y-106250000D03*
%TD*%
D13*
%TO.N,+BATT*%
%TO.C,J2*%
X139000000Y-90950000D03*
D14*
%TO.N,GND*%
X137000000Y-90950000D03*
%TD*%
D15*
%TO.N,3V3*%
X152620601Y-90660185D03*
X143120315Y-89566224D03*
X151368219Y-91270000D03*
X161796194Y-98318105D03*
X151291761Y-76518395D03*
X148203985Y-93796015D03*
X167500000Y-84393533D03*
X156201252Y-81075808D03*
X146375285Y-91735660D03*
X167547159Y-93309293D03*
X149950000Y-91650000D03*
X154350000Y-84000000D03*
X159113688Y-98080027D03*
%TO.N,/STLINK_UART_RX*%
X151049265Y-86049265D03*
X143500000Y-80250000D03*
%TO.N,GND*%
X152605731Y-99542985D03*
X163743279Y-98306715D03*
X140750000Y-102250000D03*
X152993732Y-92843283D03*
X148750000Y-76500000D03*
X140858259Y-94816121D03*
X145500000Y-97500000D03*
X156188809Y-96500000D03*
X142750000Y-99827934D03*
X153250000Y-89750000D03*
X150750000Y-102500000D03*
X150020000Y-76520000D03*
X148250000Y-87250000D03*
X136750000Y-100750000D03*
X143353970Y-79146030D03*
X151990740Y-92837014D03*
X165752992Y-98301491D03*
X149800000Y-88750000D03*
X144761789Y-87144330D03*
X148950000Y-91400000D03*
X132250000Y-102250000D03*
X137000000Y-93250000D03*
X134248286Y-96497429D03*
X149650000Y-97600000D03*
X168250000Y-86000000D03*
X143096822Y-86007451D03*
X136250000Y-96250000D03*
X146750000Y-87250000D03*
X167247032Y-98296267D03*
X167547015Y-91131345D03*
X135250000Y-96423833D03*
X148264995Y-94743279D03*
X134233580Y-99008951D03*
X155547424Y-98075421D03*
X164750000Y-94750000D03*
X157161252Y-81094964D03*
X134249251Y-100011943D03*
X147246309Y-98974165D03*
%TO.N,/I2S_BCLK*%
X167500000Y-89000000D03*
X152500000Y-98750000D03*
%TO.N,/I2S_LRCLK*%
X152500000Y-100500000D03*
X168250000Y-88500000D03*
%TO.N,/I2S_DATA*%
X151750000Y-97750000D03*
X168000000Y-87500000D03*
%TO.N,/SD_MODE*%
X148500000Y-97600000D03*
X167499936Y-86782228D03*
%TO.N,/STLINK_SWCLK*%
X164000000Y-81750000D03*
X149575735Y-84575735D03*
%TO.N,/STLINK_SWO*%
X162500000Y-80750000D03*
X148750000Y-84500000D03*
%TO.N,/LIS3DH_INT1*%
X160750000Y-81500000D03*
X147500000Y-86750000D03*
%TO.N,/LIS3DH_I2C1_SCL*%
X148000000Y-92500000D03*
X160000000Y-81000000D03*
%TO.N,/LIS3DH_I2C1_SDA*%
X158500000Y-81000000D03*
X151000000Y-89750000D03*
%TO.N,Net-(BZ1-+)*%
X162000000Y-103500000D03*
X148500000Y-102250000D03*
%TD*%
%TA.AperFunction,Conductor*%
%TO.N,3V3*%
G36*
X150489349Y-75205376D02*
G01*
X151457550Y-75243417D01*
X151462342Y-75243699D01*
X152428382Y-75319727D01*
X152433195Y-75320202D01*
X153395439Y-75434092D01*
X153400218Y-75434752D01*
X154357276Y-75586335D01*
X154362030Y-75587184D01*
X155312379Y-75776221D01*
X155317096Y-75777255D01*
X156259337Y-76003467D01*
X156263988Y-76004681D01*
X156906272Y-76185824D01*
X157196564Y-76267695D01*
X157201223Y-76269108D01*
X157254781Y-76286510D01*
X158122764Y-76568534D01*
X158127313Y-76570111D01*
X159036424Y-76905500D01*
X159040931Y-76907264D01*
X159936138Y-77278072D01*
X159940554Y-77280003D01*
X160509033Y-77542075D01*
X160820520Y-77685673D01*
X160824901Y-77687798D01*
X161283256Y-77921342D01*
X161688240Y-78127692D01*
X161692523Y-78129982D01*
X162537939Y-78603438D01*
X162542140Y-78605900D01*
X163368280Y-79112159D01*
X163372381Y-79114784D01*
X164178037Y-79653105D01*
X164182031Y-79655889D01*
X164965909Y-80225410D01*
X164969792Y-80228349D01*
X165097272Y-80328846D01*
X165730751Y-80828241D01*
X165734459Y-80831284D01*
X166471295Y-81460602D01*
X166474905Y-81463810D01*
X166924256Y-81879185D01*
X167186434Y-82121540D01*
X167189944Y-82124915D01*
X167875084Y-82810055D01*
X167878459Y-82813565D01*
X168536176Y-83525079D01*
X168539400Y-83528707D01*
X169168710Y-84265534D01*
X169171763Y-84269254D01*
X169415823Y-84578842D01*
X169771650Y-85030207D01*
X169774589Y-85034090D01*
X170344110Y-85817968D01*
X170346894Y-85821962D01*
X170885215Y-86627618D01*
X170887840Y-86631719D01*
X171394099Y-87457859D01*
X171396561Y-87462060D01*
X171870017Y-88307476D01*
X171872313Y-88311770D01*
X172312201Y-89175098D01*
X172314326Y-89179479D01*
X172719986Y-90059423D01*
X172721937Y-90063884D01*
X173092729Y-90959055D01*
X173094504Y-90963589D01*
X173429879Y-91872661D01*
X173431474Y-91877262D01*
X173730891Y-92798776D01*
X173732304Y-92803435D01*
X173995310Y-93735981D01*
X173996540Y-93740693D01*
X174222739Y-94682884D01*
X174223782Y-94687640D01*
X174412811Y-95637949D01*
X174413667Y-95642742D01*
X174565243Y-96599759D01*
X174565910Y-96604582D01*
X174679795Y-97566787D01*
X174680273Y-97571633D01*
X174756298Y-98537623D01*
X174756584Y-98542484D01*
X174778773Y-99107214D01*
X174792796Y-99464138D01*
X174794624Y-99510650D01*
X174794720Y-99515518D01*
X174794720Y-100484481D01*
X174794624Y-100489349D01*
X174756584Y-101457515D01*
X174756298Y-101462376D01*
X174680273Y-102428366D01*
X174679795Y-102433212D01*
X174565910Y-103395417D01*
X174565243Y-103400240D01*
X174413667Y-104357257D01*
X174412811Y-104362050D01*
X174223782Y-105312359D01*
X174222739Y-105317115D01*
X173996540Y-106259306D01*
X173995310Y-106264018D01*
X173732304Y-107196564D01*
X173730891Y-107201223D01*
X173431474Y-108122737D01*
X173429879Y-108127338D01*
X173094504Y-109036410D01*
X173092729Y-109040944D01*
X172721937Y-109936115D01*
X172719986Y-109940576D01*
X172314326Y-110820520D01*
X172312201Y-110824901D01*
X171872313Y-111688229D01*
X171870017Y-111692523D01*
X171396561Y-112537939D01*
X171394099Y-112542140D01*
X170887840Y-113368280D01*
X170885215Y-113372381D01*
X170346894Y-114178037D01*
X170344110Y-114182031D01*
X169774589Y-114965909D01*
X169771650Y-114969792D01*
X169171781Y-115730723D01*
X169168692Y-115734487D01*
X168539410Y-116471281D01*
X168536176Y-116474920D01*
X167878459Y-117186434D01*
X167875084Y-117189944D01*
X167189944Y-117875084D01*
X167186434Y-117878459D01*
X166474920Y-118536176D01*
X166471281Y-118539410D01*
X165734487Y-119168692D01*
X165730723Y-119171781D01*
X164969792Y-119771650D01*
X164965909Y-119774589D01*
X164182031Y-120344110D01*
X164178037Y-120346894D01*
X163372381Y-120885215D01*
X163368280Y-120887840D01*
X162542140Y-121394099D01*
X162537939Y-121396561D01*
X161692523Y-121870017D01*
X161688229Y-121872313D01*
X160824901Y-122312201D01*
X160820520Y-122314326D01*
X159940576Y-122719986D01*
X159936115Y-122721937D01*
X159040944Y-123092729D01*
X159036410Y-123094504D01*
X158127338Y-123429879D01*
X158122737Y-123431474D01*
X157201223Y-123730891D01*
X157196564Y-123732304D01*
X156264018Y-123995310D01*
X156259306Y-123996540D01*
X155317115Y-124222739D01*
X155312359Y-124223782D01*
X154362050Y-124412811D01*
X154357257Y-124413667D01*
X153400240Y-124565243D01*
X153395417Y-124565910D01*
X152433212Y-124679795D01*
X152428366Y-124680273D01*
X151462376Y-124756298D01*
X151457515Y-124756584D01*
X150489349Y-124794624D01*
X150484481Y-124794720D01*
X149515519Y-124794720D01*
X149510651Y-124794624D01*
X148542484Y-124756584D01*
X148537623Y-124756298D01*
X147571633Y-124680273D01*
X147566787Y-124679795D01*
X146604582Y-124565910D01*
X146599759Y-124565243D01*
X145642742Y-124413667D01*
X145637949Y-124412811D01*
X144687640Y-124223782D01*
X144682884Y-124222739D01*
X143740693Y-123996540D01*
X143735981Y-123995310D01*
X142803435Y-123732304D01*
X142798776Y-123730891D01*
X141877262Y-123431474D01*
X141872661Y-123429879D01*
X140963589Y-123094504D01*
X140959055Y-123092729D01*
X140063884Y-122721937D01*
X140059423Y-122719986D01*
X139179479Y-122314326D01*
X139175098Y-122312201D01*
X138311770Y-121872313D01*
X138307476Y-121870017D01*
X137462060Y-121396561D01*
X137457859Y-121394099D01*
X136631719Y-120887840D01*
X136627618Y-120885215D01*
X136419085Y-120745878D01*
X136272073Y-120647648D01*
X143199500Y-120647648D01*
X143199500Y-120852351D01*
X143231522Y-121054534D01*
X143294781Y-121249223D01*
X143358691Y-121374653D01*
X143369253Y-121395381D01*
X143387715Y-121431613D01*
X143508028Y-121597213D01*
X143652786Y-121741971D01*
X143807749Y-121854556D01*
X143818390Y-121862287D01*
X143934607Y-121921503D01*
X144000776Y-121955218D01*
X144000778Y-121955218D01*
X144000781Y-121955220D01*
X144105137Y-121989127D01*
X144195465Y-122018477D01*
X144296557Y-122034488D01*
X144397648Y-122050500D01*
X144397649Y-122050500D01*
X144602351Y-122050500D01*
X144602352Y-122050500D01*
X144804534Y-122018477D01*
X144999219Y-121955220D01*
X145181610Y-121862287D01*
X145342314Y-121745530D01*
X145347213Y-121741971D01*
X145347215Y-121741968D01*
X145347219Y-121741966D01*
X145491966Y-121597219D01*
X145491968Y-121597215D01*
X145491971Y-121597213D01*
X145544732Y-121524590D01*
X145612287Y-121431610D01*
X145705220Y-121249219D01*
X145768477Y-121054534D01*
X145800500Y-120852352D01*
X145800500Y-120647648D01*
X145768477Y-120445466D01*
X145705220Y-120250781D01*
X145705218Y-120250778D01*
X145705218Y-120250776D01*
X145671503Y-120184607D01*
X145612287Y-120068390D01*
X145604556Y-120057749D01*
X145491971Y-119902786D01*
X145347213Y-119758028D01*
X145181613Y-119637715D01*
X145181612Y-119637714D01*
X145181610Y-119637713D01*
X145124653Y-119608691D01*
X144999223Y-119544781D01*
X144804534Y-119481522D01*
X144629995Y-119453878D01*
X144602352Y-119449500D01*
X144397648Y-119449500D01*
X144373329Y-119453351D01*
X144195465Y-119481522D01*
X144000776Y-119544781D01*
X143818386Y-119637715D01*
X143652786Y-119758028D01*
X143508028Y-119902786D01*
X143387715Y-120068386D01*
X143294781Y-120250776D01*
X143231522Y-120445465D01*
X143199500Y-120647648D01*
X136272073Y-120647648D01*
X135821962Y-120346894D01*
X135817968Y-120344110D01*
X135034090Y-119774589D01*
X135030207Y-119771650D01*
X134621561Y-119449500D01*
X134269254Y-119171763D01*
X134265534Y-119168710D01*
X133528707Y-118539400D01*
X133525079Y-118536176D01*
X132813565Y-117878459D01*
X132810055Y-117875084D01*
X132124915Y-117189944D01*
X132121540Y-117186434D01*
X131711376Y-116742721D01*
X131463810Y-116474905D01*
X131460602Y-116471295D01*
X130831284Y-115734459D01*
X130828241Y-115730751D01*
X130228349Y-114969792D01*
X130225410Y-114965909D01*
X129655889Y-114182031D01*
X129653105Y-114178037D01*
X129114784Y-113372381D01*
X129112159Y-113368280D01*
X128605900Y-112542140D01*
X128603438Y-112537939D01*
X128129982Y-111692523D01*
X128127686Y-111688229D01*
X127687798Y-110824901D01*
X127685673Y-110820520D01*
X127353978Y-110101018D01*
X127280003Y-109940554D01*
X127278072Y-109936138D01*
X126907264Y-109040931D01*
X126905495Y-109036410D01*
X126570111Y-108127313D01*
X126568534Y-108122764D01*
X126269108Y-107201223D01*
X126267695Y-107196564D01*
X126099832Y-106601368D01*
X126004681Y-106263988D01*
X126003470Y-106259349D01*
X125972873Y-106131902D01*
X150499500Y-106131902D01*
X150499500Y-106368097D01*
X150536446Y-106601368D01*
X150609433Y-106825996D01*
X150716657Y-107036433D01*
X150855483Y-107227510D01*
X151022490Y-107394517D01*
X151213567Y-107533343D01*
X151312991Y-107584002D01*
X151424003Y-107640566D01*
X151424005Y-107640566D01*
X151424008Y-107640568D01*
X151544412Y-107679689D01*
X151648631Y-107713553D01*
X151881903Y-107750500D01*
X151881908Y-107750500D01*
X152118097Y-107750500D01*
X152351368Y-107713553D01*
X152575992Y-107640568D01*
X152786433Y-107533343D01*
X152977510Y-107394517D01*
X153144517Y-107227510D01*
X153283343Y-107036433D01*
X153390568Y-106825992D01*
X153463553Y-106601368D01*
X153500500Y-106368097D01*
X153500500Y-106131902D01*
X153463553Y-105898631D01*
X153390566Y-105674003D01*
X153283342Y-105463566D01*
X153238422Y-105401739D01*
X153144517Y-105272490D01*
X153074162Y-105202135D01*
X160499500Y-105202135D01*
X160499500Y-107297870D01*
X160499501Y-107297876D01*
X160505908Y-107357483D01*
X160556202Y-107492328D01*
X160556206Y-107492335D01*
X160642452Y-107607544D01*
X160642455Y-107607547D01*
X160757664Y-107693793D01*
X160757671Y-107693797D01*
X160892517Y-107744091D01*
X160892516Y-107744091D01*
X160899444Y-107744835D01*
X160952127Y-107750500D01*
X163047872Y-107750499D01*
X163107483Y-107744091D01*
X163242331Y-107693796D01*
X163357546Y-107607546D01*
X163443796Y-107492331D01*
X163494091Y-107357483D01*
X163500500Y-107297873D01*
X163500499Y-105202128D01*
X163494091Y-105142517D01*
X163480278Y-105105483D01*
X163443797Y-105007671D01*
X163443793Y-105007664D01*
X163357547Y-104892455D01*
X163357544Y-104892452D01*
X163242335Y-104806206D01*
X163242328Y-104806202D01*
X163107482Y-104755908D01*
X163107483Y-104755908D01*
X163047883Y-104749501D01*
X163047881Y-104749500D01*
X163047873Y-104749500D01*
X163047864Y-104749500D01*
X160952129Y-104749500D01*
X160952123Y-104749501D01*
X160892516Y-104755908D01*
X160757671Y-104806202D01*
X160757664Y-104806206D01*
X160642455Y-104892452D01*
X160642452Y-104892455D01*
X160556206Y-105007664D01*
X160556202Y-105007671D01*
X160505908Y-105142517D01*
X160499501Y-105202116D01*
X160499501Y-105202123D01*
X160499500Y-105202135D01*
X153074162Y-105202135D01*
X152977510Y-105105483D01*
X152786433Y-104966657D01*
X152575996Y-104859433D01*
X152351368Y-104786446D01*
X152118097Y-104749500D01*
X152118092Y-104749500D01*
X151881908Y-104749500D01*
X151881903Y-104749500D01*
X151648631Y-104786446D01*
X151424003Y-104859433D01*
X151213566Y-104966657D01*
X151157119Y-105007669D01*
X151022490Y-105105483D01*
X151022488Y-105105485D01*
X151022487Y-105105485D01*
X150855485Y-105272487D01*
X150855485Y-105272488D01*
X150855483Y-105272490D01*
X150824772Y-105314760D01*
X150716657Y-105463566D01*
X150609433Y-105674003D01*
X150536446Y-105898631D01*
X150499500Y-106131902D01*
X125972873Y-106131902D01*
X125777255Y-105317096D01*
X125776217Y-105312359D01*
X125768286Y-105272488D01*
X125587184Y-104362030D01*
X125586332Y-104357257D01*
X125579759Y-104315757D01*
X125484912Y-103716914D01*
X125803001Y-103716914D01*
X125803001Y-103923085D01*
X125843219Y-104125274D01*
X125843221Y-104125282D01*
X125922114Y-104315748D01*
X125922119Y-104315757D01*
X126036653Y-104487168D01*
X126036656Y-104487172D01*
X126182428Y-104632944D01*
X126182432Y-104632947D01*
X126353843Y-104747481D01*
X126353852Y-104747486D01*
X126358717Y-104749501D01*
X126544319Y-104826380D01*
X126710484Y-104859432D01*
X126746515Y-104866599D01*
X126746519Y-104866600D01*
X126746520Y-104866600D01*
X127562283Y-104866600D01*
X127562284Y-104866599D01*
X127764483Y-104826380D01*
X127954952Y-104747485D01*
X128126370Y-104632947D01*
X128272148Y-104487169D01*
X128386686Y-104315751D01*
X128465581Y-104125282D01*
X128505801Y-103923081D01*
X128505801Y-103716919D01*
X128505800Y-103716914D01*
X129603000Y-103716914D01*
X129603000Y-103923085D01*
X129643218Y-104125274D01*
X129643220Y-104125282D01*
X129722113Y-104315748D01*
X129722118Y-104315757D01*
X129836652Y-104487168D01*
X129836655Y-104487172D01*
X129982427Y-104632944D01*
X129982431Y-104632947D01*
X130153842Y-104747481D01*
X130153851Y-104747486D01*
X130158716Y-104749501D01*
X130344318Y-104826380D01*
X130510483Y-104859432D01*
X130546514Y-104866599D01*
X130546518Y-104866600D01*
X130546519Y-104866600D01*
X131362282Y-104866600D01*
X131362283Y-104866599D01*
X131564482Y-104826380D01*
X131754951Y-104747485D01*
X131926369Y-104632947D01*
X132072147Y-104487169D01*
X132186685Y-104315751D01*
X132265580Y-104125282D01*
X132305800Y-103923081D01*
X132305800Y-103716919D01*
X132265580Y-103514718D01*
X132226824Y-103421153D01*
X161199500Y-103421153D01*
X161199500Y-103578846D01*
X161230261Y-103733489D01*
X161230264Y-103733501D01*
X161290602Y-103879172D01*
X161290609Y-103879185D01*
X161378210Y-104010288D01*
X161378213Y-104010292D01*
X161489707Y-104121786D01*
X161489711Y-104121789D01*
X161620814Y-104209390D01*
X161620827Y-104209397D01*
X161766498Y-104269735D01*
X161766503Y-104269737D01*
X161921153Y-104300499D01*
X161921156Y-104300500D01*
X161921158Y-104300500D01*
X162078844Y-104300500D01*
X162078845Y-104300499D01*
X162233497Y-104269737D01*
X162379179Y-104209394D01*
X162510289Y-104121789D01*
X162621789Y-104010289D01*
X162709394Y-103879179D01*
X162769737Y-103733497D01*
X162800500Y-103578842D01*
X162800500Y-103421158D01*
X162800500Y-103421155D01*
X162800499Y-103421153D01*
X162769738Y-103266510D01*
X162769737Y-103266503D01*
X162722653Y-103152831D01*
X162709397Y-103120827D01*
X162709390Y-103120814D01*
X162621789Y-102989711D01*
X162621786Y-102989707D01*
X162510292Y-102878213D01*
X162510288Y-102878210D01*
X162379185Y-102790609D01*
X162379172Y-102790602D01*
X162233501Y-102730264D01*
X162233489Y-102730261D01*
X162078845Y-102699500D01*
X162078842Y-102699500D01*
X161921158Y-102699500D01*
X161921155Y-102699500D01*
X161766510Y-102730261D01*
X161766498Y-102730264D01*
X161620827Y-102790602D01*
X161620814Y-102790609D01*
X161489711Y-102878210D01*
X161489707Y-102878213D01*
X161378213Y-102989707D01*
X161378210Y-102989711D01*
X161290609Y-103120814D01*
X161290602Y-103120827D01*
X161230264Y-103266498D01*
X161230261Y-103266510D01*
X161199500Y-103421153D01*
X132226824Y-103421153D01*
X132186685Y-103324249D01*
X132186684Y-103324248D01*
X132186681Y-103324242D01*
X132132658Y-103243391D01*
X132111780Y-103176713D01*
X132130265Y-103109333D01*
X132182243Y-103062643D01*
X132235760Y-103050500D01*
X132328844Y-103050500D01*
X132328845Y-103050499D01*
X132483497Y-103019737D01*
X132629179Y-102959394D01*
X132760289Y-102871789D01*
X132871789Y-102760289D01*
X132959394Y-102629179D01*
X133019737Y-102483497D01*
X133050500Y-102328842D01*
X133050500Y-102171158D01*
X133050500Y-102171155D01*
X133050499Y-102171153D01*
X139949500Y-102171153D01*
X139949500Y-102328846D01*
X139980261Y-102483489D01*
X139980264Y-102483501D01*
X140040602Y-102629172D01*
X140040609Y-102629185D01*
X140128210Y-102760288D01*
X140128213Y-102760292D01*
X140239707Y-102871786D01*
X140239711Y-102871789D01*
X140370814Y-102959390D01*
X140370827Y-102959397D01*
X140516498Y-103019735D01*
X140516503Y-103019737D01*
X140671153Y-103050499D01*
X140671156Y-103050500D01*
X140671158Y-103050500D01*
X140828844Y-103050500D01*
X140828845Y-103050499D01*
X140983497Y-103019737D01*
X141129179Y-102959394D01*
X141260289Y-102871789D01*
X141371789Y-102760289D01*
X141459394Y-102629179D01*
X141519737Y-102483497D01*
X141550500Y-102328842D01*
X141550500Y-102171158D01*
X141550500Y-102171155D01*
X141550499Y-102171153D01*
X147699500Y-102171153D01*
X147699500Y-102328846D01*
X147730261Y-102483489D01*
X147730264Y-102483501D01*
X147790602Y-102629172D01*
X147790609Y-102629185D01*
X147878210Y-102760288D01*
X147878213Y-102760292D01*
X147989707Y-102871786D01*
X147989711Y-102871789D01*
X148120814Y-102959390D01*
X148120827Y-102959397D01*
X148266498Y-103019735D01*
X148266503Y-103019737D01*
X148421153Y-103050499D01*
X148421156Y-103050500D01*
X148421158Y-103050500D01*
X148578844Y-103050500D01*
X148578845Y-103050499D01*
X148733497Y-103019737D01*
X148879179Y-102959394D01*
X149010289Y-102871789D01*
X149121789Y-102760289D01*
X149209394Y-102629179D01*
X149269737Y-102483497D01*
X149282138Y-102421153D01*
X149949500Y-102421153D01*
X149949500Y-102578846D01*
X149980261Y-102733489D01*
X149980264Y-102733501D01*
X150040602Y-102879172D01*
X150040609Y-102879185D01*
X150128210Y-103010288D01*
X150128213Y-103010292D01*
X150239707Y-103121786D01*
X150239711Y-103121789D01*
X150370814Y-103209390D01*
X150370827Y-103209397D01*
X150508683Y-103266498D01*
X150516503Y-103269737D01*
X150671153Y-103300499D01*
X150671156Y-103300500D01*
X150671158Y-103300500D01*
X150828844Y-103300500D01*
X150828845Y-103300499D01*
X150839179Y-103298443D01*
X150864287Y-103293450D01*
X150864292Y-103293449D01*
X150949800Y-103276439D01*
X150983497Y-103269737D01*
X151129179Y-103209394D01*
X151260289Y-103121789D01*
X151371789Y-103010289D01*
X151459394Y-102879179D01*
X151519737Y-102733497D01*
X151550500Y-102578842D01*
X151550500Y-102421158D01*
X151550500Y-102421155D01*
X151550499Y-102421153D01*
X151519738Y-102266510D01*
X151519737Y-102266503D01*
X151480242Y-102171153D01*
X151459397Y-102120827D01*
X151459390Y-102120814D01*
X151371789Y-101989711D01*
X151371786Y-101989707D01*
X151260292Y-101878213D01*
X151260288Y-101878210D01*
X151129185Y-101790609D01*
X151129172Y-101790602D01*
X150983501Y-101730264D01*
X150983489Y-101730261D01*
X150828845Y-101699500D01*
X150828842Y-101699500D01*
X150671158Y-101699500D01*
X150671155Y-101699500D01*
X150516510Y-101730261D01*
X150516498Y-101730264D01*
X150370827Y-101790602D01*
X150370814Y-101790609D01*
X150239711Y-101878210D01*
X150239707Y-101878213D01*
X150128213Y-101989707D01*
X150128210Y-101989711D01*
X150040609Y-102120814D01*
X150040602Y-102120827D01*
X149980264Y-102266498D01*
X149980261Y-102266510D01*
X149949500Y-102421153D01*
X149282138Y-102421153D01*
X149288161Y-102390874D01*
X149300500Y-102328844D01*
X149300500Y-102171155D01*
X149300499Y-102171153D01*
X149269738Y-102016510D01*
X149269737Y-102016503D01*
X149269735Y-102016498D01*
X149209397Y-101870827D01*
X149209390Y-101870814D01*
X149121789Y-101739711D01*
X149121786Y-101739707D01*
X149010292Y-101628213D01*
X149010288Y-101628210D01*
X148879185Y-101540609D01*
X148879172Y-101540602D01*
X148733501Y-101480264D01*
X148733489Y-101480261D01*
X148578845Y-101449500D01*
X148578842Y-101449500D01*
X148421158Y-101449500D01*
X148421155Y-101449500D01*
X148266510Y-101480261D01*
X148266498Y-101480264D01*
X148120827Y-101540602D01*
X148120814Y-101540609D01*
X147989711Y-101628210D01*
X147989707Y-101628213D01*
X147878213Y-101739707D01*
X147878210Y-101739711D01*
X147790609Y-101870814D01*
X147790602Y-101870827D01*
X147730264Y-102016498D01*
X147730261Y-102016510D01*
X147699500Y-102171153D01*
X141550499Y-102171153D01*
X141519738Y-102016510D01*
X141519737Y-102016503D01*
X141519735Y-102016498D01*
X141459397Y-101870827D01*
X141459390Y-101870814D01*
X141371789Y-101739711D01*
X141371786Y-101739707D01*
X141260292Y-101628213D01*
X141260288Y-101628210D01*
X141129185Y-101540609D01*
X141129172Y-101540602D01*
X140983501Y-101480264D01*
X140983489Y-101480261D01*
X140828845Y-101449500D01*
X140828842Y-101449500D01*
X140671158Y-101449500D01*
X140671155Y-101449500D01*
X140516510Y-101480261D01*
X140516498Y-101480264D01*
X140370827Y-101540602D01*
X140370814Y-101540609D01*
X140239711Y-101628210D01*
X140239707Y-101628213D01*
X140128213Y-101739707D01*
X140128210Y-101739711D01*
X140040609Y-101870814D01*
X140040602Y-101870827D01*
X139980264Y-102016498D01*
X139980261Y-102016510D01*
X139949500Y-102171153D01*
X133050499Y-102171153D01*
X133019738Y-102016510D01*
X133019737Y-102016503D01*
X133019735Y-102016498D01*
X132959397Y-101870827D01*
X132959390Y-101870814D01*
X132871789Y-101739711D01*
X132871786Y-101739707D01*
X132760292Y-101628213D01*
X132760288Y-101628210D01*
X132629185Y-101540609D01*
X132629172Y-101540602D01*
X132483501Y-101480264D01*
X132483489Y-101480261D01*
X132328845Y-101449500D01*
X132328842Y-101449500D01*
X132171158Y-101449500D01*
X132171155Y-101449500D01*
X132016510Y-101480261D01*
X132016498Y-101480264D01*
X131870827Y-101540602D01*
X131870814Y-101540609D01*
X131739711Y-101628210D01*
X131739707Y-101628213D01*
X131628213Y-101739707D01*
X131628210Y-101739711D01*
X131540609Y-101870814D01*
X131540602Y-101870827D01*
X131480264Y-102016498D01*
X131480261Y-102016510D01*
X131449500Y-102171153D01*
X131449500Y-102328846D01*
X131477689Y-102470557D01*
X131480263Y-102483497D01*
X131519756Y-102578842D01*
X131532942Y-102610677D01*
X131540410Y-102680147D01*
X131509134Y-102742626D01*
X131449045Y-102778278D01*
X131394190Y-102779747D01*
X131362281Y-102773400D01*
X130546519Y-102773400D01*
X130546514Y-102773400D01*
X130344325Y-102813618D01*
X130344317Y-102813620D01*
X130153851Y-102892513D01*
X130153842Y-102892518D01*
X129982431Y-103007052D01*
X129982427Y-103007055D01*
X129836655Y-103152827D01*
X129836652Y-103152831D01*
X129722118Y-103324242D01*
X129722113Y-103324251D01*
X129643220Y-103514717D01*
X129643218Y-103514725D01*
X129603000Y-103716914D01*
X128505800Y-103716914D01*
X128465581Y-103514718D01*
X128386686Y-103324249D01*
X128386685Y-103324248D01*
X128386682Y-103324242D01*
X128272148Y-103152831D01*
X128272145Y-103152827D01*
X128126373Y-103007055D01*
X128126369Y-103007052D01*
X127954958Y-102892518D01*
X127954949Y-102892513D01*
X127764483Y-102813620D01*
X127764475Y-102813618D01*
X127562286Y-102773400D01*
X127562282Y-102773400D01*
X126746520Y-102773400D01*
X126746515Y-102773400D01*
X126544326Y-102813618D01*
X126544318Y-102813620D01*
X126353852Y-102892513D01*
X126353843Y-102892518D01*
X126182432Y-103007052D01*
X126182428Y-103007055D01*
X126036656Y-103152827D01*
X126036653Y-103152831D01*
X125922119Y-103324242D01*
X125922114Y-103324251D01*
X125843221Y-103514717D01*
X125843219Y-103514725D01*
X125803001Y-103716914D01*
X125484912Y-103716914D01*
X125434752Y-103400218D01*
X125434089Y-103395417D01*
X125422020Y-103293450D01*
X125320202Y-102433195D01*
X125319726Y-102428366D01*
X125319159Y-102421158D01*
X125243699Y-101462342D01*
X125243417Y-101457550D01*
X125205376Y-100489349D01*
X125205280Y-100484481D01*
X125205280Y-99515518D01*
X125205376Y-99510650D01*
X125207203Y-99464140D01*
X125228186Y-98930104D01*
X133433080Y-98930104D01*
X133433080Y-99087797D01*
X133463841Y-99242440D01*
X133463844Y-99242452D01*
X133524182Y-99388123D01*
X133524189Y-99388136D01*
X133567719Y-99453282D01*
X133588597Y-99519959D01*
X133570113Y-99587339D01*
X133567720Y-99591063D01*
X133539859Y-99632759D01*
X133539853Y-99632770D01*
X133479515Y-99778441D01*
X133479512Y-99778453D01*
X133448751Y-99933096D01*
X133448751Y-100090789D01*
X133479512Y-100245432D01*
X133479515Y-100245444D01*
X133539853Y-100391115D01*
X133539860Y-100391128D01*
X133627461Y-100522231D01*
X133627464Y-100522235D01*
X133738958Y-100633729D01*
X133738962Y-100633732D01*
X133870065Y-100721333D01*
X133870078Y-100721340D01*
X134015749Y-100781678D01*
X134015754Y-100781680D01*
X134170404Y-100812442D01*
X134170407Y-100812443D01*
X134170409Y-100812443D01*
X134328095Y-100812443D01*
X134328096Y-100812442D01*
X134482748Y-100781680D01*
X134628430Y-100721337D01*
X134703536Y-100671153D01*
X135949500Y-100671153D01*
X135949500Y-100828846D01*
X135980261Y-100983489D01*
X135980264Y-100983501D01*
X136040602Y-101129172D01*
X136040609Y-101129185D01*
X136128210Y-101260288D01*
X136128213Y-101260292D01*
X136239707Y-101371786D01*
X136239711Y-101371789D01*
X136370814Y-101459390D01*
X136370827Y-101459397D01*
X136516498Y-101519735D01*
X136516503Y-101519737D01*
X136671153Y-101550499D01*
X136671156Y-101550500D01*
X136671158Y-101550500D01*
X136828844Y-101550500D01*
X136828845Y-101550499D01*
X136983497Y-101519737D01*
X137129179Y-101459394D01*
X137260289Y-101371789D01*
X137371789Y-101260289D01*
X137459394Y-101129179D01*
X137519737Y-100983497D01*
X137550500Y-100828842D01*
X137550500Y-100671158D01*
X137550500Y-100671155D01*
X137550499Y-100671153D01*
X137543055Y-100633729D01*
X137519737Y-100516503D01*
X137480242Y-100421153D01*
X137459397Y-100370827D01*
X137459390Y-100370814D01*
X137371789Y-100239711D01*
X137371786Y-100239707D01*
X137260292Y-100128213D01*
X137260288Y-100128210D01*
X137129185Y-100040609D01*
X137129172Y-100040602D01*
X136983501Y-99980264D01*
X136983489Y-99980261D01*
X136828845Y-99949500D01*
X136828842Y-99949500D01*
X136671158Y-99949500D01*
X136671155Y-99949500D01*
X136516510Y-99980261D01*
X136516498Y-99980264D01*
X136370827Y-100040602D01*
X136370814Y-100040609D01*
X136239711Y-100128210D01*
X136239707Y-100128213D01*
X136128213Y-100239707D01*
X136128210Y-100239711D01*
X136040609Y-100370814D01*
X136040602Y-100370827D01*
X135980264Y-100516498D01*
X135980261Y-100516510D01*
X135949500Y-100671153D01*
X134703536Y-100671153D01*
X134759540Y-100633732D01*
X134764839Y-100628433D01*
X134815888Y-100577385D01*
X134871037Y-100522235D01*
X134871040Y-100522232D01*
X134958645Y-100391122D01*
X135018988Y-100245440D01*
X135049751Y-100090785D01*
X135049751Y-99933101D01*
X135049751Y-99933098D01*
X135049750Y-99933096D01*
X135018989Y-99778453D01*
X135018988Y-99778446D01*
X135018176Y-99776486D01*
X135006827Y-99749087D01*
X141949500Y-99749087D01*
X141949500Y-99906780D01*
X141980261Y-100061423D01*
X141980264Y-100061435D01*
X142040602Y-100207106D01*
X142040609Y-100207119D01*
X142128210Y-100338222D01*
X142128213Y-100338226D01*
X142239707Y-100449720D01*
X142239711Y-100449723D01*
X142370814Y-100537324D01*
X142370827Y-100537331D01*
X142471045Y-100578842D01*
X142516503Y-100597671D01*
X142671153Y-100628433D01*
X142671156Y-100628434D01*
X142671158Y-100628434D01*
X142828844Y-100628434D01*
X142828845Y-100628433D01*
X142983497Y-100597671D01*
X143129179Y-100537328D01*
X143260289Y-100449723D01*
X143371789Y-100338223D01*
X143459394Y-100207113D01*
X143519737Y-100061431D01*
X143550500Y-99906776D01*
X143550500Y-99749092D01*
X143550500Y-99749089D01*
X143550499Y-99749087D01*
X143537465Y-99683562D01*
X143519737Y-99594437D01*
X143519735Y-99594432D01*
X143459397Y-99448761D01*
X143459390Y-99448748D01*
X143371789Y-99317645D01*
X143371786Y-99317641D01*
X143260292Y-99206147D01*
X143260288Y-99206144D01*
X143129185Y-99118543D01*
X143129172Y-99118536D01*
X142983501Y-99058198D01*
X142983489Y-99058195D01*
X142828845Y-99027434D01*
X142828842Y-99027434D01*
X142671158Y-99027434D01*
X142671155Y-99027434D01*
X142516510Y-99058195D01*
X142516498Y-99058198D01*
X142370827Y-99118536D01*
X142370814Y-99118543D01*
X142239711Y-99206144D01*
X142239707Y-99206147D01*
X142128213Y-99317641D01*
X142128210Y-99317645D01*
X142040609Y-99448748D01*
X142040602Y-99448761D01*
X141980264Y-99594432D01*
X141980261Y-99594444D01*
X141949500Y-99749087D01*
X135006827Y-99749087D01*
X134958648Y-99632770D01*
X134958641Y-99632757D01*
X134915111Y-99567610D01*
X134894233Y-99500932D01*
X134912717Y-99433552D01*
X134915112Y-99429827D01*
X134942974Y-99388130D01*
X135003317Y-99242448D01*
X135034080Y-99087793D01*
X135034080Y-98930109D01*
X135027160Y-98895318D01*
X146445809Y-98895318D01*
X146445809Y-99053011D01*
X146476570Y-99207654D01*
X146476573Y-99207666D01*
X146536911Y-99353337D01*
X146536918Y-99353350D01*
X146624519Y-99484453D01*
X146624522Y-99484457D01*
X146736016Y-99595951D01*
X146736020Y-99595954D01*
X146867123Y-99683555D01*
X146867136Y-99683562D01*
X147012807Y-99743900D01*
X147012812Y-99743902D01*
X147167462Y-99774664D01*
X147167465Y-99774665D01*
X147167467Y-99774665D01*
X147325153Y-99774665D01*
X147325154Y-99774664D01*
X147479806Y-99743902D01*
X147625488Y-99683559D01*
X147756598Y-99595954D01*
X147868098Y-99484454D01*
X147955703Y-99353344D01*
X148016046Y-99207662D01*
X148046809Y-99053007D01*
X148046809Y-98895323D01*
X148046809Y-98895320D01*
X148046808Y-98895318D01*
X148030191Y-98811778D01*
X148016046Y-98740668D01*
X147991194Y-98680670D01*
X147955706Y-98594992D01*
X147955699Y-98594979D01*
X147868098Y-98463876D01*
X147868095Y-98463872D01*
X147756601Y-98352378D01*
X147756597Y-98352375D01*
X147625494Y-98264774D01*
X147625481Y-98264767D01*
X147479810Y-98204429D01*
X147479798Y-98204426D01*
X147325154Y-98173665D01*
X147325151Y-98173665D01*
X147167467Y-98173665D01*
X147167464Y-98173665D01*
X147012819Y-98204426D01*
X147012807Y-98204429D01*
X146867136Y-98264767D01*
X146867123Y-98264774D01*
X146736020Y-98352375D01*
X146736016Y-98352378D01*
X146624522Y-98463872D01*
X146624519Y-98463876D01*
X146536918Y-98594979D01*
X146536911Y-98594992D01*
X146476573Y-98740663D01*
X146476570Y-98740675D01*
X146445809Y-98895318D01*
X135027160Y-98895318D01*
X135003317Y-98775454D01*
X134970908Y-98697210D01*
X134942977Y-98629778D01*
X134942970Y-98629765D01*
X134855369Y-98498662D01*
X134855366Y-98498658D01*
X134743872Y-98387164D01*
X134743868Y-98387161D01*
X134612765Y-98299560D01*
X134612752Y-98299553D01*
X134467081Y-98239215D01*
X134467069Y-98239212D01*
X134312425Y-98208451D01*
X134312422Y-98208451D01*
X134154738Y-98208451D01*
X134154735Y-98208451D01*
X134000090Y-98239212D01*
X134000078Y-98239215D01*
X133854407Y-98299553D01*
X133854394Y-98299560D01*
X133723291Y-98387161D01*
X133723287Y-98387164D01*
X133611793Y-98498658D01*
X133611790Y-98498662D01*
X133524189Y-98629765D01*
X133524182Y-98629778D01*
X133463844Y-98775449D01*
X133463841Y-98775461D01*
X133433080Y-98930104D01*
X125228186Y-98930104D01*
X125243417Y-98542446D01*
X125243698Y-98537660D01*
X125319728Y-97571612D01*
X125320204Y-97566787D01*
X125320400Y-97565132D01*
X125337441Y-97421153D01*
X144699500Y-97421153D01*
X144699500Y-97578846D01*
X144730261Y-97733489D01*
X144730264Y-97733501D01*
X144790602Y-97879172D01*
X144790609Y-97879185D01*
X144878210Y-98010288D01*
X144878213Y-98010292D01*
X144989707Y-98121786D01*
X144989711Y-98121789D01*
X145120814Y-98209390D01*
X145120827Y-98209397D01*
X145254504Y-98264767D01*
X145266503Y-98269737D01*
X145416397Y-98299553D01*
X145421153Y-98300499D01*
X145421156Y-98300500D01*
X145421158Y-98300500D01*
X145578844Y-98300500D01*
X145578845Y-98300499D01*
X145733497Y-98269737D01*
X145879179Y-98209394D01*
X146010289Y-98121789D01*
X146121789Y-98010289D01*
X146209394Y-97879179D01*
X146269737Y-97733497D01*
X146300500Y-97578842D01*
X146300500Y-97521153D01*
X147699500Y-97521153D01*
X147699500Y-97678846D01*
X147730261Y-97833489D01*
X147730264Y-97833501D01*
X147790602Y-97979172D01*
X147790609Y-97979185D01*
X147878210Y-98110288D01*
X147878213Y-98110292D01*
X147989707Y-98221786D01*
X147989711Y-98221789D01*
X148120814Y-98309390D01*
X148120827Y-98309397D01*
X148224594Y-98352378D01*
X148266503Y-98369737D01*
X148421153Y-98400499D01*
X148421156Y-98400500D01*
X148421158Y-98400500D01*
X148578844Y-98400500D01*
X148578845Y-98400499D01*
X148733497Y-98369737D01*
X148879179Y-98309394D01*
X149006109Y-98224582D01*
X149072786Y-98203704D01*
X149140166Y-98222188D01*
X149143891Y-98224582D01*
X149270814Y-98309390D01*
X149270827Y-98309397D01*
X149374594Y-98352378D01*
X149416503Y-98369737D01*
X149571153Y-98400499D01*
X149571156Y-98400500D01*
X149571158Y-98400500D01*
X149728844Y-98400500D01*
X149728845Y-98400499D01*
X149883497Y-98369737D01*
X150029179Y-98309394D01*
X150160289Y-98221789D01*
X150271789Y-98110289D01*
X150359394Y-97979179D01*
X150419737Y-97833497D01*
X150450500Y-97678842D01*
X150450500Y-97671153D01*
X150949500Y-97671153D01*
X150949500Y-97828846D01*
X150980261Y-97983489D01*
X150980264Y-97983501D01*
X151040602Y-98129172D01*
X151040609Y-98129185D01*
X151128210Y-98260288D01*
X151128213Y-98260292D01*
X151239707Y-98371786D01*
X151239711Y-98371789D01*
X151370814Y-98459390D01*
X151370827Y-98459397D01*
X151465613Y-98498658D01*
X151516503Y-98519737D01*
X151562914Y-98528968D01*
X151600382Y-98536422D01*
X151662293Y-98568807D01*
X151696867Y-98629522D01*
X151699253Y-98665066D01*
X151699500Y-98665066D01*
X151699500Y-98668743D01*
X151699596Y-98670174D01*
X151699500Y-98671150D01*
X151699500Y-98828846D01*
X151730261Y-98983489D01*
X151730264Y-98983501D01*
X151790602Y-99129171D01*
X151790604Y-99129176D01*
X151790606Y-99129179D01*
X151813747Y-99163813D01*
X151827907Y-99185004D01*
X151848784Y-99251681D01*
X151839367Y-99301342D01*
X151835995Y-99309483D01*
X151835992Y-99309490D01*
X151805231Y-99464138D01*
X151805231Y-99621831D01*
X151835992Y-99776474D01*
X151835995Y-99776486D01*
X151881308Y-99885882D01*
X151888777Y-99955351D01*
X151869849Y-100002225D01*
X151790609Y-100120814D01*
X151790602Y-100120827D01*
X151730264Y-100266498D01*
X151730261Y-100266510D01*
X151699500Y-100421153D01*
X151699500Y-100578846D01*
X151730261Y-100733489D01*
X151730264Y-100733501D01*
X151790602Y-100879172D01*
X151790609Y-100879185D01*
X151878210Y-101010288D01*
X151878213Y-101010292D01*
X151989707Y-101121786D01*
X151989711Y-101121789D01*
X152120814Y-101209390D01*
X152120827Y-101209397D01*
X152266498Y-101269735D01*
X152266503Y-101269737D01*
X152421153Y-101300499D01*
X152421156Y-101300500D01*
X152421158Y-101300500D01*
X152578844Y-101300500D01*
X152578845Y-101300499D01*
X152733497Y-101269737D01*
X152879179Y-101209394D01*
X153010289Y-101121789D01*
X153121789Y-101010289D01*
X153209394Y-100879179D01*
X153269737Y-100733497D01*
X153300500Y-100578842D01*
X153300500Y-100421158D01*
X153300500Y-100421155D01*
X153300499Y-100421153D01*
X153290486Y-100370814D01*
X153269737Y-100266503D01*
X153224421Y-100157101D01*
X153216953Y-100087635D01*
X153235880Y-100040762D01*
X153315125Y-99922164D01*
X153375468Y-99776482D01*
X153406231Y-99621827D01*
X153406231Y-99464143D01*
X153406231Y-99464140D01*
X153406230Y-99464138D01*
X153391111Y-99388130D01*
X153375468Y-99309488D01*
X153332662Y-99206144D01*
X153315128Y-99163813D01*
X153315127Y-99163812D01*
X153315125Y-99163806D01*
X153277821Y-99107976D01*
X153256945Y-99041305D01*
X153266365Y-98991636D01*
X153269737Y-98983497D01*
X153300500Y-98828842D01*
X153300500Y-98671158D01*
X153300500Y-98671155D01*
X153300499Y-98671153D01*
X153292218Y-98629522D01*
X153269737Y-98516503D01*
X153262347Y-98498662D01*
X153209397Y-98370827D01*
X153209390Y-98370814D01*
X153121789Y-98239711D01*
X153121786Y-98239707D01*
X153010292Y-98128213D01*
X153010288Y-98128210D01*
X152958474Y-98093589D01*
X152879185Y-98040609D01*
X152879172Y-98040602D01*
X152772877Y-97996574D01*
X154746924Y-97996574D01*
X154746924Y-98154267D01*
X154777685Y-98308910D01*
X154777688Y-98308922D01*
X154838026Y-98454593D01*
X154838033Y-98454606D01*
X154925634Y-98585709D01*
X154925637Y-98585713D01*
X155037131Y-98697207D01*
X155037135Y-98697210D01*
X155168238Y-98784811D01*
X155168251Y-98784818D01*
X155274536Y-98828842D01*
X155313927Y-98845158D01*
X155468577Y-98875920D01*
X155468580Y-98875921D01*
X155468582Y-98875921D01*
X155626268Y-98875921D01*
X155626269Y-98875920D01*
X155780921Y-98845158D01*
X155926603Y-98784815D01*
X156057713Y-98697210D01*
X156169213Y-98585710D01*
X156256818Y-98454600D01*
X156317161Y-98308918D01*
X156333283Y-98227868D01*
X162942779Y-98227868D01*
X162942779Y-98385561D01*
X162973540Y-98540204D01*
X162973543Y-98540216D01*
X163033881Y-98685887D01*
X163033888Y-98685900D01*
X163121489Y-98817003D01*
X163121492Y-98817007D01*
X163232986Y-98928501D01*
X163232990Y-98928504D01*
X163364093Y-99016105D01*
X163364106Y-99016112D01*
X163497165Y-99071226D01*
X163509782Y-99076452D01*
X163664432Y-99107214D01*
X163664435Y-99107215D01*
X163664437Y-99107215D01*
X163822123Y-99107215D01*
X163822124Y-99107214D01*
X163976776Y-99076452D01*
X164122458Y-99016109D01*
X164253568Y-98928504D01*
X164365068Y-98817004D01*
X164452673Y-98685894D01*
X164513016Y-98540212D01*
X164543779Y-98385557D01*
X164543779Y-98227873D01*
X164543779Y-98227869D01*
X164542740Y-98222644D01*
X164952492Y-98222644D01*
X164952492Y-98380337D01*
X164983253Y-98534980D01*
X164983256Y-98534992D01*
X165043594Y-98680663D01*
X165043601Y-98680676D01*
X165131202Y-98811779D01*
X165131205Y-98811783D01*
X165242699Y-98923277D01*
X165242703Y-98923280D01*
X165373806Y-99010881D01*
X165373819Y-99010888D01*
X165506878Y-99066002D01*
X165519495Y-99071228D01*
X165674145Y-99101990D01*
X165674148Y-99101991D01*
X165674150Y-99101991D01*
X165831836Y-99101991D01*
X165831837Y-99101990D01*
X165986489Y-99071228D01*
X166132171Y-99010885D01*
X166263281Y-98923280D01*
X166374781Y-98811780D01*
X166398654Y-98776050D01*
X166452265Y-98731245D01*
X166521590Y-98722536D01*
X166584618Y-98752690D01*
X166604857Y-98776047D01*
X166610716Y-98784815D01*
X166625244Y-98806558D01*
X166736739Y-98918053D01*
X166736743Y-98918056D01*
X166867846Y-99005657D01*
X166867859Y-99005664D01*
X167013530Y-99066002D01*
X167013535Y-99066004D01*
X167168185Y-99096766D01*
X167168188Y-99096767D01*
X167168190Y-99096767D01*
X167325876Y-99096767D01*
X167325877Y-99096766D01*
X167480529Y-99066004D01*
X167626211Y-99005661D01*
X167757321Y-98918056D01*
X167868821Y-98806556D01*
X167956426Y-98675446D01*
X167958206Y-98671150D01*
X167993594Y-98585713D01*
X168016769Y-98529764D01*
X168047532Y-98375109D01*
X168047532Y-98217425D01*
X168047532Y-98217422D01*
X168047531Y-98217420D01*
X168045935Y-98209397D01*
X168016769Y-98062770D01*
X168007590Y-98040609D01*
X167956429Y-97917094D01*
X167956422Y-97917081D01*
X167868821Y-97785978D01*
X167868818Y-97785974D01*
X167757324Y-97674480D01*
X167757320Y-97674477D01*
X167626217Y-97586876D01*
X167626204Y-97586869D01*
X167480533Y-97526531D01*
X167480521Y-97526528D01*
X167325877Y-97495767D01*
X167325874Y-97495767D01*
X167168190Y-97495767D01*
X167168187Y-97495767D01*
X167013542Y-97526528D01*
X167013530Y-97526531D01*
X166867859Y-97586869D01*
X166867846Y-97586876D01*
X166736743Y-97674477D01*
X166736739Y-97674480D01*
X166625243Y-97785976D01*
X166601367Y-97821709D01*
X166547753Y-97866513D01*
X166478428Y-97875219D01*
X166415401Y-97845063D01*
X166395164Y-97821706D01*
X166374784Y-97791206D01*
X166374778Y-97791198D01*
X166263284Y-97679704D01*
X166263280Y-97679701D01*
X166132177Y-97592100D01*
X166132164Y-97592093D01*
X165986493Y-97531755D01*
X165986481Y-97531752D01*
X165831837Y-97500991D01*
X165831834Y-97500991D01*
X165674150Y-97500991D01*
X165674147Y-97500991D01*
X165519502Y-97531752D01*
X165519490Y-97531755D01*
X165373819Y-97592093D01*
X165373806Y-97592100D01*
X165242703Y-97679701D01*
X165242699Y-97679704D01*
X165131205Y-97791198D01*
X165131202Y-97791202D01*
X165043601Y-97922305D01*
X165043594Y-97922318D01*
X164983256Y-98067989D01*
X164983253Y-98068001D01*
X164952492Y-98222644D01*
X164542740Y-98222644D01*
X164522677Y-98121786D01*
X164513016Y-98073218D01*
X164487053Y-98010537D01*
X164452676Y-97927542D01*
X164452669Y-97927529D01*
X164365068Y-97796426D01*
X164365065Y-97796422D01*
X164253571Y-97684928D01*
X164253567Y-97684925D01*
X164122464Y-97597324D01*
X164122451Y-97597317D01*
X163976780Y-97536979D01*
X163976768Y-97536976D01*
X163822124Y-97506215D01*
X163822121Y-97506215D01*
X163664437Y-97506215D01*
X163664434Y-97506215D01*
X163509789Y-97536976D01*
X163509777Y-97536979D01*
X163364106Y-97597317D01*
X163364093Y-97597324D01*
X163232990Y-97684925D01*
X163232986Y-97684928D01*
X163121492Y-97796422D01*
X163121489Y-97796426D01*
X163033888Y-97927529D01*
X163033881Y-97927542D01*
X162973543Y-98073213D01*
X162973540Y-98073225D01*
X162942779Y-98227868D01*
X156333283Y-98227868D01*
X156336958Y-98209394D01*
X156339306Y-98197590D01*
X156339306Y-98197589D01*
X156347924Y-98154265D01*
X156347924Y-97996576D01*
X156347923Y-97996574D01*
X156344679Y-97980264D01*
X156317161Y-97841924D01*
X156313672Y-97833501D01*
X156256821Y-97696248D01*
X156256814Y-97696235D01*
X156169213Y-97565132D01*
X156169210Y-97565128D01*
X156116263Y-97512181D01*
X156082778Y-97450858D01*
X156087762Y-97381166D01*
X156129634Y-97325233D01*
X156195098Y-97300816D01*
X156203944Y-97300500D01*
X156267653Y-97300500D01*
X156267654Y-97300499D01*
X156422306Y-97269737D01*
X156540401Y-97220821D01*
X156567981Y-97209397D01*
X156567981Y-97209396D01*
X156567988Y-97209394D01*
X156699098Y-97121789D01*
X156810598Y-97010289D01*
X156898203Y-96879179D01*
X156899266Y-96876614D01*
X156918464Y-96830264D01*
X156958546Y-96733497D01*
X156989309Y-96578842D01*
X156989309Y-96421158D01*
X156989309Y-96421155D01*
X156989308Y-96421153D01*
X156983727Y-96393097D01*
X156958546Y-96266503D01*
X156909315Y-96147648D01*
X169699500Y-96147648D01*
X169699500Y-96352351D01*
X169731522Y-96554534D01*
X169794781Y-96749223D01*
X169857231Y-96871786D01*
X169866820Y-96890606D01*
X169887715Y-96931613D01*
X170008028Y-97097213D01*
X170152786Y-97241971D01*
X170240483Y-97305685D01*
X170318390Y-97362287D01*
X170433921Y-97421153D01*
X170500776Y-97455218D01*
X170500778Y-97455218D01*
X170500781Y-97455220D01*
X170605137Y-97489127D01*
X170695465Y-97518477D01*
X170796557Y-97534488D01*
X170897648Y-97550500D01*
X170897649Y-97550500D01*
X171102351Y-97550500D01*
X171102352Y-97550500D01*
X171304534Y-97518477D01*
X171499219Y-97455220D01*
X171681610Y-97362287D01*
X171808994Y-97269738D01*
X171847213Y-97241971D01*
X171847215Y-97241968D01*
X171847219Y-97241966D01*
X171991966Y-97097219D01*
X171991968Y-97097215D01*
X171991971Y-97097213D01*
X172048259Y-97019738D01*
X172112287Y-96931610D01*
X172205220Y-96749219D01*
X172268477Y-96554534D01*
X172300500Y-96352352D01*
X172300500Y-96147648D01*
X172294138Y-96107481D01*
X172268477Y-95945465D01*
X172218160Y-95790606D01*
X172205220Y-95750781D01*
X172205218Y-95750778D01*
X172205218Y-95750776D01*
X172142767Y-95628211D01*
X172112287Y-95568390D01*
X172094406Y-95543779D01*
X171991971Y-95402786D01*
X171847213Y-95258028D01*
X171681613Y-95137715D01*
X171681612Y-95137714D01*
X171681610Y-95137713D01*
X171624653Y-95108691D01*
X171499223Y-95044781D01*
X171304534Y-94981522D01*
X171129995Y-94953878D01*
X171102352Y-94949500D01*
X170897648Y-94949500D01*
X170873329Y-94953351D01*
X170695465Y-94981522D01*
X170500776Y-95044781D01*
X170318386Y-95137715D01*
X170152786Y-95258028D01*
X170008028Y-95402786D01*
X169887715Y-95568386D01*
X169794781Y-95750776D01*
X169731522Y-95945465D01*
X169699500Y-96147648D01*
X156909315Y-96147648D01*
X156898203Y-96120821D01*
X156898201Y-96120818D01*
X156898199Y-96120814D01*
X156810598Y-95989711D01*
X156810595Y-95989707D01*
X156699101Y-95878213D01*
X156699097Y-95878210D01*
X156567994Y-95790609D01*
X156567981Y-95790602D01*
X156422310Y-95730264D01*
X156422298Y-95730261D01*
X156267654Y-95699500D01*
X156267651Y-95699500D01*
X156109967Y-95699500D01*
X156109964Y-95699500D01*
X155955319Y-95730261D01*
X155955307Y-95730264D01*
X155809636Y-95790602D01*
X155809623Y-95790609D01*
X155678520Y-95878210D01*
X155678516Y-95878213D01*
X155567022Y-95989707D01*
X155567019Y-95989711D01*
X155479418Y-96120814D01*
X155479411Y-96120827D01*
X155419073Y-96266498D01*
X155419070Y-96266510D01*
X155388309Y-96421153D01*
X155388309Y-96578846D01*
X155419070Y-96733489D01*
X155419073Y-96733501D01*
X155479411Y-96879172D01*
X155479418Y-96879185D01*
X155567019Y-97010288D01*
X155567022Y-97010292D01*
X155619970Y-97063240D01*
X155653455Y-97124563D01*
X155648471Y-97194255D01*
X155606599Y-97250188D01*
X155541135Y-97274605D01*
X155532289Y-97274921D01*
X155468579Y-97274921D01*
X155313934Y-97305682D01*
X155313922Y-97305685D01*
X155168251Y-97366023D01*
X155168238Y-97366030D01*
X155037135Y-97453631D01*
X155037131Y-97453634D01*
X154925637Y-97565128D01*
X154925634Y-97565132D01*
X154838033Y-97696235D01*
X154838026Y-97696248D01*
X154777688Y-97841919D01*
X154777685Y-97841931D01*
X154746924Y-97996574D01*
X152772877Y-97996574D01*
X152733501Y-97980264D01*
X152733491Y-97980261D01*
X152649616Y-97963577D01*
X152587705Y-97931192D01*
X152553131Y-97870476D01*
X152550749Y-97834934D01*
X152550500Y-97834934D01*
X152550500Y-97831223D01*
X152550405Y-97829806D01*
X152550500Y-97828841D01*
X152550500Y-97671155D01*
X152550499Y-97671153D01*
X152534774Y-97592100D01*
X152519737Y-97516503D01*
X152463679Y-97381166D01*
X152459397Y-97370827D01*
X152459390Y-97370814D01*
X152371789Y-97239711D01*
X152371786Y-97239707D01*
X152260292Y-97128213D01*
X152260288Y-97128210D01*
X152129185Y-97040609D01*
X152129172Y-97040602D01*
X151983501Y-96980264D01*
X151983489Y-96980261D01*
X151828845Y-96949500D01*
X151828842Y-96949500D01*
X151671158Y-96949500D01*
X151671155Y-96949500D01*
X151516510Y-96980261D01*
X151516498Y-96980264D01*
X151370827Y-97040602D01*
X151370814Y-97040609D01*
X151239711Y-97128210D01*
X151239707Y-97128213D01*
X151128213Y-97239707D01*
X151128210Y-97239711D01*
X151040609Y-97370814D01*
X151040602Y-97370827D01*
X150980264Y-97516498D01*
X150980261Y-97516510D01*
X150949500Y-97671153D01*
X150450500Y-97671153D01*
X150450500Y-97521158D01*
X150450500Y-97521155D01*
X150450499Y-97521153D01*
X150447528Y-97506215D01*
X150419737Y-97366503D01*
X150417991Y-97362287D01*
X150359397Y-97220827D01*
X150359390Y-97220814D01*
X150271789Y-97089711D01*
X150271786Y-97089707D01*
X150160292Y-96978213D01*
X150160288Y-96978210D01*
X150029185Y-96890609D01*
X150029172Y-96890602D01*
X149883501Y-96830264D01*
X149883489Y-96830261D01*
X149728845Y-96799500D01*
X149728842Y-96799500D01*
X149571158Y-96799500D01*
X149571155Y-96799500D01*
X149416510Y-96830261D01*
X149416498Y-96830264D01*
X149270827Y-96890602D01*
X149270814Y-96890609D01*
X149143891Y-96975417D01*
X149077213Y-96996295D01*
X149009833Y-96977810D01*
X149006109Y-96975417D01*
X148879185Y-96890609D01*
X148879172Y-96890602D01*
X148733501Y-96830264D01*
X148733489Y-96830261D01*
X148578845Y-96799500D01*
X148578842Y-96799500D01*
X148421158Y-96799500D01*
X148421155Y-96799500D01*
X148266510Y-96830261D01*
X148266498Y-96830264D01*
X148120827Y-96890602D01*
X148120814Y-96890609D01*
X147989711Y-96978210D01*
X147989707Y-96978213D01*
X147878213Y-97089707D01*
X147878210Y-97089711D01*
X147790609Y-97220814D01*
X147790602Y-97220827D01*
X147730264Y-97366498D01*
X147730261Y-97366510D01*
X147699500Y-97521153D01*
X146300500Y-97521153D01*
X146300500Y-97421158D01*
X146300500Y-97421155D01*
X146300499Y-97421153D01*
X146277531Y-97305685D01*
X146269737Y-97266503D01*
X146259574Y-97241966D01*
X146209397Y-97120827D01*
X146209390Y-97120814D01*
X146121789Y-96989711D01*
X146121786Y-96989707D01*
X146010292Y-96878213D01*
X146010288Y-96878210D01*
X145879185Y-96790609D01*
X145879172Y-96790602D01*
X145733501Y-96730264D01*
X145733489Y-96730261D01*
X145578845Y-96699500D01*
X145578842Y-96699500D01*
X145421158Y-96699500D01*
X145421155Y-96699500D01*
X145266510Y-96730261D01*
X145266498Y-96730264D01*
X145120827Y-96790602D01*
X145120814Y-96790609D01*
X144989711Y-96878210D01*
X144989707Y-96878213D01*
X144878213Y-96989707D01*
X144878210Y-96989711D01*
X144790609Y-97120814D01*
X144790602Y-97120827D01*
X144730264Y-97266498D01*
X144730261Y-97266510D01*
X144699500Y-97421153D01*
X125337441Y-97421153D01*
X125434092Y-96604553D01*
X125434751Y-96599788D01*
X125463451Y-96418582D01*
X133447786Y-96418582D01*
X133447786Y-96576275D01*
X133478547Y-96730918D01*
X133478550Y-96730930D01*
X133538888Y-96876601D01*
X133538895Y-96876614D01*
X133626496Y-97007717D01*
X133626499Y-97007721D01*
X133737993Y-97119215D01*
X133737997Y-97119218D01*
X133869100Y-97206819D01*
X133869113Y-97206826D01*
X133948506Y-97239711D01*
X134014789Y-97267166D01*
X134146922Y-97293449D01*
X134169439Y-97297928D01*
X134169442Y-97297929D01*
X134169444Y-97297929D01*
X134327130Y-97297929D01*
X134327131Y-97297928D01*
X134333340Y-97296693D01*
X134349648Y-97293450D01*
X134349653Y-97293449D01*
X134446508Y-97274182D01*
X134481783Y-97267166D01*
X134627465Y-97206823D01*
X134647298Y-97193571D01*
X134735324Y-97134754D01*
X134802001Y-97113876D01*
X134865019Y-97131163D01*
X134865451Y-97130357D01*
X134869005Y-97132256D01*
X134869381Y-97132360D01*
X134870284Y-97132940D01*
X134870822Y-97133228D01*
X135016498Y-97193568D01*
X135016503Y-97193570D01*
X135171153Y-97224332D01*
X135171156Y-97224333D01*
X135171158Y-97224333D01*
X135328844Y-97224333D01*
X135328845Y-97224332D01*
X135483497Y-97193570D01*
X135596166Y-97146900D01*
X135629172Y-97133230D01*
X135629172Y-97133229D01*
X135629179Y-97133227D01*
X135760289Y-97045622D01*
X135795048Y-97010862D01*
X135856369Y-96977377D01*
X135926061Y-96982361D01*
X135930181Y-96983982D01*
X135995079Y-97010863D01*
X136016503Y-97019737D01*
X136146630Y-97045621D01*
X136171153Y-97050499D01*
X136171156Y-97050500D01*
X136171158Y-97050500D01*
X136328844Y-97050500D01*
X136328845Y-97050499D01*
X136483497Y-97019737D01*
X136629179Y-96959394D01*
X136760289Y-96871789D01*
X136871789Y-96760289D01*
X136959394Y-96629179D01*
X137019737Y-96483497D01*
X137050500Y-96328842D01*
X137050500Y-96171158D01*
X137050500Y-96171155D01*
X137050499Y-96171153D01*
X137019737Y-96016503D01*
X137009979Y-95992944D01*
X136959397Y-95870827D01*
X136959390Y-95870814D01*
X136871789Y-95739711D01*
X136871786Y-95739707D01*
X136760292Y-95628213D01*
X136760288Y-95628210D01*
X136629185Y-95540609D01*
X136629172Y-95540602D01*
X136483501Y-95480264D01*
X136483489Y-95480261D01*
X136328845Y-95449500D01*
X136328842Y-95449500D01*
X136171158Y-95449500D01*
X136171155Y-95449500D01*
X136016510Y-95480261D01*
X136016498Y-95480264D01*
X135870827Y-95540602D01*
X135870814Y-95540609D01*
X135739714Y-95628208D01*
X135739708Y-95628213D01*
X135704948Y-95662972D01*
X135643624Y-95696456D01*
X135573932Y-95691470D01*
X135569817Y-95689850D01*
X135483501Y-95654097D01*
X135483489Y-95654094D01*
X135328845Y-95623333D01*
X135328842Y-95623333D01*
X135171158Y-95623333D01*
X135171155Y-95623333D01*
X135016510Y-95654094D01*
X135016498Y-95654097D01*
X134870827Y-95714435D01*
X134870814Y-95714442D01*
X134762962Y-95786508D01*
X134696285Y-95807386D01*
X134633271Y-95790099D01*
X134632839Y-95790908D01*
X134629276Y-95789003D01*
X134628905Y-95788902D01*
X134628011Y-95788327D01*
X134627467Y-95788036D01*
X134627465Y-95788035D01*
X134627462Y-95788034D01*
X134627457Y-95788031D01*
X134481787Y-95727693D01*
X134481775Y-95727690D01*
X134327131Y-95696929D01*
X134327128Y-95696929D01*
X134169444Y-95696929D01*
X134169441Y-95696929D01*
X134014796Y-95727690D01*
X134014784Y-95727693D01*
X133869113Y-95788031D01*
X133869100Y-95788038D01*
X133737997Y-95875639D01*
X133737993Y-95875642D01*
X133626499Y-95987136D01*
X133626496Y-95987140D01*
X133538895Y-96118243D01*
X133538888Y-96118256D01*
X133478550Y-96263927D01*
X133478547Y-96263939D01*
X133447786Y-96418582D01*
X125463451Y-96418582D01*
X125586336Y-95642714D01*
X125587182Y-95637978D01*
X125611019Y-95518141D01*
X125643404Y-95456232D01*
X125704120Y-95421658D01*
X125773889Y-95425397D01*
X125830561Y-95466264D01*
X125847197Y-95494881D01*
X125922114Y-95675748D01*
X125922119Y-95675757D01*
X126036653Y-95847168D01*
X126036656Y-95847172D01*
X126182428Y-95992944D01*
X126182432Y-95992947D01*
X126353843Y-96107481D01*
X126353849Y-96107484D01*
X126353850Y-96107485D01*
X126544319Y-96186380D01*
X126746515Y-96226599D01*
X126746519Y-96226600D01*
X126746520Y-96226600D01*
X127562283Y-96226600D01*
X127562284Y-96226599D01*
X127764483Y-96186380D01*
X127954952Y-96107485D01*
X128126370Y-95992947D01*
X128272148Y-95847169D01*
X128386686Y-95675751D01*
X128465581Y-95485282D01*
X128505801Y-95283081D01*
X128505801Y-95076919D01*
X128505800Y-95076914D01*
X129603000Y-95076914D01*
X129603000Y-95283085D01*
X129643218Y-95485274D01*
X129643220Y-95485282D01*
X129722113Y-95675748D01*
X129722118Y-95675757D01*
X129836652Y-95847168D01*
X129836655Y-95847172D01*
X129982427Y-95992944D01*
X129982431Y-95992947D01*
X130153842Y-96107481D01*
X130153848Y-96107484D01*
X130153849Y-96107485D01*
X130344318Y-96186380D01*
X130546514Y-96226599D01*
X130546518Y-96226600D01*
X130546519Y-96226600D01*
X131362282Y-96226600D01*
X131362283Y-96226599D01*
X131564482Y-96186380D01*
X131754951Y-96107485D01*
X131926369Y-95992947D01*
X132072147Y-95847169D01*
X132186685Y-95675751D01*
X132265580Y-95485282D01*
X132305800Y-95283081D01*
X132305800Y-95076919D01*
X132265580Y-94874718D01*
X132208649Y-94737274D01*
X140057759Y-94737274D01*
X140057759Y-94894967D01*
X140088520Y-95049610D01*
X140088523Y-95049622D01*
X140148861Y-95195293D01*
X140148868Y-95195306D01*
X140236469Y-95326409D01*
X140236472Y-95326413D01*
X140347966Y-95437907D01*
X140347970Y-95437910D01*
X140479073Y-95525511D01*
X140479086Y-95525518D01*
X140624757Y-95585856D01*
X140624762Y-95585858D01*
X140779412Y-95616620D01*
X140779415Y-95616621D01*
X140779417Y-95616621D01*
X140937103Y-95616621D01*
X140937104Y-95616620D01*
X141091756Y-95585858D01*
X141237438Y-95525515D01*
X141368548Y-95437910D01*
X141480048Y-95326410D01*
X141567653Y-95195300D01*
X141627996Y-95049618D01*
X141658759Y-94894963D01*
X141658759Y-94737279D01*
X141658759Y-94737276D01*
X141647870Y-94682537D01*
X141647870Y-94682536D01*
X141644269Y-94664432D01*
X147464495Y-94664432D01*
X147464495Y-94822125D01*
X147495256Y-94976768D01*
X147495259Y-94976780D01*
X147555597Y-95122451D01*
X147555604Y-95122464D01*
X147643205Y-95253567D01*
X147643208Y-95253571D01*
X147754702Y-95365065D01*
X147754706Y-95365068D01*
X147885809Y-95452669D01*
X147885822Y-95452676D01*
X148031493Y-95513014D01*
X148031498Y-95513016D01*
X148186148Y-95543778D01*
X148186151Y-95543779D01*
X148186153Y-95543779D01*
X148343839Y-95543779D01*
X148343840Y-95543778D01*
X148498492Y-95513016D01*
X148644174Y-95452673D01*
X148775284Y-95365068D01*
X148886784Y-95253568D01*
X148974389Y-95122458D01*
X149034732Y-94976776D01*
X149065495Y-94822121D01*
X149065495Y-94671153D01*
X163949500Y-94671153D01*
X163949500Y-94828846D01*
X163980261Y-94983489D01*
X163980264Y-94983501D01*
X164040602Y-95129172D01*
X164040609Y-95129185D01*
X164128210Y-95260288D01*
X164128213Y-95260292D01*
X164239707Y-95371786D01*
X164239711Y-95371789D01*
X164370814Y-95459390D01*
X164370827Y-95459397D01*
X164500272Y-95513014D01*
X164516503Y-95519737D01*
X164671153Y-95550499D01*
X164671156Y-95550500D01*
X164671158Y-95550500D01*
X164828844Y-95550500D01*
X164828845Y-95550499D01*
X164983497Y-95519737D01*
X165129179Y-95459394D01*
X165260289Y-95371789D01*
X165371789Y-95260289D01*
X165459394Y-95129179D01*
X165462176Y-95122464D01*
X165492352Y-95049610D01*
X165519737Y-94983497D01*
X165550500Y-94828842D01*
X165550500Y-94671158D01*
X165550500Y-94671155D01*
X165550499Y-94671153D01*
X165549163Y-94664437D01*
X165519737Y-94516503D01*
X165503036Y-94476183D01*
X165459397Y-94370827D01*
X165459390Y-94370814D01*
X165371789Y-94239711D01*
X165371786Y-94239707D01*
X165260292Y-94128213D01*
X165260288Y-94128210D01*
X165129185Y-94040609D01*
X165129172Y-94040602D01*
X164983501Y-93980264D01*
X164983489Y-93980261D01*
X164828845Y-93949500D01*
X164828842Y-93949500D01*
X164671158Y-93949500D01*
X164671155Y-93949500D01*
X164516510Y-93980261D01*
X164516498Y-93980264D01*
X164370827Y-94040602D01*
X164370814Y-94040609D01*
X164239711Y-94128210D01*
X164239707Y-94128213D01*
X164128213Y-94239707D01*
X164128210Y-94239711D01*
X164040609Y-94370814D01*
X164040602Y-94370827D01*
X163980264Y-94516498D01*
X163980261Y-94516510D01*
X163949500Y-94671153D01*
X149065495Y-94671153D01*
X149065495Y-94664437D01*
X149065495Y-94664434D01*
X149065494Y-94664432D01*
X149052332Y-94598261D01*
X149034732Y-94509782D01*
X149020815Y-94476183D01*
X148974392Y-94364106D01*
X148974385Y-94364093D01*
X148886784Y-94232990D01*
X148886781Y-94232986D01*
X148775287Y-94121492D01*
X148775283Y-94121489D01*
X148644180Y-94033888D01*
X148644167Y-94033881D01*
X148498496Y-93973543D01*
X148498484Y-93973540D01*
X148343840Y-93942779D01*
X148343837Y-93942779D01*
X148186153Y-93942779D01*
X148186150Y-93942779D01*
X148031505Y-93973540D01*
X148031493Y-93973543D01*
X147885822Y-94033881D01*
X147885809Y-94033888D01*
X147754706Y-94121489D01*
X147754702Y-94121492D01*
X147643208Y-94232986D01*
X147643205Y-94232990D01*
X147555604Y-94364093D01*
X147555597Y-94364106D01*
X147495259Y-94509777D01*
X147495256Y-94509789D01*
X147464495Y-94664432D01*
X141644269Y-94664432D01*
X141627997Y-94582631D01*
X141627996Y-94582624D01*
X141627994Y-94582619D01*
X141567656Y-94436948D01*
X141567649Y-94436935D01*
X141480048Y-94305832D01*
X141480045Y-94305828D01*
X141368551Y-94194334D01*
X141368547Y-94194331D01*
X141237444Y-94106730D01*
X141237431Y-94106723D01*
X141091760Y-94046385D01*
X141091748Y-94046382D01*
X140937104Y-94015621D01*
X140937101Y-94015621D01*
X140779417Y-94015621D01*
X140779414Y-94015621D01*
X140624769Y-94046382D01*
X140624757Y-94046385D01*
X140479086Y-94106723D01*
X140479073Y-94106730D01*
X140347970Y-94194331D01*
X140347966Y-94194334D01*
X140236472Y-94305828D01*
X140236469Y-94305832D01*
X140148868Y-94436935D01*
X140148861Y-94436948D01*
X140088523Y-94582619D01*
X140088520Y-94582631D01*
X140057759Y-94737274D01*
X132208649Y-94737274D01*
X132188090Y-94687640D01*
X132186686Y-94684251D01*
X132186681Y-94684242D01*
X132072147Y-94512831D01*
X132072144Y-94512827D01*
X131926372Y-94367055D01*
X131926368Y-94367052D01*
X131754957Y-94252518D01*
X131754948Y-94252513D01*
X131564482Y-94173620D01*
X131564474Y-94173618D01*
X131362285Y-94133400D01*
X131362281Y-94133400D01*
X130546519Y-94133400D01*
X130546514Y-94133400D01*
X130344325Y-94173618D01*
X130344317Y-94173620D01*
X130153851Y-94252513D01*
X130153842Y-94252518D01*
X129982431Y-94367052D01*
X129982427Y-94367055D01*
X129836655Y-94512827D01*
X129836652Y-94512831D01*
X129722118Y-94684242D01*
X129722113Y-94684251D01*
X129643220Y-94874717D01*
X129643218Y-94874725D01*
X129603000Y-95076914D01*
X128505800Y-95076914D01*
X128465581Y-94874718D01*
X128388091Y-94687640D01*
X128386687Y-94684251D01*
X128386682Y-94684242D01*
X128272148Y-94512831D01*
X128272145Y-94512827D01*
X128126373Y-94367055D01*
X128126369Y-94367052D01*
X127954958Y-94252518D01*
X127954949Y-94252513D01*
X127764483Y-94173620D01*
X127764475Y-94173618D01*
X127562286Y-94133400D01*
X127562282Y-94133400D01*
X126746520Y-94133400D01*
X126746515Y-94133400D01*
X126544326Y-94173618D01*
X126544318Y-94173620D01*
X126353852Y-94252513D01*
X126353843Y-94252518D01*
X126182432Y-94367052D01*
X126059929Y-94489555D01*
X125998606Y-94523039D01*
X125928914Y-94518055D01*
X125872981Y-94476183D01*
X125848564Y-94410719D01*
X125851673Y-94372930D01*
X126003470Y-93740650D01*
X126004677Y-93736023D01*
X126267698Y-92803424D01*
X126269108Y-92798776D01*
X126282303Y-92758167D01*
X126568539Y-91877220D01*
X126570105Y-91872702D01*
X126905507Y-90963557D01*
X126907257Y-90959086D01*
X127278079Y-90063843D01*
X127279994Y-90059464D01*
X127354592Y-89897648D01*
X129949500Y-89897648D01*
X129949500Y-90102351D01*
X129981522Y-90304534D01*
X130044781Y-90499223D01*
X130137715Y-90681613D01*
X130258028Y-90847213D01*
X130402786Y-90991971D01*
X130543031Y-91093863D01*
X130568390Y-91112287D01*
X130684607Y-91171503D01*
X130750776Y-91205218D01*
X130750778Y-91205218D01*
X130750781Y-91205220D01*
X130855137Y-91239127D01*
X130945465Y-91268477D01*
X131046557Y-91284488D01*
X131147648Y-91300500D01*
X131147649Y-91300500D01*
X131352351Y-91300500D01*
X131352352Y-91300500D01*
X131554534Y-91268477D01*
X131749219Y-91205220D01*
X131931610Y-91112287D01*
X132057495Y-91020827D01*
X132097213Y-90991971D01*
X132097215Y-90991968D01*
X132097219Y-90991966D01*
X132241966Y-90847219D01*
X132241968Y-90847215D01*
X132241971Y-90847213D01*
X132311025Y-90752166D01*
X132362287Y-90681610D01*
X132409786Y-90588389D01*
X135899500Y-90588389D01*
X135899500Y-91311610D01*
X135925986Y-91478842D01*
X135926598Y-91482701D01*
X135980127Y-91647445D01*
X136058768Y-91801788D01*
X136160586Y-91941928D01*
X136283072Y-92064414D01*
X136423212Y-92166232D01*
X136577555Y-92244873D01*
X136682244Y-92278888D01*
X136739919Y-92318326D01*
X136767117Y-92382684D01*
X136755202Y-92451531D01*
X136707958Y-92503006D01*
X136691378Y-92511380D01*
X136620824Y-92540604D01*
X136620814Y-92540609D01*
X136489711Y-92628210D01*
X136489707Y-92628213D01*
X136378213Y-92739707D01*
X136378210Y-92739711D01*
X136290609Y-92870814D01*
X136290602Y-92870827D01*
X136230264Y-93016498D01*
X136230261Y-93016510D01*
X136199500Y-93171153D01*
X136199500Y-93328846D01*
X136230261Y-93483489D01*
X136230264Y-93483501D01*
X136290602Y-93629172D01*
X136290609Y-93629185D01*
X136378210Y-93760288D01*
X136378213Y-93760292D01*
X136489707Y-93871786D01*
X136489711Y-93871789D01*
X136620814Y-93959390D01*
X136620827Y-93959397D01*
X136756566Y-94015621D01*
X136766503Y-94019737D01*
X136900456Y-94046382D01*
X136921153Y-94050499D01*
X136921156Y-94050500D01*
X136921158Y-94050500D01*
X137078844Y-94050500D01*
X137078845Y-94050499D01*
X137233497Y-94019737D01*
X137379179Y-93959394D01*
X137510289Y-93871789D01*
X137621789Y-93760289D01*
X137709394Y-93629179D01*
X137718684Y-93606752D01*
X137741082Y-93552677D01*
X137769737Y-93483497D01*
X137800500Y-93328842D01*
X137800500Y-93171158D01*
X137800500Y-93171155D01*
X137800499Y-93171153D01*
X137790679Y-93121786D01*
X137769737Y-93016503D01*
X137767163Y-93010288D01*
X137709397Y-92870827D01*
X137709390Y-92870814D01*
X137621789Y-92739711D01*
X137621786Y-92739707D01*
X137510292Y-92628213D01*
X137510288Y-92628210D01*
X137379185Y-92540609D01*
X137379172Y-92540602D01*
X137308622Y-92511380D01*
X137254218Y-92467539D01*
X137238779Y-92421153D01*
X147199500Y-92421153D01*
X147199500Y-92578846D01*
X147230261Y-92733489D01*
X147230264Y-92733501D01*
X147290602Y-92879172D01*
X147290609Y-92879185D01*
X147378210Y-93010288D01*
X147378213Y-93010292D01*
X147489707Y-93121786D01*
X147489711Y-93121789D01*
X147620814Y-93209390D01*
X147620827Y-93209397D01*
X147766498Y-93269735D01*
X147766503Y-93269737D01*
X147921153Y-93300499D01*
X147921156Y-93300500D01*
X147921158Y-93300500D01*
X148078844Y-93300500D01*
X148078845Y-93300499D01*
X148233497Y-93269737D01*
X148379179Y-93209394D01*
X148510289Y-93121789D01*
X148621789Y-93010289D01*
X148709394Y-92879179D01*
X148712854Y-92870827D01*
X148742698Y-92798776D01*
X148759519Y-92758167D01*
X151190240Y-92758167D01*
X151190240Y-92915860D01*
X151221001Y-93070503D01*
X151221004Y-93070515D01*
X151281342Y-93216186D01*
X151281349Y-93216199D01*
X151368950Y-93347302D01*
X151368953Y-93347306D01*
X151480447Y-93458800D01*
X151480451Y-93458803D01*
X151611554Y-93546404D01*
X151611567Y-93546411D01*
X151757238Y-93606749D01*
X151757243Y-93606751D01*
X151870026Y-93629185D01*
X151911893Y-93637513D01*
X151911896Y-93637514D01*
X151911898Y-93637514D01*
X152069584Y-93637514D01*
X152069585Y-93637513D01*
X152224237Y-93606751D01*
X152369919Y-93546408D01*
X152418654Y-93513843D01*
X152485330Y-93492966D01*
X152552710Y-93511450D01*
X152556435Y-93513844D01*
X152605165Y-93546404D01*
X152614553Y-93552677D01*
X152614555Y-93552678D01*
X152614559Y-93552680D01*
X152760230Y-93613018D01*
X152760235Y-93613020D01*
X152875054Y-93635859D01*
X152914885Y-93643782D01*
X152914888Y-93643783D01*
X152914890Y-93643783D01*
X153072576Y-93643783D01*
X153072577Y-93643782D01*
X153227229Y-93613020D01*
X153372911Y-93552677D01*
X153504021Y-93465072D01*
X153615521Y-93353572D01*
X153703126Y-93222462D01*
X153763469Y-93076780D01*
X153794232Y-92922125D01*
X153794232Y-92764441D01*
X153794232Y-92764438D01*
X153794231Y-92764436D01*
X153767134Y-92628211D01*
X153763469Y-92609786D01*
X153734813Y-92540604D01*
X153703129Y-92464110D01*
X153703122Y-92464097D01*
X153615521Y-92332994D01*
X153615518Y-92332990D01*
X153504024Y-92221496D01*
X153504020Y-92221493D01*
X153372917Y-92133892D01*
X153372904Y-92133885D01*
X153227233Y-92073547D01*
X153227221Y-92073544D01*
X153072577Y-92042783D01*
X153072574Y-92042783D01*
X152914890Y-92042783D01*
X152914887Y-92042783D01*
X152760242Y-92073544D01*
X152760230Y-92073547D01*
X152614556Y-92133887D01*
X152565817Y-92166453D01*
X152499139Y-92187330D01*
X152431759Y-92168845D01*
X152428036Y-92166452D01*
X152369925Y-92127623D01*
X152369912Y-92127616D01*
X152224241Y-92067278D01*
X152224229Y-92067275D01*
X152069585Y-92036514D01*
X152069582Y-92036514D01*
X151911898Y-92036514D01*
X151911895Y-92036514D01*
X151757250Y-92067275D01*
X151757238Y-92067278D01*
X151611567Y-92127616D01*
X151611554Y-92127623D01*
X151480451Y-92215224D01*
X151480447Y-92215227D01*
X151368953Y-92326721D01*
X151368950Y-92326725D01*
X151281349Y-92457828D01*
X151281342Y-92457841D01*
X151221004Y-92603512D01*
X151221001Y-92603524D01*
X151190240Y-92758167D01*
X148759519Y-92758167D01*
X148769737Y-92733497D01*
X148779728Y-92683270D01*
X148800500Y-92578844D01*
X148800500Y-92421155D01*
X148800499Y-92421153D01*
X148786086Y-92348691D01*
X148792313Y-92279100D01*
X148835176Y-92223922D01*
X148901066Y-92200678D01*
X148907703Y-92200500D01*
X149028844Y-92200500D01*
X149028845Y-92200499D01*
X149183497Y-92169737D01*
X149301592Y-92120821D01*
X149329172Y-92109397D01*
X149329172Y-92109396D01*
X149329179Y-92109394D01*
X149460289Y-92021789D01*
X149571789Y-91910289D01*
X149659394Y-91779179D01*
X149719737Y-91633497D01*
X149750500Y-91478842D01*
X149750500Y-91321158D01*
X149750500Y-91321155D01*
X149750499Y-91321153D01*
X149728427Y-91210191D01*
X149719737Y-91166503D01*
X149672515Y-91052498D01*
X166746515Y-91052498D01*
X166746515Y-91210191D01*
X166777276Y-91364834D01*
X166777279Y-91364846D01*
X166837617Y-91510517D01*
X166837624Y-91510530D01*
X166925225Y-91641633D01*
X166925228Y-91641637D01*
X167036722Y-91753131D01*
X167036726Y-91753134D01*
X167167829Y-91840735D01*
X167167842Y-91840742D01*
X167313513Y-91901080D01*
X167313518Y-91901082D01*
X167450708Y-91928371D01*
X167468168Y-91931844D01*
X167468171Y-91931845D01*
X167468173Y-91931845D01*
X167625859Y-91931845D01*
X167625860Y-91931844D01*
X167780512Y-91901082D01*
X167926194Y-91840739D01*
X168057304Y-91753134D01*
X168168804Y-91641634D01*
X168256409Y-91510524D01*
X168316752Y-91364842D01*
X168347515Y-91210187D01*
X168347515Y-91052503D01*
X168347515Y-91052500D01*
X168347514Y-91052498D01*
X168316753Y-90897855D01*
X168316752Y-90897848D01*
X168295781Y-90847219D01*
X168256412Y-90752172D01*
X168256405Y-90752159D01*
X168168804Y-90621056D01*
X168168801Y-90621052D01*
X168057307Y-90509558D01*
X168057303Y-90509555D01*
X167926200Y-90421954D01*
X167926187Y-90421947D01*
X167780516Y-90361609D01*
X167780504Y-90361606D01*
X167625860Y-90330845D01*
X167625857Y-90330845D01*
X167468173Y-90330845D01*
X167468170Y-90330845D01*
X167313525Y-90361606D01*
X167313513Y-90361609D01*
X167167842Y-90421947D01*
X167167829Y-90421954D01*
X167036726Y-90509555D01*
X167036722Y-90509558D01*
X166925228Y-90621052D01*
X166925225Y-90621056D01*
X166837624Y-90752159D01*
X166837617Y-90752172D01*
X166777279Y-90897843D01*
X166777276Y-90897855D01*
X166746515Y-91052498D01*
X149672515Y-91052498D01*
X149659397Y-91020827D01*
X149659390Y-91020814D01*
X149571789Y-90889711D01*
X149571786Y-90889707D01*
X149460292Y-90778213D01*
X149460288Y-90778210D01*
X149329185Y-90690609D01*
X149329172Y-90690602D01*
X149183501Y-90630264D01*
X149183489Y-90630261D01*
X149028845Y-90599500D01*
X149028842Y-90599500D01*
X148871158Y-90599500D01*
X148871155Y-90599500D01*
X148716510Y-90630261D01*
X148716498Y-90630264D01*
X148570827Y-90690602D01*
X148570814Y-90690609D01*
X148439711Y-90778210D01*
X148439707Y-90778213D01*
X148328213Y-90889707D01*
X148328210Y-90889711D01*
X148240609Y-91020814D01*
X148240602Y-91020827D01*
X148180264Y-91166498D01*
X148180261Y-91166510D01*
X148149500Y-91321153D01*
X148149500Y-91478846D01*
X148163914Y-91551309D01*
X148157687Y-91620900D01*
X148114824Y-91676078D01*
X148048934Y-91699322D01*
X148042297Y-91699500D01*
X147921155Y-91699500D01*
X147766510Y-91730261D01*
X147766498Y-91730264D01*
X147620827Y-91790602D01*
X147620814Y-91790609D01*
X147489711Y-91878210D01*
X147489707Y-91878213D01*
X147378213Y-91989707D01*
X147378210Y-91989711D01*
X147290609Y-92120814D01*
X147290602Y-92120827D01*
X147230264Y-92266498D01*
X147230261Y-92266510D01*
X147199500Y-92421153D01*
X137238779Y-92421153D01*
X137232153Y-92401245D01*
X137249432Y-92333546D01*
X137300569Y-92285935D01*
X137317746Y-92278891D01*
X137422445Y-92244873D01*
X137576788Y-92166232D01*
X137716928Y-92064414D01*
X137824472Y-91956869D01*
X137885791Y-91923387D01*
X137955483Y-91928371D01*
X138011417Y-91970242D01*
X138017688Y-91979456D01*
X138057285Y-92043652D01*
X138057288Y-92043656D01*
X138181344Y-92167712D01*
X138330666Y-92259814D01*
X138497203Y-92314999D01*
X138599991Y-92325500D01*
X139400008Y-92325499D01*
X139400016Y-92325498D01*
X139400019Y-92325498D01*
X139456302Y-92319748D01*
X139502797Y-92314999D01*
X139669334Y-92259814D01*
X139818656Y-92167712D01*
X139942712Y-92043656D01*
X140034814Y-91894334D01*
X140089999Y-91727797D01*
X140100500Y-91625009D01*
X140100499Y-90274992D01*
X140089999Y-90172203D01*
X140034814Y-90005666D01*
X139942712Y-89856344D01*
X139818656Y-89732288D01*
X139693559Y-89655128D01*
X139669336Y-89640187D01*
X139669331Y-89640185D01*
X139667862Y-89639698D01*
X139502797Y-89585001D01*
X139502795Y-89585000D01*
X139400010Y-89574500D01*
X138599998Y-89574500D01*
X138599980Y-89574501D01*
X138497203Y-89585000D01*
X138497200Y-89585001D01*
X138330668Y-89640185D01*
X138330663Y-89640187D01*
X138181342Y-89732289D01*
X138057287Y-89856344D01*
X138017688Y-89920544D01*
X137965739Y-89967268D01*
X137896777Y-89978489D01*
X137832695Y-89950645D01*
X137824469Y-89943127D01*
X137716930Y-89835588D01*
X137716928Y-89835586D01*
X137576788Y-89733768D01*
X137422445Y-89655127D01*
X137257701Y-89601598D01*
X137257699Y-89601597D01*
X137257698Y-89601597D01*
X137126271Y-89580781D01*
X137086611Y-89574500D01*
X136913389Y-89574500D01*
X136873728Y-89580781D01*
X136742302Y-89601597D01*
X136577552Y-89655128D01*
X136423211Y-89733768D01*
X136343256Y-89791859D01*
X136283072Y-89835586D01*
X136283070Y-89835588D01*
X136283069Y-89835588D01*
X136160588Y-89958069D01*
X136160588Y-89958070D01*
X136160586Y-89958072D01*
X136142114Y-89983497D01*
X136058768Y-90098211D01*
X135980128Y-90252552D01*
X135926597Y-90417302D01*
X135899500Y-90588389D01*
X132409786Y-90588389D01*
X132455220Y-90499219D01*
X132518477Y-90304534D01*
X132550500Y-90102352D01*
X132550500Y-89897648D01*
X132524309Y-89732288D01*
X132518477Y-89695465D01*
X132479173Y-89574500D01*
X132455220Y-89500781D01*
X132455218Y-89500778D01*
X132455218Y-89500776D01*
X132398949Y-89390344D01*
X132362287Y-89318390D01*
X132326939Y-89269737D01*
X132241971Y-89152786D01*
X132097213Y-89008028D01*
X131931613Y-88887715D01*
X131931612Y-88887714D01*
X131931610Y-88887713D01*
X131749219Y-88794780D01*
X131657445Y-88764961D01*
X131554534Y-88731522D01*
X131379995Y-88703878D01*
X131352352Y-88699500D01*
X131147648Y-88699500D01*
X131123329Y-88703351D01*
X130945465Y-88731522D01*
X130750776Y-88794781D01*
X130568386Y-88887715D01*
X130402786Y-89008028D01*
X130258028Y-89152786D01*
X130137715Y-89318386D01*
X130044781Y-89500776D01*
X129981522Y-89695465D01*
X129949500Y-89897648D01*
X127354592Y-89897648D01*
X127685676Y-89179471D01*
X127687798Y-89175098D01*
X127711195Y-89129179D01*
X127944571Y-88671153D01*
X148999500Y-88671153D01*
X148999500Y-88828846D01*
X149030261Y-88983489D01*
X149030264Y-88983501D01*
X149090602Y-89129172D01*
X149090609Y-89129185D01*
X149178210Y-89260288D01*
X149178213Y-89260292D01*
X149289707Y-89371786D01*
X149289711Y-89371789D01*
X149420814Y-89459390D01*
X149420827Y-89459397D01*
X149565332Y-89519252D01*
X149566503Y-89519737D01*
X149687420Y-89543789D01*
X149721153Y-89550499D01*
X149721156Y-89550500D01*
X149721158Y-89550500D01*
X149878844Y-89550500D01*
X149878845Y-89550499D01*
X150033497Y-89519737D01*
X150033509Y-89519731D01*
X150039324Y-89517969D01*
X150039713Y-89519252D01*
X150102368Y-89512515D01*
X150164847Y-89543789D01*
X150200501Y-89603877D01*
X150201971Y-89658735D01*
X150199500Y-89671158D01*
X150199500Y-89828846D01*
X150230261Y-89983489D01*
X150230264Y-89983501D01*
X150290602Y-90129172D01*
X150290609Y-90129185D01*
X150378210Y-90260288D01*
X150378213Y-90260292D01*
X150489707Y-90371786D01*
X150489711Y-90371789D01*
X150620814Y-90459390D01*
X150620827Y-90459397D01*
X150766498Y-90519735D01*
X150766503Y-90519737D01*
X150921153Y-90550499D01*
X150921156Y-90550500D01*
X150921158Y-90550500D01*
X151078844Y-90550500D01*
X151078845Y-90550499D01*
X151233497Y-90519737D01*
X151379179Y-90459394D01*
X151510289Y-90371789D01*
X151621789Y-90260289D01*
X151709394Y-90129179D01*
X151769737Y-89983497D01*
X151800500Y-89828842D01*
X151800500Y-89671158D01*
X151800500Y-89671155D01*
X151800499Y-89671153D01*
X152449500Y-89671153D01*
X152449500Y-89828846D01*
X152480261Y-89983489D01*
X152480264Y-89983501D01*
X152540602Y-90129172D01*
X152540609Y-90129185D01*
X152628210Y-90260288D01*
X152628213Y-90260292D01*
X152739707Y-90371786D01*
X152739711Y-90371789D01*
X152870814Y-90459390D01*
X152870827Y-90459397D01*
X153016498Y-90519735D01*
X153016503Y-90519737D01*
X153171153Y-90550499D01*
X153171156Y-90550500D01*
X153171158Y-90550500D01*
X153328844Y-90550500D01*
X153328845Y-90550499D01*
X153483497Y-90519737D01*
X153629179Y-90459394D01*
X153760289Y-90371789D01*
X153871789Y-90260289D01*
X153959394Y-90129179D01*
X154019737Y-89983497D01*
X154050500Y-89828842D01*
X154050500Y-89671158D01*
X154050500Y-89671155D01*
X154050499Y-89671153D01*
X154037117Y-89603877D01*
X154019737Y-89516503D01*
X153967481Y-89390344D01*
X153959397Y-89370827D01*
X153959390Y-89370814D01*
X153871789Y-89239711D01*
X153871786Y-89239707D01*
X153760292Y-89128213D01*
X153760288Y-89128210D01*
X153629185Y-89040609D01*
X153629172Y-89040602D01*
X153483501Y-88980264D01*
X153483489Y-88980261D01*
X153328845Y-88949500D01*
X153328842Y-88949500D01*
X153171158Y-88949500D01*
X153171155Y-88949500D01*
X153016510Y-88980261D01*
X153016498Y-88980264D01*
X152870827Y-89040602D01*
X152870814Y-89040609D01*
X152739711Y-89128210D01*
X152739707Y-89128213D01*
X152628213Y-89239707D01*
X152628210Y-89239711D01*
X152540609Y-89370814D01*
X152540602Y-89370827D01*
X152480264Y-89516498D01*
X152480261Y-89516510D01*
X152449500Y-89671153D01*
X151800499Y-89671153D01*
X151787117Y-89603877D01*
X151769737Y-89516503D01*
X151717481Y-89390344D01*
X151709397Y-89370827D01*
X151709390Y-89370814D01*
X151621789Y-89239711D01*
X151621786Y-89239707D01*
X151510292Y-89128213D01*
X151510288Y-89128210D01*
X151379185Y-89040609D01*
X151379172Y-89040602D01*
X151233501Y-88980264D01*
X151233489Y-88980261D01*
X151078845Y-88949500D01*
X151078842Y-88949500D01*
X150921158Y-88949500D01*
X150921155Y-88949500D01*
X150766510Y-88980261D01*
X150760676Y-88982031D01*
X150760288Y-88980753D01*
X150697602Y-88987479D01*
X150635130Y-88956190D01*
X150599491Y-88896093D01*
X150598030Y-88841259D01*
X150600500Y-88828842D01*
X150600500Y-88671158D01*
X150600500Y-88671155D01*
X150600499Y-88671153D01*
X150569738Y-88516510D01*
X150569737Y-88516503D01*
X150569735Y-88516498D01*
X150509397Y-88370827D01*
X150509390Y-88370814D01*
X150421789Y-88239711D01*
X150421786Y-88239707D01*
X150310292Y-88128213D01*
X150310288Y-88128210D01*
X150179185Y-88040609D01*
X150179172Y-88040602D01*
X150033501Y-87980264D01*
X150033489Y-87980261D01*
X149878845Y-87949500D01*
X149878842Y-87949500D01*
X149721158Y-87949500D01*
X149721155Y-87949500D01*
X149566510Y-87980261D01*
X149566498Y-87980264D01*
X149420827Y-88040602D01*
X149420814Y-88040609D01*
X149289711Y-88128210D01*
X149289707Y-88128213D01*
X149178213Y-88239707D01*
X149178210Y-88239711D01*
X149090609Y-88370814D01*
X149090602Y-88370827D01*
X149030264Y-88516498D01*
X149030261Y-88516510D01*
X148999500Y-88671153D01*
X127944571Y-88671153D01*
X128127702Y-88311738D01*
X128129982Y-88307476D01*
X128603438Y-87462060D01*
X128605900Y-87457859D01*
X128628391Y-87421158D01*
X128846348Y-87065483D01*
X143961289Y-87065483D01*
X143961289Y-87223176D01*
X143992050Y-87377819D01*
X143992053Y-87377831D01*
X144052391Y-87523502D01*
X144052398Y-87523515D01*
X144139999Y-87654618D01*
X144140002Y-87654622D01*
X144251496Y-87766116D01*
X144251500Y-87766119D01*
X144382603Y-87853720D01*
X144382616Y-87853727D01*
X144496965Y-87901091D01*
X144528292Y-87914067D01*
X144682942Y-87944829D01*
X144682945Y-87944830D01*
X144682947Y-87944830D01*
X144840633Y-87944830D01*
X144840634Y-87944829D01*
X144995286Y-87914067D01*
X145140968Y-87853724D01*
X145272078Y-87766119D01*
X145383578Y-87654619D01*
X145471183Y-87523509D01*
X145531526Y-87377827D01*
X145562289Y-87223172D01*
X145562289Y-87171153D01*
X145949500Y-87171153D01*
X145949500Y-87328846D01*
X145980261Y-87483489D01*
X145980264Y-87483501D01*
X146040602Y-87629172D01*
X146040609Y-87629185D01*
X146128210Y-87760288D01*
X146128213Y-87760292D01*
X146239707Y-87871786D01*
X146239711Y-87871789D01*
X146370814Y-87959390D01*
X146370827Y-87959397D01*
X146497293Y-88011780D01*
X146516503Y-88019737D01*
X146671153Y-88050499D01*
X146671156Y-88050500D01*
X146671158Y-88050500D01*
X146828844Y-88050500D01*
X146828845Y-88050499D01*
X146983497Y-88019737D01*
X147129179Y-87959394D01*
X147260289Y-87871789D01*
X147371789Y-87760289D01*
X147379145Y-87749279D01*
X147396898Y-87722712D01*
X147450510Y-87677906D01*
X147519835Y-87669199D01*
X147582862Y-87699353D01*
X147603102Y-87722712D01*
X147628207Y-87760284D01*
X147628213Y-87760292D01*
X147739707Y-87871786D01*
X147739711Y-87871789D01*
X147870814Y-87959390D01*
X147870827Y-87959397D01*
X147997293Y-88011780D01*
X148016503Y-88019737D01*
X148171153Y-88050499D01*
X148171156Y-88050500D01*
X148171158Y-88050500D01*
X148328844Y-88050500D01*
X148328845Y-88050499D01*
X148483497Y-88019737D01*
X148629179Y-87959394D01*
X148760289Y-87871789D01*
X148871789Y-87760289D01*
X148959394Y-87629179D01*
X149019737Y-87483497D01*
X149050500Y-87328842D01*
X149050500Y-87171158D01*
X149050500Y-87171155D01*
X149050499Y-87171153D01*
X149019738Y-87016510D01*
X149019737Y-87016503D01*
X149019415Y-87015725D01*
X148959397Y-86870827D01*
X148959390Y-86870814D01*
X148871789Y-86739711D01*
X148871786Y-86739707D01*
X148760292Y-86628213D01*
X148760288Y-86628210D01*
X148629185Y-86540609D01*
X148629172Y-86540602D01*
X148483501Y-86480264D01*
X148483489Y-86480261D01*
X148328845Y-86449500D01*
X148328842Y-86449500D01*
X148324838Y-86449500D01*
X148322816Y-86448906D01*
X148322782Y-86448903D01*
X148322782Y-86448896D01*
X148257799Y-86429815D01*
X148212044Y-86377011D01*
X148210275Y-86372949D01*
X148209394Y-86370821D01*
X148209391Y-86370816D01*
X148209390Y-86370814D01*
X148121789Y-86239711D01*
X148121786Y-86239707D01*
X148010292Y-86128213D01*
X148010288Y-86128210D01*
X147919329Y-86067433D01*
X147879185Y-86040609D01*
X147879172Y-86040602D01*
X147733501Y-85980264D01*
X147733489Y-85980261D01*
X147684006Y-85970418D01*
X150248765Y-85970418D01*
X150248765Y-86128111D01*
X150279526Y-86282754D01*
X150279529Y-86282766D01*
X150339867Y-86428437D01*
X150339874Y-86428450D01*
X150427475Y-86559553D01*
X150427478Y-86559557D01*
X150538972Y-86671051D01*
X150538976Y-86671054D01*
X150670079Y-86758655D01*
X150670092Y-86758662D01*
X150789086Y-86807950D01*
X150815768Y-86819002D01*
X150970418Y-86849764D01*
X150970421Y-86849765D01*
X150970423Y-86849765D01*
X151128109Y-86849765D01*
X151128110Y-86849764D01*
X151282762Y-86819002D01*
X151428444Y-86758659D01*
X151511173Y-86703381D01*
X166699436Y-86703381D01*
X166699436Y-86861074D01*
X166730197Y-87015717D01*
X166730200Y-87015729D01*
X166790538Y-87161400D01*
X166790545Y-87161413D01*
X166878146Y-87292516D01*
X166878149Y-87292520D01*
X166989643Y-87404014D01*
X166989647Y-87404017D01*
X167120752Y-87491619D01*
X167120753Y-87491619D01*
X167120757Y-87491622D01*
X167126428Y-87493971D01*
X167180831Y-87537810D01*
X167200593Y-87584340D01*
X167230261Y-87733491D01*
X167230264Y-87733501D01*
X167290602Y-87879172D01*
X167290609Y-87879185D01*
X167378210Y-88010288D01*
X167378213Y-88010292D01*
X167379114Y-88011193D01*
X167379435Y-88011780D01*
X167382076Y-88014999D01*
X167381465Y-88015499D01*
X167412599Y-88072516D01*
X167407615Y-88142208D01*
X167365743Y-88198141D01*
X167315626Y-88220491D01*
X167266507Y-88230261D01*
X167266498Y-88230264D01*
X167120827Y-88290602D01*
X167120814Y-88290609D01*
X166989711Y-88378210D01*
X166989707Y-88378213D01*
X166878213Y-88489707D01*
X166878210Y-88489711D01*
X166790609Y-88620814D01*
X166790602Y-88620827D01*
X166730264Y-88766498D01*
X166730261Y-88766510D01*
X166699500Y-88921153D01*
X166699500Y-89078846D01*
X166730261Y-89233489D01*
X166730264Y-89233501D01*
X166790602Y-89379172D01*
X166790609Y-89379185D01*
X166878210Y-89510288D01*
X166878213Y-89510292D01*
X166989707Y-89621786D01*
X166989711Y-89621789D01*
X167120814Y-89709390D01*
X167120827Y-89709397D01*
X167179665Y-89733768D01*
X167266503Y-89769737D01*
X167421153Y-89800499D01*
X167421156Y-89800500D01*
X167421158Y-89800500D01*
X167578844Y-89800500D01*
X167578845Y-89800499D01*
X167733497Y-89769737D01*
X167879179Y-89709394D01*
X168010289Y-89621789D01*
X168121789Y-89510289D01*
X168209394Y-89379179D01*
X168210275Y-89377049D01*
X168211035Y-89376106D01*
X168212264Y-89373809D01*
X168212699Y-89374041D01*
X168254115Y-89322646D01*
X168320408Y-89300579D01*
X168324838Y-89300500D01*
X168328844Y-89300500D01*
X168328845Y-89300499D01*
X168483497Y-89269737D01*
X168629179Y-89209394D01*
X168760289Y-89121789D01*
X168871789Y-89010289D01*
X168959394Y-88879179D01*
X169019737Y-88733497D01*
X169050500Y-88578842D01*
X169050500Y-88421158D01*
X169050500Y-88421155D01*
X169050499Y-88421153D01*
X169024531Y-88290606D01*
X169019737Y-88266503D01*
X169019735Y-88266498D01*
X168959397Y-88120827D01*
X168959390Y-88120814D01*
X168871789Y-87989711D01*
X168871786Y-87989707D01*
X168783170Y-87901091D01*
X168749685Y-87839768D01*
X168754669Y-87770076D01*
X168756258Y-87766037D01*
X168769737Y-87733497D01*
X168800500Y-87578842D01*
X168800500Y-87421158D01*
X168800500Y-87421155D01*
X168800499Y-87421153D01*
X168774912Y-87292520D01*
X168769737Y-87266503D01*
X168726208Y-87161413D01*
X168709397Y-87120827D01*
X168709390Y-87120814D01*
X168621789Y-86989711D01*
X168621786Y-86989707D01*
X168556964Y-86924885D01*
X168523479Y-86863562D01*
X168528463Y-86793870D01*
X168570335Y-86737937D01*
X168597190Y-86722643D01*
X168629179Y-86709394D01*
X168760289Y-86621789D01*
X168871789Y-86510289D01*
X168959394Y-86379179D01*
X169019737Y-86233497D01*
X169050500Y-86078842D01*
X169050500Y-85921158D01*
X169050500Y-85921155D01*
X169050499Y-85921153D01*
X169030769Y-85821963D01*
X169019737Y-85766503D01*
X168979800Y-85670086D01*
X168959397Y-85620827D01*
X168959390Y-85620814D01*
X168871789Y-85489711D01*
X168871786Y-85489707D01*
X168760292Y-85378213D01*
X168760288Y-85378210D01*
X168629185Y-85290609D01*
X168629172Y-85290602D01*
X168483501Y-85230264D01*
X168483489Y-85230261D01*
X168328845Y-85199500D01*
X168328842Y-85199500D01*
X168171158Y-85199500D01*
X168171155Y-85199500D01*
X168016510Y-85230261D01*
X168016498Y-85230264D01*
X167870827Y-85290602D01*
X167870814Y-85290609D01*
X167739711Y-85378210D01*
X167739707Y-85378213D01*
X167628213Y-85489707D01*
X167628210Y-85489711D01*
X167540609Y-85620814D01*
X167540602Y-85620827D01*
X167480264Y-85766498D01*
X167480261Y-85766508D01*
X167454289Y-85897078D01*
X167421904Y-85958989D01*
X167361188Y-85993563D01*
X167356864Y-85994503D01*
X167266444Y-86012489D01*
X167266434Y-86012492D01*
X167120763Y-86072830D01*
X167120750Y-86072837D01*
X166989647Y-86160438D01*
X166989643Y-86160441D01*
X166878149Y-86271935D01*
X166878146Y-86271939D01*
X166790545Y-86403042D01*
X166790538Y-86403055D01*
X166730200Y-86548726D01*
X166730197Y-86548738D01*
X166699436Y-86703381D01*
X151511173Y-86703381D01*
X151559554Y-86671054D01*
X151559557Y-86671051D01*
X151620996Y-86609613D01*
X151671051Y-86559557D01*
X151671054Y-86559554D01*
X151758659Y-86428444D01*
X151759111Y-86427354D01*
X151819000Y-86282766D01*
X151819002Y-86282762D01*
X151849765Y-86128107D01*
X151849765Y-85970423D01*
X151849765Y-85970420D01*
X151849764Y-85970418D01*
X151841447Y-85928604D01*
X151819002Y-85815768D01*
X151798594Y-85766498D01*
X151758662Y-85670092D01*
X151758655Y-85670079D01*
X151671054Y-85538976D01*
X151671051Y-85538972D01*
X151559557Y-85427478D01*
X151559553Y-85427475D01*
X151428450Y-85339874D01*
X151428437Y-85339867D01*
X151282766Y-85279529D01*
X151282754Y-85279526D01*
X151128110Y-85248765D01*
X151128107Y-85248765D01*
X150970423Y-85248765D01*
X150970420Y-85248765D01*
X150815775Y-85279526D01*
X150815763Y-85279529D01*
X150670092Y-85339867D01*
X150670079Y-85339874D01*
X150538976Y-85427475D01*
X150538972Y-85427478D01*
X150427478Y-85538972D01*
X150427475Y-85538976D01*
X150339874Y-85670079D01*
X150339867Y-85670092D01*
X150279529Y-85815763D01*
X150279526Y-85815775D01*
X150248765Y-85970418D01*
X147684006Y-85970418D01*
X147578845Y-85949500D01*
X147578842Y-85949500D01*
X147421158Y-85949500D01*
X147421155Y-85949500D01*
X147266510Y-85980261D01*
X147266498Y-85980264D01*
X147120827Y-86040602D01*
X147120814Y-86040609D01*
X146989711Y-86128210D01*
X146989707Y-86128213D01*
X146878213Y-86239707D01*
X146878210Y-86239711D01*
X146790609Y-86370814D01*
X146790607Y-86370819D01*
X146789725Y-86372949D01*
X146788964Y-86373893D01*
X146787736Y-86376191D01*
X146787300Y-86375958D01*
X146745885Y-86427354D01*
X146679592Y-86449421D01*
X146675162Y-86449500D01*
X146671155Y-86449500D01*
X146516510Y-86480261D01*
X146516498Y-86480264D01*
X146370827Y-86540602D01*
X146370814Y-86540609D01*
X146239711Y-86628210D01*
X146239707Y-86628213D01*
X146128213Y-86739707D01*
X146128210Y-86739711D01*
X146040609Y-86870814D01*
X146040602Y-86870827D01*
X145980264Y-87016498D01*
X145980261Y-87016510D01*
X145949500Y-87171153D01*
X145562289Y-87171153D01*
X145562289Y-87065488D01*
X145562289Y-87065485D01*
X145562288Y-87065483D01*
X145531526Y-86910833D01*
X145511946Y-86863562D01*
X145471186Y-86765157D01*
X145471179Y-86765144D01*
X145383578Y-86634041D01*
X145383575Y-86634037D01*
X145272081Y-86522543D01*
X145272077Y-86522540D01*
X145140974Y-86434939D01*
X145140961Y-86434932D01*
X144995290Y-86374594D01*
X144995278Y-86374591D01*
X144840634Y-86343830D01*
X144840631Y-86343830D01*
X144682947Y-86343830D01*
X144682944Y-86343830D01*
X144528299Y-86374591D01*
X144528287Y-86374594D01*
X144382616Y-86434932D01*
X144382603Y-86434939D01*
X144251500Y-86522540D01*
X144251496Y-86522543D01*
X144140002Y-86634037D01*
X144139999Y-86634041D01*
X144052398Y-86765144D01*
X144052391Y-86765157D01*
X143992053Y-86910828D01*
X143992050Y-86910840D01*
X143961289Y-87065483D01*
X128846348Y-87065483D01*
X129112167Y-86631705D01*
X129114784Y-86627618D01*
X129160263Y-86559554D01*
X129581849Y-85928604D01*
X142296322Y-85928604D01*
X142296322Y-86086297D01*
X142327083Y-86240940D01*
X142327086Y-86240952D01*
X142387424Y-86386623D01*
X142387431Y-86386636D01*
X142475032Y-86517739D01*
X142475035Y-86517743D01*
X142586529Y-86629237D01*
X142586533Y-86629240D01*
X142717636Y-86716841D01*
X142717649Y-86716848D01*
X142863320Y-86777186D01*
X142863325Y-86777188D01*
X142947191Y-86793870D01*
X143017975Y-86807950D01*
X143017978Y-86807951D01*
X143017980Y-86807951D01*
X143175666Y-86807951D01*
X143175667Y-86807950D01*
X143330319Y-86777188D01*
X143476001Y-86716845D01*
X143607111Y-86629240D01*
X143718611Y-86517740D01*
X143806216Y-86386630D01*
X143810637Y-86375958D01*
X143823944Y-86343830D01*
X143866559Y-86240948D01*
X143897322Y-86086293D01*
X143897322Y-85928609D01*
X143897322Y-85928606D01*
X143897321Y-85928604D01*
X143882407Y-85853626D01*
X143866559Y-85773954D01*
X143866556Y-85773947D01*
X143866555Y-85773943D01*
X143806219Y-85628278D01*
X143806212Y-85628265D01*
X143718611Y-85497162D01*
X143718608Y-85497158D01*
X143607114Y-85385664D01*
X143607110Y-85385661D01*
X143476007Y-85298060D01*
X143475994Y-85298053D01*
X143330323Y-85237715D01*
X143330311Y-85237712D01*
X143175667Y-85206951D01*
X143175664Y-85206951D01*
X143017980Y-85206951D01*
X143017977Y-85206951D01*
X142863332Y-85237712D01*
X142863320Y-85237715D01*
X142717649Y-85298053D01*
X142717636Y-85298060D01*
X142586533Y-85385661D01*
X142586529Y-85385664D01*
X142475035Y-85497158D01*
X142475032Y-85497162D01*
X142387431Y-85628265D01*
X142387424Y-85628278D01*
X142327089Y-85773943D01*
X142327083Y-85773961D01*
X142296322Y-85928604D01*
X129581849Y-85928604D01*
X129653126Y-85821930D01*
X129655873Y-85817990D01*
X130225418Y-85034078D01*
X130228349Y-85030207D01*
X130244052Y-85010288D01*
X130708489Y-84421153D01*
X147949500Y-84421153D01*
X147949500Y-84578846D01*
X147980261Y-84733489D01*
X147980264Y-84733501D01*
X148040602Y-84879172D01*
X148040609Y-84879185D01*
X148128210Y-85010288D01*
X148128213Y-85010292D01*
X148239707Y-85121786D01*
X148239711Y-85121789D01*
X148370814Y-85209390D01*
X148370827Y-85209397D01*
X148488097Y-85257971D01*
X148516503Y-85269737D01*
X148671153Y-85300499D01*
X148671156Y-85300500D01*
X148671158Y-85300500D01*
X148828844Y-85300500D01*
X148828845Y-85300499D01*
X148983497Y-85269737D01*
X149039570Y-85246510D01*
X149109035Y-85239042D01*
X149155909Y-85257969D01*
X149173517Y-85269735D01*
X149196548Y-85285124D01*
X149196550Y-85285125D01*
X149196556Y-85285129D01*
X149196562Y-85285131D01*
X149196563Y-85285132D01*
X149227767Y-85298057D01*
X149342238Y-85345472D01*
X149496888Y-85376234D01*
X149496891Y-85376235D01*
X149496893Y-85376235D01*
X149654579Y-85376235D01*
X149654580Y-85376234D01*
X149809232Y-85345472D01*
X149954914Y-85285129D01*
X150086024Y-85197524D01*
X150197524Y-85086024D01*
X150285129Y-84954914D01*
X150345472Y-84809232D01*
X150376235Y-84654577D01*
X150376235Y-84496893D01*
X150376235Y-84496890D01*
X150376234Y-84496888D01*
X150345473Y-84342245D01*
X150345472Y-84342238D01*
X150343840Y-84338298D01*
X150285132Y-84196562D01*
X150285125Y-84196549D01*
X150197524Y-84065446D01*
X150197521Y-84065442D01*
X150086027Y-83953948D01*
X150086023Y-83953945D01*
X149954920Y-83866344D01*
X149954907Y-83866337D01*
X149809236Y-83805999D01*
X149809224Y-83805996D01*
X149654580Y-83775235D01*
X149654577Y-83775235D01*
X149496893Y-83775235D01*
X149496890Y-83775235D01*
X149342240Y-83805996D01*
X149342237Y-83805998D01*
X149286165Y-83829223D01*
X149216696Y-83836690D01*
X149169824Y-83817764D01*
X149152216Y-83805999D01*
X149129179Y-83790606D01*
X149129176Y-83790604D01*
X149129171Y-83790602D01*
X148983501Y-83730264D01*
X148983489Y-83730261D01*
X148828845Y-83699500D01*
X148828842Y-83699500D01*
X148671158Y-83699500D01*
X148671155Y-83699500D01*
X148516510Y-83730261D01*
X148516498Y-83730264D01*
X148370827Y-83790602D01*
X148370814Y-83790609D01*
X148239711Y-83878210D01*
X148239707Y-83878213D01*
X148128213Y-83989707D01*
X148128210Y-83989711D01*
X148040609Y-84120814D01*
X148040602Y-84120827D01*
X147980264Y-84266498D01*
X147980261Y-84266510D01*
X147949500Y-84421153D01*
X130708489Y-84421153D01*
X130828261Y-84269223D01*
X130831263Y-84265564D01*
X131460624Y-83528678D01*
X131463787Y-83525119D01*
X132121564Y-82813539D01*
X132124890Y-82810081D01*
X132810081Y-82124890D01*
X132813539Y-82121564D01*
X133525119Y-81463787D01*
X133528678Y-81460624D01*
X134265564Y-80831263D01*
X134269223Y-80828261D01*
X135030218Y-80228340D01*
X135034090Y-80225410D01*
X135817989Y-79655873D01*
X135821940Y-79653119D01*
X136627631Y-79114775D01*
X136631705Y-79112167D01*
X136705112Y-79067183D01*
X142553470Y-79067183D01*
X142553470Y-79224876D01*
X142584231Y-79379519D01*
X142584234Y-79379531D01*
X142644572Y-79525202D01*
X142644579Y-79525215D01*
X142732180Y-79656318D01*
X142732183Y-79656322D01*
X142781162Y-79705300D01*
X142814648Y-79766623D01*
X142809664Y-79836314D01*
X142796587Y-79861868D01*
X142790612Y-79870810D01*
X142790602Y-79870828D01*
X142730264Y-80016498D01*
X142730261Y-80016510D01*
X142699500Y-80171153D01*
X142699500Y-80328846D01*
X142730261Y-80483489D01*
X142730264Y-80483501D01*
X142790602Y-80629172D01*
X142790609Y-80629185D01*
X142878210Y-80760288D01*
X142878213Y-80760292D01*
X142989707Y-80871786D01*
X142989711Y-80871789D01*
X143120814Y-80959390D01*
X143120827Y-80959397D01*
X143266498Y-81019735D01*
X143266503Y-81019737D01*
X143421153Y-81050499D01*
X143421156Y-81050500D01*
X143421158Y-81050500D01*
X143578844Y-81050500D01*
X143578845Y-81050499D01*
X143733497Y-81019737D01*
X143879179Y-80959394D01*
X144010289Y-80871789D01*
X144121789Y-80760289D01*
X144209394Y-80629179D01*
X144269737Y-80483497D01*
X144280375Y-80430017D01*
X144864500Y-80430017D01*
X144864500Y-80569982D01*
X144891802Y-80707237D01*
X144891805Y-80707249D01*
X144945361Y-80836546D01*
X144945363Y-80836550D01*
X145023114Y-80952912D01*
X145023120Y-80952920D01*
X145122079Y-81051879D01*
X145122087Y-81051885D01*
X145238449Y-81129636D01*
X145238453Y-81129638D01*
X145345095Y-81173810D01*
X145367755Y-81183196D01*
X145505017Y-81210499D01*
X145505021Y-81210500D01*
X145505022Y-81210500D01*
X145644979Y-81210500D01*
X145644980Y-81210499D01*
X145782245Y-81183196D01*
X145911548Y-81129637D01*
X145911550Y-81129636D01*
X145969341Y-81091020D01*
X146027917Y-81051882D01*
X146126882Y-80952917D01*
X146166020Y-80894341D01*
X146204636Y-80836550D01*
X146204638Y-80836546D01*
X146248661Y-80730264D01*
X146258196Y-80707245D01*
X146285500Y-80569978D01*
X146285500Y-80430022D01*
X146285499Y-80430017D01*
X151214500Y-80430017D01*
X151214500Y-80569982D01*
X151241802Y-80707237D01*
X151241805Y-80707249D01*
X151295361Y-80836546D01*
X151295363Y-80836550D01*
X151373114Y-80952912D01*
X151373120Y-80952920D01*
X151472079Y-81051879D01*
X151472087Y-81051885D01*
X151588449Y-81129636D01*
X151588453Y-81129638D01*
X151695095Y-81173810D01*
X151717755Y-81183196D01*
X151855017Y-81210499D01*
X151855021Y-81210500D01*
X151855022Y-81210500D01*
X151994979Y-81210500D01*
X151994980Y-81210499D01*
X152132245Y-81183196D01*
X152261548Y-81129637D01*
X152261550Y-81129636D01*
X152319341Y-81091020D01*
X152377917Y-81051882D01*
X152413682Y-81016117D01*
X156360752Y-81016117D01*
X156360752Y-81173810D01*
X156391513Y-81328453D01*
X156391516Y-81328465D01*
X156451854Y-81474136D01*
X156451861Y-81474149D01*
X156539462Y-81605252D01*
X156539465Y-81605256D01*
X156650959Y-81716750D01*
X156650963Y-81716753D01*
X156782066Y-81804354D01*
X156782079Y-81804361D01*
X156927750Y-81864699D01*
X156927755Y-81864701D01*
X157082405Y-81895463D01*
X157082408Y-81895464D01*
X157082410Y-81895464D01*
X157240096Y-81895464D01*
X157240097Y-81895463D01*
X157394749Y-81864701D01*
X157540431Y-81804358D01*
X157671541Y-81716753D01*
X157717141Y-81671153D01*
X157787349Y-81600946D01*
X157788518Y-81602115D01*
X157839664Y-81567256D01*
X157909509Y-81565367D01*
X157965485Y-81597564D01*
X157989707Y-81621786D01*
X157989711Y-81621789D01*
X158120814Y-81709390D01*
X158120827Y-81709397D01*
X158266498Y-81769735D01*
X158266503Y-81769737D01*
X158421153Y-81800499D01*
X158421156Y-81800500D01*
X158421158Y-81800500D01*
X158578844Y-81800500D01*
X158578845Y-81800499D01*
X158733497Y-81769737D01*
X158879179Y-81709394D01*
X159010289Y-81621789D01*
X159121789Y-81510289D01*
X159137648Y-81486555D01*
X159146898Y-81472712D01*
X159200510Y-81427906D01*
X159269835Y-81419199D01*
X159332862Y-81449353D01*
X159353102Y-81472712D01*
X159378207Y-81510284D01*
X159378213Y-81510292D01*
X159489707Y-81621786D01*
X159489711Y-81621789D01*
X159620814Y-81709390D01*
X159620827Y-81709397D01*
X159766498Y-81769735D01*
X159766503Y-81769737D01*
X159921153Y-81800499D01*
X159921156Y-81800500D01*
X159921158Y-81800500D01*
X159925162Y-81800500D01*
X159927183Y-81801093D01*
X159927218Y-81801097D01*
X159927217Y-81801103D01*
X159992201Y-81820185D01*
X160037956Y-81872989D01*
X160039715Y-81877029D01*
X160040606Y-81879179D01*
X160040607Y-81879180D01*
X160040609Y-81879185D01*
X160128210Y-82010288D01*
X160128213Y-82010292D01*
X160239707Y-82121786D01*
X160239711Y-82121789D01*
X160370814Y-82209390D01*
X160370827Y-82209397D01*
X160516498Y-82269735D01*
X160516503Y-82269737D01*
X160671153Y-82300499D01*
X160671156Y-82300500D01*
X160671158Y-82300500D01*
X160828844Y-82300500D01*
X160828845Y-82300499D01*
X160983497Y-82269737D01*
X161129179Y-82209394D01*
X161260289Y-82121789D01*
X161371789Y-82010289D01*
X161459394Y-81879179D01*
X161460276Y-81877051D01*
X161491984Y-81800499D01*
X161519737Y-81733497D01*
X161550500Y-81578842D01*
X161550500Y-81421158D01*
X161550500Y-81421155D01*
X161550499Y-81421153D01*
X161535971Y-81348115D01*
X161519737Y-81266503D01*
X161517163Y-81260288D01*
X161459397Y-81120827D01*
X161459390Y-81120814D01*
X161371789Y-80989711D01*
X161371786Y-80989707D01*
X161260292Y-80878213D01*
X161260288Y-80878210D01*
X161129185Y-80790609D01*
X161129173Y-80790602D01*
X161102674Y-80779627D01*
X160983501Y-80730264D01*
X160983489Y-80730261D01*
X160828845Y-80699500D01*
X160828842Y-80699500D01*
X160824838Y-80699500D01*
X160822816Y-80698906D01*
X160822782Y-80698903D01*
X160822782Y-80698896D01*
X160757799Y-80679815D01*
X160750293Y-80671153D01*
X161699500Y-80671153D01*
X161699500Y-80828846D01*
X161730261Y-80983489D01*
X161730264Y-80983501D01*
X161790602Y-81129172D01*
X161790609Y-81129185D01*
X161878210Y-81260288D01*
X161878213Y-81260292D01*
X161989707Y-81371786D01*
X161989711Y-81371789D01*
X162120814Y-81459390D01*
X162120827Y-81459397D01*
X162258683Y-81516498D01*
X162266503Y-81519737D01*
X162421153Y-81550499D01*
X162421156Y-81550500D01*
X162421158Y-81550500D01*
X162578844Y-81550500D01*
X162578845Y-81550499D01*
X162733497Y-81519737D01*
X162853868Y-81469878D01*
X162879172Y-81459397D01*
X162879172Y-81459396D01*
X162879179Y-81459394D01*
X163010289Y-81371789D01*
X163047331Y-81334747D01*
X163108653Y-81301261D01*
X163178345Y-81306245D01*
X163234279Y-81348115D01*
X163258697Y-81413579D01*
X163249575Y-81469878D01*
X163230263Y-81516502D01*
X163230261Y-81516510D01*
X163199500Y-81671153D01*
X163199500Y-81828846D01*
X163230261Y-81983489D01*
X163230264Y-81983501D01*
X163290602Y-82129172D01*
X163290609Y-82129185D01*
X163378210Y-82260288D01*
X163378213Y-82260292D01*
X163489707Y-82371786D01*
X163489711Y-82371789D01*
X163620814Y-82459390D01*
X163620827Y-82459397D01*
X163766498Y-82519735D01*
X163766503Y-82519737D01*
X163921153Y-82550499D01*
X163921156Y-82550500D01*
X163921158Y-82550500D01*
X164078844Y-82550500D01*
X164078845Y-82550499D01*
X164233497Y-82519737D01*
X164379179Y-82459394D01*
X164510289Y-82371789D01*
X164621789Y-82260289D01*
X164709394Y-82129179D01*
X164769737Y-81983497D01*
X164800500Y-81828842D01*
X164800500Y-81671158D01*
X164800500Y-81671155D01*
X164800499Y-81671153D01*
X164787391Y-81605256D01*
X164769737Y-81516503D01*
X164752188Y-81474136D01*
X164709397Y-81370827D01*
X164709390Y-81370814D01*
X164621789Y-81239711D01*
X164621786Y-81239707D01*
X164510292Y-81128213D01*
X164510288Y-81128210D01*
X164379185Y-81040609D01*
X164379172Y-81040602D01*
X164233501Y-80980264D01*
X164233489Y-80980261D01*
X164078845Y-80949500D01*
X164078842Y-80949500D01*
X163921158Y-80949500D01*
X163921155Y-80949500D01*
X163766510Y-80980261D01*
X163766498Y-80980264D01*
X163620827Y-81040602D01*
X163620814Y-81040609D01*
X163489711Y-81128210D01*
X163489706Y-81128214D01*
X163452666Y-81165254D01*
X163391343Y-81198739D01*
X163321651Y-81193753D01*
X163265718Y-81151881D01*
X163241302Y-81086417D01*
X163250424Y-81030121D01*
X163269737Y-80983497D01*
X163300500Y-80828842D01*
X163300500Y-80671158D01*
X163300500Y-80671155D01*
X163300499Y-80671153D01*
X163292148Y-80629172D01*
X163269737Y-80516503D01*
X163261824Y-80497399D01*
X163209397Y-80370827D01*
X163209390Y-80370814D01*
X163121789Y-80239711D01*
X163121786Y-80239707D01*
X163010292Y-80128213D01*
X163010288Y-80128210D01*
X162879185Y-80040609D01*
X162879172Y-80040602D01*
X162733501Y-79980264D01*
X162733489Y-79980261D01*
X162578845Y-79949500D01*
X162578842Y-79949500D01*
X162421158Y-79949500D01*
X162421155Y-79949500D01*
X162266510Y-79980261D01*
X162266498Y-79980264D01*
X162120827Y-80040602D01*
X162120814Y-80040609D01*
X161989711Y-80128210D01*
X161989707Y-80128213D01*
X161878213Y-80239707D01*
X161878210Y-80239711D01*
X161790609Y-80370814D01*
X161790602Y-80370827D01*
X161730264Y-80516498D01*
X161730261Y-80516510D01*
X161699500Y-80671153D01*
X160750293Y-80671153D01*
X160712044Y-80627011D01*
X160710275Y-80622949D01*
X160709394Y-80620821D01*
X160709391Y-80620816D01*
X160709390Y-80620814D01*
X160621789Y-80489711D01*
X160621786Y-80489707D01*
X160510292Y-80378213D01*
X160510288Y-80378210D01*
X160379185Y-80290609D01*
X160379172Y-80290602D01*
X160233501Y-80230264D01*
X160233489Y-80230261D01*
X160078845Y-80199500D01*
X160078842Y-80199500D01*
X159921158Y-80199500D01*
X159921155Y-80199500D01*
X159766510Y-80230261D01*
X159766498Y-80230264D01*
X159620827Y-80290602D01*
X159620814Y-80290609D01*
X159489711Y-80378210D01*
X159489707Y-80378213D01*
X159378213Y-80489707D01*
X159353102Y-80527289D01*
X159299489Y-80572093D01*
X159230164Y-80580800D01*
X159167137Y-80550645D01*
X159146898Y-80527289D01*
X159121786Y-80489707D01*
X159010292Y-80378213D01*
X159010288Y-80378210D01*
X158879185Y-80290609D01*
X158879172Y-80290602D01*
X158733501Y-80230264D01*
X158733489Y-80230261D01*
X158578845Y-80199500D01*
X158578842Y-80199500D01*
X158421158Y-80199500D01*
X158421155Y-80199500D01*
X158266510Y-80230261D01*
X158266498Y-80230264D01*
X158120827Y-80290602D01*
X158120814Y-80290609D01*
X157989711Y-80378210D01*
X157989707Y-80378213D01*
X157873903Y-80494018D01*
X157872738Y-80492853D01*
X157821549Y-80527719D01*
X157751704Y-80529586D01*
X157695766Y-80497399D01*
X157671544Y-80473177D01*
X157671540Y-80473174D01*
X157540437Y-80385573D01*
X157540424Y-80385566D01*
X157394753Y-80325228D01*
X157394741Y-80325225D01*
X157240097Y-80294464D01*
X157240094Y-80294464D01*
X157082410Y-80294464D01*
X157082407Y-80294464D01*
X156927762Y-80325225D01*
X156927750Y-80325228D01*
X156782079Y-80385566D01*
X156782066Y-80385573D01*
X156650963Y-80473174D01*
X156650959Y-80473177D01*
X156539465Y-80584671D01*
X156539462Y-80584675D01*
X156451861Y-80715778D01*
X156451854Y-80715791D01*
X156391516Y-80861462D01*
X156391513Y-80861474D01*
X156360752Y-81016117D01*
X152413682Y-81016117D01*
X152476882Y-80952917D01*
X152484751Y-80941139D01*
X152484753Y-80941138D01*
X152537990Y-80861462D01*
X152554637Y-80836548D01*
X152558088Y-80828218D01*
X152598661Y-80730264D01*
X152608196Y-80707245D01*
X152635500Y-80569978D01*
X152635500Y-80430022D01*
X152608196Y-80292755D01*
X152607304Y-80290602D01*
X152554638Y-80163453D01*
X152554636Y-80163449D01*
X152476885Y-80047087D01*
X152476879Y-80047079D01*
X152377920Y-79948120D01*
X152377912Y-79948114D01*
X152261550Y-79870363D01*
X152261546Y-79870361D01*
X152132249Y-79816805D01*
X152132237Y-79816802D01*
X151994982Y-79789500D01*
X151994978Y-79789500D01*
X151855022Y-79789500D01*
X151855017Y-79789500D01*
X151717762Y-79816802D01*
X151717750Y-79816805D01*
X151588453Y-79870361D01*
X151588449Y-79870363D01*
X151472087Y-79948114D01*
X151472079Y-79948120D01*
X151373120Y-80047079D01*
X151373114Y-80047087D01*
X151295363Y-80163449D01*
X151295361Y-80163453D01*
X151241805Y-80292750D01*
X151241802Y-80292762D01*
X151214500Y-80430017D01*
X146285499Y-80430017D01*
X146258196Y-80292755D01*
X146257304Y-80290602D01*
X146204638Y-80163453D01*
X146204636Y-80163449D01*
X146126885Y-80047087D01*
X146126879Y-80047079D01*
X146027920Y-79948120D01*
X146027912Y-79948114D01*
X145911550Y-79870363D01*
X145911546Y-79870361D01*
X145782249Y-79816805D01*
X145782237Y-79816802D01*
X145644982Y-79789500D01*
X145644978Y-79789500D01*
X145505022Y-79789500D01*
X145505017Y-79789500D01*
X145367762Y-79816802D01*
X145367750Y-79816805D01*
X145238453Y-79870361D01*
X145238449Y-79870363D01*
X145122087Y-79948114D01*
X145122079Y-79948120D01*
X145023120Y-80047079D01*
X145023114Y-80047087D01*
X144945363Y-80163449D01*
X144945361Y-80163453D01*
X144891805Y-80292750D01*
X144891802Y-80292762D01*
X144864500Y-80430017D01*
X144280375Y-80430017D01*
X144286398Y-80399738D01*
X144300500Y-80328844D01*
X144300500Y-80171155D01*
X144300499Y-80171153D01*
X144291957Y-80128210D01*
X144269737Y-80016503D01*
X144269735Y-80016498D01*
X144209397Y-79870827D01*
X144209390Y-79870814D01*
X144121789Y-79739711D01*
X144121786Y-79739707D01*
X144072806Y-79690727D01*
X144039321Y-79629404D01*
X144044305Y-79559712D01*
X144057384Y-79534157D01*
X144063364Y-79525209D01*
X144123707Y-79379527D01*
X144154470Y-79224872D01*
X144154470Y-79067188D01*
X144154470Y-79067185D01*
X144154469Y-79067183D01*
X144123707Y-78912533D01*
X144123705Y-78912528D01*
X144063367Y-78766857D01*
X144063360Y-78766844D01*
X143975759Y-78635741D01*
X143975756Y-78635737D01*
X143864262Y-78524243D01*
X143864258Y-78524240D01*
X143733155Y-78436639D01*
X143733142Y-78436632D01*
X143587471Y-78376294D01*
X143587459Y-78376291D01*
X143432815Y-78345530D01*
X143432812Y-78345530D01*
X143275128Y-78345530D01*
X143275125Y-78345530D01*
X143120480Y-78376291D01*
X143120468Y-78376294D01*
X142974797Y-78436632D01*
X142974784Y-78436639D01*
X142843681Y-78524240D01*
X142843677Y-78524243D01*
X142732183Y-78635737D01*
X142732180Y-78635741D01*
X142644579Y-78766844D01*
X142644572Y-78766857D01*
X142584234Y-78912528D01*
X142584231Y-78912540D01*
X142553470Y-79067183D01*
X136705112Y-79067183D01*
X137457872Y-78605891D01*
X137462060Y-78603438D01*
X138307476Y-78129982D01*
X138311738Y-78127702D01*
X139175105Y-77687794D01*
X139179479Y-77685673D01*
X140059464Y-77279994D01*
X140063843Y-77278079D01*
X140959086Y-76907257D01*
X140963557Y-76905507D01*
X141872702Y-76570105D01*
X141877220Y-76568539D01*
X142330828Y-76421153D01*
X147949500Y-76421153D01*
X147949500Y-76578846D01*
X147980261Y-76733489D01*
X147980264Y-76733501D01*
X148040602Y-76879172D01*
X148040609Y-76879185D01*
X148128210Y-77010288D01*
X148128213Y-77010292D01*
X148239707Y-77121786D01*
X148239711Y-77121789D01*
X148370814Y-77209390D01*
X148370827Y-77209397D01*
X148516498Y-77269735D01*
X148516503Y-77269737D01*
X148671153Y-77300499D01*
X148671156Y-77300500D01*
X148671158Y-77300500D01*
X148828844Y-77300500D01*
X148828845Y-77300499D01*
X148983497Y-77269737D01*
X149129179Y-77209394D01*
X149260289Y-77121789D01*
X149287317Y-77094760D01*
X149348637Y-77061275D01*
X149418329Y-77066257D01*
X149462680Y-77094759D01*
X149509707Y-77141786D01*
X149509711Y-77141789D01*
X149640814Y-77229390D01*
X149640827Y-77229397D01*
X149760574Y-77278997D01*
X149786503Y-77289737D01*
X149941153Y-77320499D01*
X149941156Y-77320500D01*
X149941158Y-77320500D01*
X150098844Y-77320500D01*
X150098845Y-77320499D01*
X150253497Y-77289737D01*
X150399179Y-77229394D01*
X150530289Y-77141789D01*
X150641789Y-77030289D01*
X150729394Y-76899179D01*
X150789737Y-76753497D01*
X150820500Y-76598842D01*
X150820500Y-76441158D01*
X150820500Y-76441155D01*
X150820499Y-76441153D01*
X150816521Y-76421153D01*
X150789737Y-76286503D01*
X150748035Y-76185824D01*
X150729397Y-76140827D01*
X150729390Y-76140814D01*
X150641789Y-76009711D01*
X150641786Y-76009707D01*
X150530292Y-75898213D01*
X150530288Y-75898210D01*
X150399185Y-75810609D01*
X150399172Y-75810602D01*
X150253501Y-75750264D01*
X150253489Y-75750261D01*
X150098845Y-75719500D01*
X150098842Y-75719500D01*
X149941158Y-75719500D01*
X149941155Y-75719500D01*
X149786510Y-75750261D01*
X149786498Y-75750264D01*
X149640827Y-75810602D01*
X149640814Y-75810609D01*
X149509711Y-75898210D01*
X149509707Y-75898213D01*
X149482681Y-75925240D01*
X149421358Y-75958725D01*
X149351666Y-75953741D01*
X149307319Y-75925240D01*
X149260292Y-75878213D01*
X149260288Y-75878210D01*
X149129185Y-75790609D01*
X149129172Y-75790602D01*
X148983501Y-75730264D01*
X148983489Y-75730261D01*
X148828845Y-75699500D01*
X148828842Y-75699500D01*
X148671158Y-75699500D01*
X148671155Y-75699500D01*
X148516510Y-75730261D01*
X148516498Y-75730264D01*
X148370827Y-75790602D01*
X148370814Y-75790609D01*
X148239711Y-75878210D01*
X148239707Y-75878213D01*
X148128213Y-75989707D01*
X148128210Y-75989711D01*
X148040609Y-76120814D01*
X148040602Y-76120827D01*
X147980264Y-76266498D01*
X147980261Y-76266510D01*
X147949500Y-76421153D01*
X142330828Y-76421153D01*
X142798787Y-76269104D01*
X142803424Y-76267698D01*
X143736023Y-76004677D01*
X143740650Y-76003470D01*
X144682914Y-75777253D01*
X144687610Y-75776223D01*
X145637978Y-75587182D01*
X145642714Y-75586336D01*
X146599788Y-75434751D01*
X146604553Y-75434092D01*
X147566809Y-75320201D01*
X147571612Y-75319728D01*
X148537660Y-75243698D01*
X148542446Y-75243417D01*
X149510651Y-75205376D01*
X149515519Y-75205280D01*
X150484481Y-75205280D01*
X150489349Y-75205376D01*
G37*
%TD.AperFunction*%
%TD*%
M02*
