%TF.GenerationSoftware,KiCad,Pcbnew,10.0.3-10.0.3~ubuntu25.10.1*%
%TF.CreationDate,2026-05-30T12:31:28-07:00*%
%TF.ProjectId,chugjug,63687567-6a75-4672-9e6b-696361645f70,rev?*%
%TF.SameCoordinates,Original*%
%TF.FileFunction,Copper,L4,Bot*%
%TF.FilePolarity,Positive*%
%FSLAX46Y46*%
G04 Gerber Fmt 4.6, Leading zero omitted, Abs format (unit mm)*
G04 Created by KiCad (PCBNEW 10.0.3-10.0.3~ubuntu25.10.1) date 2026-05-30 12:31:28*
%MOMM*%
%LPD*%
G01*
G04 APERTURE LIST*
G04 Aperture macros list*
%AMRoundRect*
0 Rectangle with rounded corners*
0 $1 Rounding radius*
0 $2 $3 $4 $5 $6 $7 $8 $9 X,Y pos of 4 corners*
0 Add a 4 corners polygon primitive as box body*
4,1,4,$2,$3,$4,$5,$6,$7,$8,$9,$2,$3,0*
0 Add four circle primitives for the rounded corners*
1,1,$1+$1,$2,$3*
1,1,$1+$1,$4,$5*
1,1,$1+$1,$6,$7*
1,1,$1+$1,$8,$9*
0 Add four rect primitives between the rounded corners*
20,1,$1+$1,$2,$3,$4,$5,0*
20,1,$1+$1,$4,$5,$6,$7,0*
20,1,$1+$1,$6,$7,$8,$9,0*
20,1,$1+$1,$8,$9,$2,$3,0*%
G04 Aperture macros list end*
%TA.AperFunction,WasherPad*%
%ADD10O,1.701800X1.092200*%
%TD*%
%TA.AperFunction,ComponentPad*%
%ADD11R,2.000000X2.000000*%
%TD*%
%TA.AperFunction,ComponentPad*%
%ADD12C,2.000000*%
%TD*%
%TA.AperFunction,ComponentPad*%
%ADD13RoundRect,0.250000X0.350000X0.625000X-0.350000X0.625000X-0.350000X-0.625000X0.350000X-0.625000X0*%
%TD*%
%TA.AperFunction,ComponentPad*%
%ADD14O,1.200000X1.750000*%
%TD*%
%TA.AperFunction,ViaPad*%
%ADD15C,0.600000*%
%TD*%
%TA.AperFunction,Conductor*%
%ADD16C,0.200000*%
%TD*%
%TA.AperFunction,Conductor*%
%ADD17C,1.000000*%
%TD*%
G04 APERTURE END LIST*
D10*
%TO.P,J4,*%
%TO.N,*%
X130954400Y-95180000D03*
X127154401Y-95180000D03*
X130954400Y-103820000D03*
X127154401Y-103820000D03*
%TD*%
D11*
%TO.P,BZ1,1,+_1*%
%TO.N,Net-(BZ1-+)*%
X162000000Y-106250000D03*
D12*
%TO.P,BZ1,2,-_2*%
%TO.N,Net-(BZ1--)*%
X152000000Y-106250000D03*
%TD*%
D13*
%TO.P,J2,1,Pin_1_1*%
%TO.N,+BATT*%
X139000000Y-90950000D03*
D14*
%TO.P,J2,2,Pin_2_2*%
%TO.N,GND*%
X137000000Y-90950000D03*
%TD*%
D15*
%TO.N,3V3*%
X152620601Y-90660185D03*
X143120315Y-89566224D03*
X151368219Y-91270000D03*
X161796194Y-98318105D03*
X151291761Y-76518395D03*
X148203985Y-93796015D03*
X167500000Y-84393533D03*
X156201252Y-81075808D03*
X146375285Y-91735660D03*
X167547159Y-93309293D03*
X149950000Y-91650000D03*
X154350000Y-84000000D03*
X159113688Y-98080027D03*
%TO.N,/STLINK_UART_RX*%
X151049265Y-86049265D03*
X143500000Y-80250000D03*
%TO.N,GND*%
X152605731Y-99542985D03*
X163743279Y-98306715D03*
X140750000Y-102250000D03*
X152993732Y-92843283D03*
X148750000Y-76500000D03*
X140858259Y-94816121D03*
X145500000Y-97500000D03*
X156188809Y-96500000D03*
X142750000Y-99827934D03*
X153250000Y-89750000D03*
X150750000Y-102500000D03*
X150020000Y-76520000D03*
X148250000Y-87250000D03*
X136750000Y-100750000D03*
X143353970Y-79146030D03*
X151990740Y-92837014D03*
X165752992Y-98301491D03*
X149800000Y-88750000D03*
X144761789Y-87144330D03*
X148950000Y-91400000D03*
X132250000Y-102250000D03*
X137000000Y-93250000D03*
X134248286Y-96497429D03*
X149650000Y-97600000D03*
X168250000Y-86000000D03*
X143096822Y-86007451D03*
X136250000Y-96250000D03*
X146750000Y-87250000D03*
X167247032Y-98296267D03*
X167547015Y-91131345D03*
X135250000Y-96423833D03*
X148264995Y-94743279D03*
X134233580Y-99008951D03*
X155547424Y-98075421D03*
X164750000Y-94750000D03*
X157161252Y-81094964D03*
X134249251Y-100011943D03*
X147246309Y-98974165D03*
%TO.N,/I2S_BCLK*%
X167500000Y-89000000D03*
X152500000Y-98750000D03*
%TO.N,/I2S_LRCLK*%
X152500000Y-100500000D03*
X168250000Y-88500000D03*
%TO.N,/I2S_DATA*%
X151750000Y-97750000D03*
X168000000Y-87500000D03*
%TO.N,/SD_MODE*%
X148500000Y-97600000D03*
X167499936Y-86782228D03*
%TO.N,/STLINK_SWCLK*%
X164000000Y-81750000D03*
X149575735Y-84575735D03*
%TO.N,/STLINK_SWO*%
X162500000Y-80750000D03*
X148750000Y-84500000D03*
%TO.N,/LIS3DH_INT1*%
X160750000Y-81500000D03*
X147500000Y-86750000D03*
%TO.N,/LIS3DH_I2C1_SCL*%
X148000000Y-92500000D03*
X160000000Y-81000000D03*
%TO.N,/LIS3DH_I2C1_SDA*%
X158500000Y-81000000D03*
X151000000Y-89750000D03*
%TO.N,Net-(BZ1-+)*%
X162000000Y-103500000D03*
X148500000Y-102250000D03*
%TD*%
%TO.N,/STLINK_UART_RX*%
D16*
X151049265Y-86049265D02*
X150750000Y-85750000D01*
X149000000Y-85750000D02*
X143500000Y-80250000D01*
X150750000Y-85750000D02*
X149000000Y-85750000D01*
%TO.N,/I2S_BCLK*%
X160500000Y-96000000D02*
X159000000Y-96000000D01*
X167500000Y-89000000D02*
X160500000Y-96000000D01*
X156250000Y-98750000D02*
X152500000Y-98750000D01*
X159000000Y-96000000D02*
X156250000Y-98750000D01*
%TO.N,/I2S_LRCLK*%
X168250000Y-88500000D02*
X168750000Y-89000000D01*
X168750000Y-89000000D02*
X168750000Y-93250000D01*
X165750000Y-96250000D02*
X162250000Y-96250000D01*
X162250000Y-96250000D02*
X158000000Y-100500000D01*
X168750000Y-93250000D02*
X165750000Y-96250000D01*
X158000000Y-100500000D02*
X152500000Y-100500000D01*
%TO.N,/I2S_DATA*%
X153750000Y-97750000D02*
X163250000Y-88250000D01*
X163250000Y-88250000D02*
X166000000Y-88250000D01*
X166000000Y-88250000D02*
X166500000Y-87750000D01*
X167750000Y-87750000D02*
X168000000Y-87500000D01*
X151750000Y-97750000D02*
X153750000Y-97750000D01*
X166500000Y-87750000D02*
X167750000Y-87750000D01*
%TO.N,/SD_MODE*%
X162467772Y-86782228D02*
X153000000Y-96250000D01*
X153000000Y-96250000D02*
X149500000Y-96250000D01*
X167499936Y-86782228D02*
X162467772Y-86782228D01*
X148500000Y-97250000D02*
X148500000Y-97600000D01*
X149500000Y-96250000D02*
X148500000Y-97250000D01*
%TO.N,/STLINK_SWCLK*%
X161500000Y-81250000D02*
X161500000Y-80250000D01*
X160250000Y-79000000D02*
X150750000Y-79000000D01*
X149575735Y-80174265D02*
X149575735Y-84575735D01*
X162000000Y-81750000D02*
X161500000Y-81250000D01*
X164000000Y-81750000D02*
X162000000Y-81750000D01*
X161500000Y-80250000D02*
X160250000Y-79000000D01*
X150750000Y-79000000D02*
X149575735Y-80174265D01*
%TO.N,/STLINK_SWO*%
X150000000Y-78000000D02*
X148750000Y-79250000D01*
X162500000Y-80000000D02*
X160500000Y-78000000D01*
X162500000Y-80750000D02*
X162500000Y-80000000D01*
X148750000Y-79250000D02*
X148750000Y-84500000D01*
X160500000Y-78000000D02*
X150000000Y-78000000D01*
%TO.N,/LIS3DH_INT1*%
X151600000Y-86650000D02*
X152100000Y-86150000D01*
X147500000Y-86750000D02*
X147600000Y-86650000D01*
X156250000Y-79750000D02*
X160000000Y-79750000D01*
X147600000Y-86650000D02*
X151600000Y-86650000D01*
X160750000Y-80500000D02*
X160750000Y-81500000D01*
X152100000Y-83900000D02*
X156250000Y-79750000D01*
X160000000Y-79750000D02*
X160750000Y-80500000D01*
X152100000Y-86150000D02*
X152100000Y-83900000D01*
%TO.N,/LIS3DH_I2C1_SCL*%
X148750000Y-92500000D02*
X150250000Y-94000000D01*
X160000000Y-87000000D02*
X160000000Y-81000000D01*
X148000000Y-92500000D02*
X148750000Y-92500000D01*
X150250000Y-94000000D02*
X153000000Y-94000000D01*
X153000000Y-94000000D02*
X160000000Y-87000000D01*
%TO.N,/LIS3DH_I2C1_SDA*%
X158500000Y-82300000D02*
X158500000Y-81000000D01*
X151000000Y-89750000D02*
X151050000Y-89750000D01*
X151050000Y-89750000D02*
X158500000Y-82300000D01*
%TO.N,Net-(BZ1-+)*%
D17*
X162000000Y-103500000D02*
X149750000Y-103500000D01*
X149750000Y-103500000D02*
X148500000Y-102250000D01*
%TD*%
M02*
